<?xml version="1.0" encoding="utf-8"?>
<!-- Generator: Adobe Illustrator 26.5.0, SVG Export Plug-In . SVG Version: 6.00 Build 0)  -->
<svg version="1.1" id="Layer_1" xmlns="http://www.w3.org/2000/svg" xmlns:xlink="http://www.w3.org/1999/xlink" x="0px" y="0px"
	 viewBox="0 0 35 40" style="enable-background:new 0 0 35 40;" xml:space="preserve">
<style type="text/css">
	.st0{fill:#C4AEFF;}
</style>
<path class="st0" d="M35,39.5h-4.08c-0.9,0-1.74-0.48-2.19-1.25l-4.08-7c-0.45-0.77-0.45-1.72,0-2.49l4.08-7
	c0.45-0.77,1.29-1.25,2.19-1.25H35V19.5h-4.08c-0.9,0-1.74-0.48-2.19-1.25l-4.08-7c-0.45-0.77-0.45-1.72,0-2.49l4.08-7
	c0.45-0.77,1.29-1.25,2.19-1.25H35V0h-6.81c0,0.43-0.11,0.86-0.34,1.25l-4.08,7c-0.45,0.77-1.29,1.25-2.19,1.25h-8.16
	c-0.9,0-1.74-0.48-2.19-1.25l-4.08-7C6.92,0.86,6.81,0.43,6.81,0H0v0.5h4.08c0.9,0,1.74,0.48,2.19,1.25l4.08,7
	c0.45,0.77,0.45,1.72,0,2.49l-4.08,7c-0.45,0.77-1.29,1.25-2.19,1.25H0v1.01h4.08c0.9,0,1.74,0.48,2.19,1.25l4.08,7
	c0.45,0.77,0.45,1.72,0,2.49l-1.17,2l-2.92,5c0,0,0,0,0,0c-0.45,0.77-1.29,1.25-2.19,1.25H0V40h6.81c0-0.43,0.11-0.86,0.34-1.25
	l1.17-2l2.92-5c0,0,0,0,0,0c0.45-0.77,1.29-1.25,2.19-1.25h8.16c0.9,0,1.74,0.48,2.19,1.25l4.08,7c0.22,0.38,0.34,0.82,0.34,1.25H35
	V39.5z M21.58,29.5h-8.16c-0.9,0-1.74-0.48-2.19-1.25l-4.08-7c-0.45-0.77-0.45-1.72,0-2.49l4.08-7c0.45-0.77,1.29-1.25,2.19-1.25
	h8.16c0.9,0,1.74,0.48,2.19,1.25l4.08,7c0.45,0.77,0.45,1.72,0,2.49l-4.08,7C23.32,29.02,22.48,29.5,21.58,29.5z"/>
</svg>
