<?xml version="1.0" encoding="utf-8"?>
<!-- Generator: Adobe Illustrator 23.0.2, SVG Export Plug-In . SVG Version: 6.00 Build 0)  -->
<svg version="1.1" id="Layer_1" xmlns="http://www.w3.org/2000/svg" xmlns:xlink="http://www.w3.org/1999/xlink" x="0px" y="0px"
	 viewBox="0 0 1080 1080" style="enable-background:new 0 0 1080 1080;" xml:space="preserve">
<style type="text/css">
	.st0{fill:#FFFFFF;}
	.st1{fill:none;}
	.st2{opacity:0.25;}
	.st3{fill:#8BC93A;}
	.st4{opacity:0.4;}
	.st5{fill:#FFDA7D;}
	.st6{fill:#D9DE1F;}
	.st7{fill:#9E005D;}
	.st8{fill:#F94658;}
	.st9{opacity:0.55;}
	.st10{fill:#F4536A;}
	.st11{opacity:0.3;}
	.st12{display:none;}
	.st13{display:inline;}
	.st14{fill:#FFCE00;}
	.st15{opacity:0.1;}
	.st16{fill:#F41700;}
	.st17{fill:#FFD400;}
	.st18{opacity:0.25;enable-background:new    ;}
</style>
<g id="dragon">
	<g id="cuerpo">
		<g id="pata_x5F_I">
			<g id="color_x5F_uña_00000162323099938937477080000010986558602872469138_">
				<g>
					<g>
						<path class="st0" d="M631.3,970.6c4.1,2.4,9.1,2,11.9,1.5c-0.1,4.5,2.5,7.4,5,9c-12,8.8-20.6,6.8-23.4,5.7
							c-0.4-1.9,1.8-10.1,4.5-17.7C629.9,969.7,630.6,970.2,631.3,970.6z"/>
					</g>
				</g>
				<g>
					<g>
						<path class="st0" d="M625.8,963c0.1,0.5,0.2,0.9,0.4,1.3c-8.6-1.5-17.3-4-18-5.7c-0.1-1.5,6.7-5.9,14.5-9.6
							c0.5,2.3,1,4.4,1.4,6.3C624.7,958,625.3,960.6,625.8,963z"/>
					</g>
				</g>
				<g>
					<g>
						<path class="st1" d="M631.3,970.6c4.1,2.4,9.1,2,11.9,1.5c0,0.8,0.1,1.5,0.2,2.2c-2.2,2.2-6.6,5.7-10.9,8.7
							c-3.3,2.3-5.5,3.5-6.8,4.1c-0.3-0.1-0.6-0.2-0.8-0.3c-0.4-1.9,1.8-10.1,4.5-17.7C629.9,969.7,630.6,970.2,631.3,970.6z"/>
					</g>
				</g>
				<g>
					<g>
						<path class="st1" d="M624.4,956.5c-3.3,0.1-16,0.7-15.8,2.5c-0.2-0.2-0.3-0.3-0.4-0.5c-0.1-1.5,6.7-5.9,14.5-9.6
							c0.5,2.3,1,4.4,1.4,6.3C624.2,955.7,624.3,956.1,624.4,956.5z"/>
					</g>
				</g>
				<g class="st2">
					<g>
						<path d="M643.4,974.4c0.7,3.2,2.8,5.5,4.8,6.8c-11,8-19.1,7-22.6,6c1.3-0.6,3.5-1.8,6.8-4.1
							C636.8,980,641.3,976.5,643.4,974.4z"/>
					</g>
				</g>
				<g class="st2">
					<g>
						<path d="M624.4,956.5c0.5,2.3,1,4.5,1.4,6.5c0.1,0.5,0.2,0.9,0.4,1.3c-7.8-1.4-15.8-3.5-17.6-5.3
							C608.4,957.2,621.1,956.6,624.4,956.5z"/>
					</g>
				</g>
			</g>
			<g id="color_x5F_pata_00000159463545400409716540000002421310369259882893_">
				<path class="st3" d="M774.4,717.6c-9.4-14.3-20.3-27.6-31.6-40.1c-26-28.8-66.8-40.3-103.9-28.4
					c-51.9,16.7-80.4,72.2-63.8,124.1c10.5,32.6,38.5,52.6,62.5,75.3c-8.4-1.5-15.5-1.9-22.5,4.1c-6.8,5.8-9.8,15.1-10,24
					c-0.1,8.9,2.3,17.7,4.7,26.3c5.3,18.3,11,36.6,17,54.7c0.8,2.4,1.7,5,3.8,6.5c3.9,2.8,10.2,0.7,13.7,4c3.4,3.2,1.9,9.6,5.4,12.8
					c4,3.7,10.5-0.1,14.1-4.2c11.1-12.8,17.3-29.8,17-46.8c0-2.1-0.1-4.4,1-6.2c1-1.5,2.6-2.5,4.3-3.1c5.6-2.1,11.8-1.7,17.7-2.2
					c12-1.1,23.4-6.3,33.7-12.7c22.4-13.8,41.3-33.5,52.7-57.2s15.1-51.2,8.8-76.7C794.2,752.3,785.3,734.3,774.4,717.6z"/>
				<g class="st2">
					<g>
						<path d="M625.7,881.8c0.3-6.7,2.8-13.3,8-17.5c3.9-3.3,9-4.8,13.9-5.9c8.2-1.9,16.5-2.9,24.9-3c-12-2.8-23.7-7.2-34.6-13
							c-11.3-6-19.6-14-28.4-23.3c-32-33.4-50.5-78.3-25.4-122.2c17.3-30.2,53.1-48.8,87.8-45.5c7.3,0.7,14.5,2.3,21.5,4.4
							c35.7,10.9,60.6,35.3,80.5,65.8c2.7,4.2,14.2,22.7,20.8,47.2c1.1,4.1,2.1,8.6,3,13.3c-0.4,0.5-0.5,1.2-0.2,1.8
							c0.1,0.2,0.3,0.4,0.5,0.5c3.8,23.9,1.9,53.6-18.4,80.8c-8.5,11.3-18,21.8-29,30.7c-12.1,9.7-26,17.5-41.1,21.1
							c-4.8,1.1-9.8,2.1-14.7,2.1c-3.7,0-6.5-2.4-9.9-0.3c-4.3,2.7-3.2,7.3-3.4,11.6c-0.1,4-0.4,8.1-0.9,12.1
							c-1,8.2-2.5,17.1-7.1,24.1c-4,6-9.8,10.9-17,12.5c-2.1,0.5-4.4,1-6.3,0c-3.3-1.7-6.3-5.8-9.5-7.9c-3.4-2.2-6.9-2.5-6.8-7.2
							c0-2.3,0.8-4.5,1.6-6.7c3.1-9.4,4.8-19.5,3.2-29.3c-1.2-7.5-4.3-14.5-7.1-21.5s-5.5-14.3-5.8-21.8
							C625.7,883.7,625.7,882.7,625.7,881.8z"/>
					</g>
				</g>
			</g>
			<path id="contorno_x5F_pata_00000140000200050860983750000010288945753717524904_" d="M801.2,766.8
				c-7.7-28.2-21.7-51.8-42.9-72.1c-1.2-1.2-9.2-9.8-10.6-9.4c-0.8,0.3-1.2,1.3-1,2.2s0.8,1.6,1.3,2.2c6.1,7.3,11.3,15.1,16.3,23.2
				c1.7,2.8,3.4,5.6,5,8.4c0.2,0.5,0.4,1,0.7,1.5c0.7,1,52.6,78.2,6.5,139.8c-18.1,24.1-47.3,52.3-80,52.4
				c-13.8,0.1-28-3.6-39.9-10.8c-0.6-0.4-1.5-0.7-2-0.2c-0.5,0.5-0.1,1.3,0.3,1.9c5.6,8.4,13.6,12.3,22,17.3
				c0.2,0.1,0.4,0.2,0.5,0.4c0.2,0.3,0.1,0.5,0.1,0.8c-1.1,13.1,0.3,28-7.3,39.7c-1.6,2.4-16.8,17.3-19.3,9.1
				c-0.4-1.3,0-2.6,0.4-3.8c1.8-4.9,5.6-9.1,6-14.3c0-0.5,0-1.1-0.5-1.3c-0.5-0.2-1,0.2-1.4,0.6c-2.9,3.1-6.2,6-9.7,8.5
				c-3.1,2.2-7.2,4.2-10.5,2.3c-0.8-0.4-1.4-1-1.9-1.7c0-0.1-0.1-0.1-0.1-0.2c-0.1-0.2-0.3-0.5-0.5-0.7c-1-1.7-1.4-3.9-1.8-5.9
				c-0.6-3.4-1.3-6.8-2-10.3c0-0.6-0.2-1.2-0.4-1.8c-3-13.4-7.3-26.6-12.4-39.4c-5.2-13.2-11.5-39.1,2.3-49.5
				c3-2.2,6.7-3.3,10.4-3.9c10.8-1.7,19.8,3.5,30.3,4.7c3.8,0.4,11.6,1.8,14.5-1.4c0.7-0.8-0.5-1.8-1.5-2
				c-17.5-4.9-34.9-13.9-49.2-25.2c-15.7-12.4-28.1-28.3-39.8-44.3c-0.3-0.5-0.7-0.9-1.2-1.2c-0.5-0.2-1.2-0.1-1.5,0.4
				c-0.2,0.4,0,0.9,0.2,1.4c5.4,11,12.8,21.2,20.5,30.7c7.1,8.7,15,16.9,23.1,24.7c1,0.9,2,1.8,3,2.7c-2.2-1.9-12.6,2.9-14.7,4.1
				c-3.9,2.3-7.9,6.3-9.7,10.5c-7.1,16.2-3,36.3,3.3,52.1c5.7,14.4,8.9,25.4,11.2,34.5c-1.7,0.8-3.6,1.8-5.6,3
				c-4.2,2.4-13,7.5-10.2,14.3c0.7,1.7,2.4,5.9,19.8,9.3c-0.5,1.5-1,3.1-1.5,4.8c-2,6.8-4.5,15.3,1.7,17.8c3.4,1.4,15.3,5,31-6.8
				c5-0.2,17.1-2.3,26.2-16.1c8-12.2,9.2-33.7,9.3-44.4c13.5,0.9,45.2-1.6,79.5-36.5c5.7-5.8,11.4-12.4,17.2-20.1
				C806.2,840.9,811.8,805.5,801.2,766.8z M620,954.6c0.1,0.5,0.2,1,0.3,1.5c0.2,1.1,0.5,2.2,0.7,3.2c-2.4-0.5-4.5-1.1-6.3-1.7
				C616.3,956.7,618.1,955.7,620,954.6z M629,983.9c0.4-2.2,1.3-5.4,2.5-8.9c2.9,1.2,5.9,1.5,8.5,1.4c0.5,1.6,1.2,3,2.2,4.3
				C636.3,983.8,631.8,984.2,629,983.9z"/>
		</g>
		<g id="brazo_x5F_I">
			<path class="st3" d="M708.7,572.3c-0.1-0.9-0.1-1.9-0.1-2.8c-0.1-6.8,1.5-13.7,5.5-19.2s10.7-9.1,17.4-8.7
				c4.1,0.3,8,2.1,11.5,4.4c5.8,3.9,10.8,9.4,16,14.2c5.6,5.3,11.1,10.7,16.2,16.5c-0.2-0.2,3.5-10.2,3.8-11.1
				c1.3-4.2,3.1-8.3,5.1-12.3c8.1-15.8,18-29.7,34.2-37.7c16.1-7.9,37-3.9,51.1,6.7c3,2.2,5.8,5,6.6,8.5c0.9,4.4-3.4,9.5-7.7,10.3
				c1.7,2.8,3.8,5.4,4.8,8.6c1,3.2,0.9,6.9-1.1,9.6s-6.2,3.8-8.8,1.8c0,6-0.7,13.3-6.2,15.6c-2.8,1.2-6,0.7-9-0.1
				c-4.8-1.3-9.4-3-13.8-5.3c-4.2,15.2-13.4,28.4-22.4,41.3c-7.2,10.3-15.2,21.2-27.1,25.1c-3.4,1.1-6.9,1.6-10.5,2
				c-8.9,1-19.4,1.6-27.4-3c-8.2-4.7-15.1-11.4-20.6-19.1c-6.1-8.6-10.4-18.3-13.7-28.3C710.7,583.8,709.1,578.1,708.7,572.3z"/>
			<g class="st2">
				<g>
					<path d="M846.9,576.9c-1.4-0.6-13-8.3-13.5-7.2c-10,23.2-21.6,53.7-45.6,65.9c-5.5,2.8-10.7,4.3-15.7,4.8c-0.1,0-0.1,0-0.2,0
						c-22.5,2.1-39.4-16.4-48.6-29.7c0,0,0-0.1-0.1-0.1c-0.1-0.2-0.3-0.4-0.4-0.6c0,0,0,0-0.1-0.1c-1.8-2.5-3.2-5.3-4.9-7.8
						c10.5,2.2,21.3,2.4,31.9,0.8c9.4-1.5,19.4-5.1,23.9-13.4c0.7-1.3,1.5-2.9,3-3.2c0.7-0.1,1.4,0.1,2.1,0.3
						c8,2.3,16.9,3.6,24.5,0.1c5.6-2.6,9.7-7.5,13.7-12.3c4-4.8,5.5-10,7.8-15.6c6.5,3.2,13.4,5.3,20.5,6.5c1.8,0.3,3.8,0.5,5.4-0.5
						c1.7-1,2.4-3.2,2.3-5.1c-0.1-2-1-3.8-1.9-5.5c3.1,0.4,6.4,0.8,9.3-0.3c6.2-2.3,4.4-7.9,5-12.8c-0.2,1.4,5.3,5.6,5.5,8.1
						c1.2,2.9,1.9,6.3,0.6,9.1s-5.1,4.7-7.8,3c0,3.4-0.2,6.9-1.3,10.1c-1.2,3.2-3.6,6.1-6.9,6.9C852.6,578.9,849.6,578,846.9,576.9z
						"/>
				</g>
			</g>
			<g class="st4">
				<g>
					<path class="st0" d="M806.2,534.3c-14.2,16.7-24.3,36.6-31.5,57.3c-1.5-8.3,1-16.8,4.2-24.6c4.6-11.2,10.7-22.1,18.4-31.5
						c9.8-11.9,21.4-21.9,37.4-22.9c14.1-0.9,28.7,4.1,38.9,14c1.8,1.8,3.6,3.9,3.7,6.5c0,0.8-0.2,1.8-0.9,2.2c-1,0.6-2.3,0-3.2-0.7
						c-3.9-2.7-7.8-5.4-11.8-8c-2.3-1.5-4.5-3.1-7-4.3C838.5,514.9,817.1,521.5,806.2,534.3z"/>
				</g>
			</g>
			<path d="M724.4,536.4c-1.7-0.3-3.6-0.5-5,0.5c0,1.3,1.4,2,2.7,2.5c11.1,4.5,21.4,10.9,30.2,19c4.5,4.2,8.7,8.8,12.4,13.7
				c1.8,2.4,4,5,5.2,7.8c1.3,2.8,0.8,5.6,1.1,8.6c0.1,1.8-0.1,9.7,1.7,10.7c0.8,0.4,1.8-0.1,2.4-0.8s0.7-1.7,0.8-2.6
				c2.7-19.2,9.8-38.3,20.6-54.4c7-10.4,15.2-20.4,27.5-24.2c12.1-3.8,25.7-2.6,37,3.1c5.1,2.6,9.9,6.2,12.6,11.3
				c3,5.7-7,5.7-9.8,4.2c-1.6-0.9-3.3-2.2-5-1.5c-0.2,1.6,1,3,2.2,4.2c3.4,3.5,12.4,13.9,5.7,18.3c-5,3.3-12.6-1.4-15.8-5.2
				c-0.3-0.4-0.7-0.8-1.1-0.9c-4-1.2,0.4,4.3,0.9,4.8c2,2.1,3.8,4.5,5.3,7c2.4,4.3,4.1,11.8-3.5,10.9c-9.6-1.2-18.3-8.9-24.9-15.5
				c-1-1.1-2.2-2.2-3.7-2.5c-9.1-1.9,5.5,13.5,5.3,14.6c-2.6,11.1-8.9,22.4-14.5,32.2c-6.7,11.9-15.5,24.2-28,30.6
				c-14.4,7.3-30.7,3.7-43.5-5.2c-6.6-4.6-12.3-10.3-17-16.8c-4.6-6.3-7-13.9-11.8-20c-0.3-0.5-0.8-0.9-1.3-1
				c-0.9-0.2-1.8,0.6-2,1.5c-0.2,0.9,0,1.8,0.3,2.7c9.7,32.8,43.6,64.5,79.1,46.4c1.5-0.8,2.9-1.6,4.3-2.5
				c22.9-14.8,36.5-49.2,40.9-62.1c6,3.1,16,7.6,22.2,6.2c3.3-0.7,5.9-2.7,7.2-5.7c0.5-1.1,2.3-10.1,0.2-10.4
				c5.4,0.8,10.7-3.7,11.7-9c1-5.3-1.6-10.9-5.7-14.5c2.4-0.2,4.9-0.3,7.1-1.3c6.5-2.8,4.5-8.7,1-13.2c-14.7-18.2-42.3-26-63.7-16
				c-10.3,4.8-18.1,14-24.8,22.9c-8,10.7-13,23.2-18,35.5C761.2,553.9,744.5,540,724.4,536.4z"/>
		</g>
		<g id="cuerpo_00000039822487015253747390000011562271982287791032_">
			<g id="color_x5F_cola">
				<g>
					<g>
						<path class="st5" d="M42.6,687.9c9.3-3.5,21.4-2.3,31-2c7.7,0.2,29.3-1.8,33.5,6.5c2.1,4.1,1.7,9,0.7,13.5
							c-2,9.7-5.6,20.4-9.9,29.3c-3.9,7.9-9.9,16.3-19.4,17.2c-0.2,0-1.8,0-6.6-5.7c-13.1-15.7-32.4-52.8-31.1-57.6
							C40.8,689,41,688.5,42.6,687.9z"/>
					</g>
				</g>
				<g>
					<g>
						<path class="st1" d="M40.8,689c0,0,0.2-0.5,1.7-1.1c11.4-4.3,58.6-1.1,62.9,1c0.7,2,0.2,11.4-0.7,19.9
							c-2.3-0.1-4.5-0.2-6.7-0.3c-0.1,0-13-6.9-27.9-9.7c-15-2.8-22.2-3.2-21.8-0.4c0.4,2.7,16.4,32.6,24.2,43.1
							c4.7,6.3,7.6,8.9,9.3,10c-1.1,0.5-2.2,0.8-3.3,0.9c-0.2,0-1.8,0-6.6-5.7C58.8,730.9,39.5,693.9,40.8,689z"/>
					</g>
				</g>
				<g class="st2">
					<g>
						<path d="M92.7,746.4c-5.4,6.2-11.6,8.8-17.6,1.3c-6.5-8.1-13.3-15.8-19.2-24.4c-3.6-5.2-13.9-18.5-8.5-25
							c3.6-4.4,16.1-1.8,21.9-1.2c10.1,1.1,38.7,1.6,38.9,16.5C108.4,723.9,99,739.1,92.7,746.4z"/>
					</g>
				</g>
				<path d="M79.3,749L79.3,749L79.3,749z"/>
			</g>
			<g id="color_x5F_cuerpo">
				<path class="st3" d="M655.2,309.7c9.5,57.1,24.6,113.3,45.2,167.4c25.8,68.1,72.7,125.5,75.5,201.6
					c2.1,55.5-20,111.3-58.3,151.5c-46.3,48.5-116.6,73.7-182.8,63.2c-41.8-6.6-80.2-26.2-121.7-34c-24-4.5-48-8.8-71.8-14.3
					c-22-5.1-42.4-13.1-64.1-18.8c-9.5-2.5-19-5-28.3-8.3c-6.4-2.3-12.6-5-18.8-7.8c-8.9-3.9-17.7-7.8-26.6-11.6
					c-24.3-10.6-48.6-21.4-71.2-35.4c-11-6.8-21.6-14.4-31.3-23c-8.8-7.8-19-16.2-25.7-26c-2.4-3.5,0.4-8.3,4.7-7.8
					c10.9,1.2,21.4,5.7,32.5,7.2c70.8,10,143.6,6.1,212.9-11.3c18.2-4.5,36.7-9.7,53-19.2l1.2-1c5-26.5,18.4-51.4,38.4-69.5
					c20.7-18.8,47.3-30.1,68.5-48.3c37.6-32.2,54.6-83.2,57.7-132.6c2.5-39.5-1.3-85.9-23-125.7"/>
				<g>
					<g>
						<path class="st6" d="M265.5,822.5c48.5,20.3,101.8,25.6,152.7,38.9c34.2,9,67.8,21.7,102.4,28.3c34.4,6.6,70.3,5.2,104.1-4.2
							c74.1-20.5,134.2-86,148-161.8c1.9-10.4,2.9-21,3-31.7c0.2-28.8-5.5-56.5-14.9-83.7c-14.9-43.2-37-84.5-55.6-126.6
							c-9.5-21.6-18.3-43.6-24.6-66.4c-1.2-4.4-10.7-47.4-13.3-47.2c-8.4,0.5-16.8,0.9-25.2,1.4c9.7,35,19.4,70,29.1,105
							c7.8,28,13.8,53.5,11.3,82.9c-3,35.4-13.7,70.4-25.2,104c-16.6,48.5-43.2,100.1-87.5,128.5c-28.2,18-61.7,25.7-94.9,29.7
							c-32.8,4-66,9.4-99,10.2c-33.2,0.8-66-6.1-97.7-15.4c-4.3-1.3-8.5-2.5-12.8-3.9c-52.1-16.4-102.5-38.4-151.6-62.4
							c24.8,21,55.8,35.7,85.7,48C221.4,805.1,243.6,813.3,265.5,822.5z"/>
					</g>
				</g>
				<g>
					<g class="st2">
						<g>
							<ellipse transform="matrix(0.8855 -0.4647 0.4647 0.8855 -244.808 283.8571)" cx="453.5" cy="638.6" rx="14.4" ry="17"/>
						</g>
					</g>
					<g class="st2">
						<g>
							<ellipse transform="matrix(0.8855 -0.4647 0.4647 0.8855 -312.078 230.8439)" cx="312.3" cy="748.6" rx="18.7" ry="13.6"/>
						</g>
					</g>
					<g class="st2">
						<g>
							<path d="M597.5,472.4c8.4,1.3,13.6,12.4,11.6,24.8s-10.3,21.3-18.7,20s-13.6-12.4-11.6-24.8S589.1,471.1,597.5,472.4z"/>
						</g>
					</g>
				</g>
				<g>
					<g class="st4">
						<g>
							<path class="st0" d="M463,594.4c-9.6,7.2-19.1,14.5-27.8,22.8c-27.6,26.4-45,61.9-55.7,98.5c-2.3-22.8,0.5-48.8,11.2-69.3
								c9-17.2,22.3-31.9,37.7-43.7c19.5-15,42.1-25.6,60.3-42.1c40.2-36.5,55.2-95,55.4-147.8c0.1-37.6-7.9-75.4-24.3-109.3
								c4.7-0.5,9.3,2,12.4,5.5c3.1,3.5,5,7.9,6.8,12.3c28.2,71.1,21.6,155.6-19.3,220.3c-8.1,12.8-20.1,23.5-31.6,33.3
								C480.1,581.7,471.5,588,463,594.4z"/>
						</g>
					</g>
					<g class="st4">
						<g>
							<path class="st0" d="M331.6,701.4c15.9-4,30.3-8.1,45-15.7c1.6,4.9,1.9,9.5,1.4,14.5c-0.1,0.7-0.1,1.5-0.6,2.1
								c-0.5,0.7-1.4,1.1-2.3,1.4c-20.5,7-41.3,12.5-62.6,16.8c-17.9,3.6-35.8,6.9-53.9,9.3c-35.4,4.7-71.6,6.2-107.1,0.5
								c-2.2-0.4-4.4-0.7-6.7-1.2c-4.1-0.8-9.1-2.8-13.3-2.8c-6.6-1.6-13.3-2.6-20-4.4c-5.6-1.5-36.4-8-36.5-13.7
								c6.9,3.1,14.8,2.8,22.2,3.5c8.6,0.8,17.2,2.8,25.8,3.9c17.9,2.4,35.9,3.8,53.9,4.3c36.1,1,72.2-1.7,107.7-8.1
								C300.5,709.1,316.1,705.4,331.6,701.4z"/>
						</g>
					</g>
					<g class="st2">
						<g>
							<path d="M609.1,392c-2.7-0.7-5.4-1.5-8-2.3c-17-5.5-32.6-14.5-47.3-24.7c-5.8-4-11.6-8.5-15.5-14.4c-2.9-4.5-4.5-9.6-6-14.7
								c-1.8-5.9-3.2-12.4-5.6-18.1c-0.6-1.5-4.8-12.1-4.8-12.1c31.8,3.2,63.9,3.6,95.9,3.9c9.6,0.1,19.1,0.2,28.7,0.3
								c2.6,0,5.6,0.2,7.4,2.2c1.3,1.4,1.5,3.4,1.8,5.3c1.8,13.3,5,26.3,8.4,39.3c2.2,8.2,9.3,23.5,2.3,31c-3.2,3.4-8,5-12.5,6
								C639.2,396.7,623.8,395.7,609.1,392z"/>
						</g>
					</g>
					<g class="st2">
						<g>
							<path d="M753.8,597.5c3,13.5,10.7,24.8,14.1,38.2c5.8,22.5,5.7,43.3,5.7,66.2c-6.1,54.7-32.2,115.5-76.3,150.2
								c-9.8,7.7-20.7,13.7-31.8,19.3c-14,7-28.3,13.5-43.4,17.6c-54.6,15-111.5-0.5-164-16.6c-11-3.4-20.9-8.9-32-11.1
								c-14.2-2.8-28.4-5.6-42.5-8.7c-21-4.7-42-9-62.9-14.1c-66.7-16.5-132.4-39.7-191-76c-19.3-12-38.2-25.7-51.3-44.3
								c-2.1-3-4.1-7-2.7-10.7c-1.6,4.1,22.9,17.2,25.7,18.9c11.7,7.1,23.6,13.8,35.8,20.1c57.5,29.8,118.6,50.7,183.1,58.4
								c15.9,1.9,42.1,7.6,56.1-2.8c3.8-2.8,5.8-6.6,8.4-10.5c0.8-1.2,1.5-2.3,2.7-3.1c1.2-0.8,2.8-1,4.2-1.1
								c13.2-0.8,21.5,9.2,31.2,16.6c10.3,7.9,21,15.4,32.5,21.5c14.9,8,31.3,13.7,48.3,14.6c14.2,0.8,29.3-1.4,43.4-3.1
								c28.4-3.6,56.5-10.3,83-21.2c38.8-16.1,73.3-41.7,97.5-76.3c11.8-17,18.8-37.9,22.9-58C756.4,654,756.5,625.5,753.8,597.5z"
								/>
						</g>
					</g>
				</g>
			</g>
			<path id="contorno_x5F_cuerpo" d="M780.4,678.5c-2-51.9-24.3-95.8-45.8-138.3c-10.6-20.9-21.5-42.4-30-64.7
				C684.2,421.7,669,365.6,659.7,309c-0.4-2.5-2.7-4.1-5.2-3.7c-2.5,0.4-4.1,2.7-3.7,5.2c9.5,57.2,24.8,113.8,45.4,168.2
				c8.6,22.8,19.7,44.6,30.4,65.6c22.1,43.5,43,84.6,44.8,134.5c2,53.2-19.3,108.7-57.1,148.2c-46.1,48.3-114.7,72-178.9,61.8
				c-20.5-3.3-40.6-10.1-60-16.8c-19.9-6.8-40.4-13.8-61.7-17.2c-104.3-16.4-180-45.2-225.2-66.4c-52.8-24.8-93.7-53.5-109.5-76.8
				c-0.2-0.2-0.1-0.6,0-0.8c37.2,11.5,95.1,15.8,154.9,11.5c57.9-4.2,108-15.5,139.5-31.5c-0.7,9.8,0.2,19.5,2.9,28.6
				c0.2,0.7,0.9,1.3,1.6,1.3c1,0.1,1.9-0.7,2-1.7c1.4-19.6,3.4-38.7,10.6-56.9c5.2-13.4,12.7-25.9,22.1-36.7
				c23.1-26.5,57.9-38.5,82.9-63.1c51.4-51.1,60.9-131.9,49.5-200.6c-3.7-20-10.1-39.8-19.9-57.8c-1.2-2.2-3.9-3-6.1-1.8
				s-3,3.9-1.8,6.1c34.2,62.9,30.9,165.7-9.4,225.3c-10.8,16.3-25.2,29.5-41.6,40.1c-21,13.7-44.5,25.5-61.4,44.9
				c-14.3,16-25.9,38.6-30,61.5c-29.8,16.9-81.2,29.1-141.5,33.5c-44,3.2-86.7,1.6-120.6-4c1.6-8.5,1.8-17.3-1.9-23.9
				c-1.2-2-2.4-4.1-26.7-5.6c-14.4-0.9-28-0.8-36.2,0.3c-5.8,0.8-11.8,2.2-13.1,7c-0.5,1.7-1.7,6.3,10.8,29.6
				c5.7,10.6,14.3,25,21.5,33.7c4.9,5.9,8.4,8.2,11.9,7.9c2.4-0.2,4.7-1,6.9-2.2c5.2-2.7,9.4-6.7,12.9-11.3
				c21.2,17.3,50.7,35.1,85.9,51.7c45.7,21.5,122.3,50.5,227.6,67.1c20.5,3.2,40.7,10.1,60.1,16.8c19.8,6.8,40.3,13.8,61.5,17.2
				c10.3,1.6,20.8,2.4,31.2,2.4c57.4,0,114.9-24.3,155.6-66.9c19.3-20.3,35-45,45.3-71.5C776.5,735,781.5,706.2,780.4,678.5z
				 M85.1,744.9c-1.3,1-2.8,2-4.5,2.2c-0.5,0.1-0.9,0-1.4,0c-8.2-1.2-17.1-20.8-20.2-26.1c-8.7-15-13.3-25.8-14.4-30.1
				c9-3,47.5-1.4,57.7,0.8c3.9,0.8,2.5,9.7,1,16.1c-7.9-1.6-15.3-3.4-22-5.5c-3.5-1.1-7.1,0.1-9.4,3.2c-2.5,3.4-2.7,8.1-0.4,11.5
				c4.7,7,11.3,14.3,19.7,21.7C89.5,740.9,87.5,743.1,85.1,744.9z"/>
		</g>
		<g id="pata_x5F_D">
			<g id="color_x5F_uña">
				<g>
					<g>
						<path class="st0" d="M373.8,1014c3.8,4.2,9.7,5.6,13.1,6.1c-1.7,5.1,0.2,9.4,2.4,12.2c-16.9,5.6-26,0.2-28.9-2.1
							c0.2-2.4,5.8-10.9,11.6-18.6C372.6,1012.5,373.1,1013.3,373.8,1014z"/>
					</g>
				</g>
				<g>
					<g>
						<path class="st0" d="M370.4,1003.3c0,0.6-0.1,1.1,0,1.6c-9.3-4.9-18.3-10.9-18.5-13.2c0.5-1.8,9.8-4.3,20.2-5.6
							c-0.3,2.8-0.5,5.3-0.8,7.8C371,997.2,370.6,1000.3,370.4,1003.3z"/>
					</g>
				</g>
				<g>
					<g>
						<path class="st1" d="M373.8,1014c3.8,4.2,9.7,5.6,13.1,6.1c-0.3,0.9-0.5,1.8-0.6,2.6c-3.3,1.7-9.7,4.1-15.7,5.9
							c-4.7,1.4-7.6,2-9.3,2.2c-0.3-0.2-0.6-0.4-0.8-0.6c0.2-2.4,5.8-10.9,11.6-18.6C372.6,1012.5,373.1,1013.3,373.8,1014z"/>
					</g>
				</g>
				<g>
					<g>
						<path class="st1" d="M371.1,995.3c-3.8-1.1-18.5-5.1-19-2.9c-0.1-0.3-0.3-0.5-0.3-0.7c0.5-1.8,9.8-4.3,20.2-5.6
							c-0.3,2.8-0.5,5.3-0.8,7.8C371.2,994.4,371.2,994.8,371.1,995.3z"/>
					</g>
				</g>
				<g class="st2">
					<g>
						<path d="M386.4,1022.8c-0.5,3.9,1.1,7.3,3,9.5c-15.5,5.2-24.5,1-28-1.4c1.7-0.2,4.6-0.7,9.3-2.2
							C376.7,1026.8,383.1,1024.5,386.4,1022.8z"/>
					</g>
				</g>
				<g class="st2">
					<g>
						<path d="M371.1,995.3c-0.3,2.8-0.5,5.4-0.7,7.9c0,0.6-0.1,1.1,0,1.6c-8.5-4.4-16.7-9.8-18.2-12.5
							C352.6,990.3,367.4,994.3,371.1,995.3z"/>
					</g>
				</g>
			</g>
			<g id="color_x5F_pata">
				<path class="st3" d="M630.4,777.2c-5.5-19.8-13.1-39-21.5-57.5c-19.2-42.4-61.7-70.6-108.4-70.6C435,649,382,702,382,767.5
					c0,41.2,24.8,74.3,43.8,109.1c-9.1-4.7-17-7.9-27.3-3.6c-9.9,4.1-16.8,13.6-20.2,23.8s-3.9,21.1-4.2,31.8
					c-0.7,22.9-0.9,45.9-0.6,68.8c0,3.1,0.2,6.3,2,8.8c3.4,4.7,11.4,4.5,14.1,9.6c2.7,5-1.3,11.7,1.4,16.6c3.3,5.7,12,3.7,17.6,0.3
					c17.4-10.6,30.8-27.8,36.6-47.3c0.7-2.4,1.4-5,3.4-6.7c1.6-1.4,3.9-1.8,6.1-1.9c7.2-0.3,14.1,2.4,21.1,4
					c14.2,3.1,29.1,1.3,43.2-2.2c30.6-7.5,59.5-23.2,81.2-46c21.7-22.8,36.1-53,38.3-84.5C640.3,824.1,636.8,800.3,630.4,777.2z"/>
				<g class="st2">
					<g>
						<path d="M400.1,910.4c2.9-7.5,8.1-14.2,15.5-17.2c5.7-2.3,12-2.2,18.1-1.7c10,0.9,20,2.8,29.6,5.7
							c-12.7-7.6-24.5-16.9-34.8-27.6c-10.8-11.1-17.3-23.2-24-37c-8.1-16.7-16.4-33.8-19.5-52.1c0.9,5.5,6.9,12.8,9.6,17.7
							c3.5,6.4,7.2,12.8,11,19c6.7,11,13.9,22,22.1,32c15,18.3,36.1,31.6,59.4,36.2c28.5,5.6,59.7-2.5,81.2-22.1
							c29-26.5,36.6-67.1,40.4-104.4c0.9-8.6,1.6-17.2,1.6-25.9c3.1,6.3,5.9,12.8,8.5,19.4c1.8,4.8,3.5,9.6,5.2,14.5
							c1.6,4.8,3.1,9.6,4.4,14.5c1.6,5.8,7.8,31.1,6.5,61.6c-0.2,5.1-0.7,10.6-1.5,16.3c-0.7,0.4-1,1.2-0.8,2
							c0.1,0.3,0.2,0.5,0.4,0.7c-4.5,28.7-17.5,62.1-50.6,85.6c-13.8,9.8-28.6,18.3-44.5,24.4c-17.4,6.7-36.1,10.5-54.8,9.1
							c-5.9-0.4-12-1.2-17.6-3c-4.2-1.4-6.5-5.1-11.2-3.9c-5.9,1.5-6.3,7.1-8.1,12c-1.6,4.6-3.5,9.1-5.5,13.5c-4.1,9-9.2,18.7-17,25
							c-6.8,5.4-15.2,8.9-24,8.1c-2.6-0.2-5.4-0.5-7.2-2.3c-3.2-3.2-5-8.9-8-12.6c-3-3.7-7-5.3-5.2-10.7c0.9-2.6,2.6-4.8,4.2-7
							c7-9.6,12.7-20.5,14.5-32.3c1.4-9,0.4-18.1-0.2-27.2s-1-18.3,1.4-27.1C399.3,912.5,399.7,911.5,400.1,910.4z"/>
					</g>
				</g>
				<g class="st2">
					<g>
						<ellipse transform="matrix(0.8855 -0.4647 0.4647 0.8855 -281.8749 284.3765)" cx="436" cy="714" rx="18.1" ry="22.9"/>
					</g>
				</g>
				<g class="st2">
					<g>
						<path d="M496.1,663.2c3.2-1.7,7.8,0.8,10.3,5.5c2.5,4.7,1.9,9.9-1.3,11.6c-3.2,1.7-7.8-0.8-10.3-5.5
							C492.3,670.1,492.9,664.9,496.1,663.2z"/>
					</g>
				</g>
			</g>
			<path id="contorno_x5F_pata" d="M620.4,745.2c-1-1.8-6.9-14.6-8.6-14.6c-1,0-1.8,1.1-2,2.1c-0.1,1,0.3,2.1,0.7,3
				c4.3,10.6,7.3,21.4,10.1,32.5c0.9,3.8,1.8,7.7,2.6,11.5c0,0.6,0.1,1.3,0.3,2c0.4,1.3,31.4,108.8-43.9,162.3
				c-29.5,21-73.3,42.4-110.7,30.6c-15.9-5-30.7-14.4-41.6-27c-0.6-0.7-1.5-1.4-2.2-1c-0.7,0.4-0.6,1.5-0.4,2.2
				c3.3,11.6,11,19.1,18.8,27.9c0.2,0.2,0.4,0.4,0.4,0.7c0.1,0.3,0,0.7-0.2,1c-6,14.6-9.9,32.2-23,42.7c-2.7,2.2-25.6,13.6-25.4,3.4
				c0-1.6,0.9-3,1.9-4.2c3.9-4.9,9.8-8.4,12.1-14.2c0.2-0.5,0.4-1.3-0.1-1.7c-0.5-0.5-1.3-0.1-1.8,0.2c-4.5,2.5-9.3,4.6-14.2,6.1
				c-4.3,1.4-9.7,2.1-12.8-1.2c-0.7-0.8-1.2-1.6-1.5-2.5c0-0.1,0-0.2,0-0.3c-0.1-0.3-0.2-0.6-0.3-0.9c-0.5-2.3-0.2-5,0.2-7.4
				c0.6-4.2,1.1-8.4,1.5-12.6c0.2-0.7,0.2-1.4,0.2-2.1c1.5-16.5,1.4-33,0.3-49.6c-1.1-17,1.1-49,20.8-55.7c4.2-1.5,8.9-1.4,13.3-0.7
				c12.9,2.1,21.4,11.3,32.9,16.5c4.1,1.9,12.6,6.3,17.1,3.8c1.1-0.6,0-2.2-1-2.9c-18.2-12.1-34.8-28.8-47-46.9
				c-7.7-11.5-13.8-23.9-18.9-36.7c-2.6-6.3-4.9-12.7-7.1-19.1c-1.4-3.9-3.1-7.6-4.7-11.4c-0.2-0.5-0.5-1.1-0.9-1.5
				c-3.1-2.7-1.8,5.8-1.4,7c1.3,4.5,1.9,9.2,3,13.7c2.3,9.2,5.3,18.2,8.8,27c3.9,9.6,8.6,19.2,13.9,28c1.2,2,2.2,4.2,3.6,6.1
				c0.6,0.7,2.3,3.8,2.9,4c-2.5-1.1-5.3-1.4-8-1.3c-35.5,0.8-42,43.2-40.2,70.9c1.2,18.6,0.9,32.3,0.1,43.5
				c-2.2,0.3-4.8,0.8-7.5,1.3c-5.7,1.2-17.6,3.8-16.9,12.7c0.2,2.2,0.6,7.7,19.2,17.9c-1.1,1.5-2.3,3.2-3.5,4.9
				c-4.8,7-10.7,15.8-4.6,21c3.3,2.8,15.7,11.3,37.9,3.6c5.9,1.6,20.4,3.7,35.9-8.8c13.6-11,22.9-35.2,26.9-47.4
				c15.1,5.9,52.3,14.7,104.3-12.6c8.6-4.5,17.6-10,27-16.7c34.5-24.5,53.8-62.9,56-111C644.5,808.3,637.1,776.2,620.4,745.2z
				 M359.7,993.1c2-0.5,4.5-1.1,7.1-1.5c-0.1,0.6-0.1,1.2-0.2,1.8c-0.1,1.4-0.3,2.7-0.4,3.9C363.8,995.9,361.5,994.4,359.7,993.1z
				 M366.3,1028.4c1.3-2.3,3.5-5.7,6.1-9.3c2.9,2.4,6.2,3.8,9.2,4.7c0,2,0.3,3.9,0.9,5.7C374.6,1031,369.4,1029.7,366.3,1028.4z"/>
		</g>
		<g id="brazo_x5F_D">
			<path class="st3" d="M611.5,587c0-1.1,0-2.2,0.1-3.3c0.6-7.9,3.2-15.8,8.4-21.7c5.3-5.9,13.4-9.5,21.2-8.3
				c4.8,0.8,9.1,3.3,12.9,6.3c6.4,5.2,11.6,12.1,17.1,18.2c6,6.7,11.7,13.7,17.1,20.9c-0.2-0.2,5.1-11.5,5.5-12.5
				c2-4.8,4.5-9.3,7.3-13.7c11.5-18.1,27.9-38.8,50.5-41.7c17.7-2.3,35,7.2,48.2,19.1c2.8,2.5,5.7,5.5,6.3,9.2s-2.1,8.3-5.9,7.9
				c2,3.4,4,6.8,4.9,10.6c0.8,3.8,0.3,8.1-2.3,11c-2.6,2.9-7.6,3.8-10.5,1.2c-0.6,7-2.3,15.4-8.9,17.5c-3.4,1.1-7.1,0.1-10.4-1.1
				c-5.4-2-10.6-4.5-15.5-7.7c-6.5,17.2-18.6,31.7-30.5,45.8c-9.4,11.2-19.9,23.1-34.2,26.3c-4,0.9-8.2,1.1-12.4,1.2
				c-10.5,0.3-22.8-0.2-31.6-6.4c-9.1-6.4-16.4-14.9-21.9-24.4c-6.2-10.6-10.1-22.4-12.9-34.4C612.6,600.5,611.4,593.8,611.5,587z"
				/>
			<g class="st2">
				<g>
					<path d="M771.9,606.9c-1.6-0.8-14.2-11-14.9-9.8c-14.1,25.9-30.8,60.2-60,71.9c-6.7,2.7-12.9,3.8-18.8,3.9c-0.1,0-0.1,0-0.2,0
						c-26.4,0.1-44.2-23.2-53.4-39.7c0,0,0-0.1-0.1-0.1c-0.1-0.3-0.3-0.5-0.4-0.8c0,0,0,0-0.1-0.1c-0.9-1.5-1.8-3.2-2.6-4.8
						c-1-2-1.8-4-2.6-6c0,0,41.1,44.2,67.2,33.1c13.6-5.8,24.5-18.5,33.9-29.5c10.7-12.5,20.7-25.6,28.1-40.2
						c4.8,1.9,9.3,4.4,14.2,5.9s10.3,2,15.1,0.2c5.3-2.1,8.2-8.3,8-13.9c1.1,2.1,3.6,3.5,6,3.3c2.4-0.2,4.6-1.8,5.5-4.1
						c1.1-2.8,0-6.1,0.6-9.1c-0.3,1.6,5.5,7.1,5.5,10c1.1,3.5,1.5,7.5-0.3,10.7s-6.4,4.9-9.3,2.7c-0.4,4-0.9,8-2.6,11.6
						c-1.7,3.6-4.9,6.7-8.8,7.3C778.3,609.9,774.9,608.5,771.9,606.9z"/>
				</g>
			</g>
			<g class="st4">
				<g>
					<path class="st0" d="M729,553c-18.2,17.9-32.2,40.1-42.7,63.3c-0.9-9.8,3-19.5,7.5-28.2c6.5-12.5,14.8-24.6,24.8-34.7
						c9.1-9.2,19.7-19,33.2-20.4c18-1.8,45,13.8,53.7,23c2.5,2.6,2.4,3.6,2.4,3.6c-0.2,1.3-0.8,2.3-1.6,3.2
						c-0.3-0.3-23.2-19.1-40.5-22.5C751.2,537.5,739.3,542.9,729,553z"/>
				</g>
			</g>
			<path d="M633.6,546.8c-2-0.5-4.2-0.9-5.9,0.1c-0.1,1.5,1.5,2.5,2.8,3.2c12.4,6.4,23.8,15,33.2,25.3c4.9,5.3,9.2,11.1,13,17.3
				c1.8,3,4.1,6.3,5.2,9.6c1.2,3.4,0.4,6.6,0.3,10.2c0,2.1-1.2,11.3,0.8,12.6c0.9,0.6,2.2,0.1,2.8-0.7s0.9-1.9,1.2-3
				c5.2-22.1,15.5-43.5,29.7-61.2c8.4-10.5,21.3-23.4,35.4-24.8c10.4-1.1,21.2,3.3,30.3,8c4.2,2.1,22,10.1,19,16.5
				c-1.3,2.8-4.4,2.9-6.9,1.5c-0.9-0.5-4.4-3.7-5.1-1.5c-0.2,0.6,0.2,1.2,0.6,1.7c4.1,5.2,10.1,11.4,10.1,18.6
				c0.2,1.6,0.2,3.6-1.1,4.6c-0.6,0.5-1.3,0.7-2,0.7c-4.8,0.2-8.9-6.5-11.6-9.8c-0.5-0.6-1.6-1.2-1.8-0.4c3.7,6.5,4.7,16.2,2.4,23.3
				c-0.6,2-1.7,4.1-3.6,4.8c-1.2,0.5-2.6,0.3-3.9,0.1c-11.1-2.4-20.4-12.3-27.3-20.7c-1.1-1.3-2.3-2.8-4-3.3
				c-10.4-3.1,5,16.3,4.6,17.6c-4.2,12.6-12.8,25.1-20.3,36c-9.1,13.1-20.6,26.6-35.8,32.6c-17.6,7-36.1,1-50.1-10.7
				c-7.2-6-13.2-13.3-18-21.4c-4.7-7.8-6.7-17-11.6-24.5c-0.4-0.6-0.8-1.1-1.4-1.4c-1-0.3-2.1,0.5-2.5,1.5s-0.2,2.1,0,3.2
				c7.8,39.3,43.9,79.7,87.2,62.4c1.8-0.7,3.6-1.5,5.3-2.4c28.2-14.8,47.6-53.4,54.2-68c6.7,4.3,17.8,10.5,25.1,9.5
				c8.2-1.1,11.5-10.1,12.8-16.9c0.7-0.5,1.2-1.2,1.6-1.9c2.5-0.3,5.3-1.3,8-3.3c6.3-4.7,3.7-14.8,0.6-22c0.1-0.3,0.2-0.6,0.3-0.9
				c3-1.9,6.1-4.9,6.8-9.5c0.5-3.5-2-6.7-4-8.8c-9.3-9.8-37.8-27.1-58.9-25c-16.2,1.7-29.9,14.7-40.3,26.2
				c-10.5,11.6-17.5,25.7-24.6,39.4C674.5,571.2,656.6,553.2,633.6,546.8z"/>
		</g>
	</g>
	<g id="cabeza">
		<g id="mandibula">
			<g id="color_x5F_mandibula">
				<g>
					<path class="st7" d="M768,306.7c10.4,5.6,21,10.2,32.8,12.2c9.8,1.6,19.3,0.8,28.3-3.5c-5.2-16.7-7.9-34.1-9.2-51.5
						c-0.8-11.4-0.4-23,0.8-34.6c1.2-12,3.2-23.9,5.1-35.5c-0.1,0.5-7.5,3.2-8.5,3.7c-3.3,1.5-6.9,2.5-10.3,3.6
						c-7.5,2.3-15.1,4.2-22.7,6.3c-16.4,4.6-32.7,9.6-49.3,13.2c-17.2,3.8-34.3,7.7-51.4,11.9c-4.4,1.1-8.9,2.2-13.3,3.3
						c-1.2,0.3,8.3,17.1,9.2,18.4c4.1,6.2,8.7,12,14,17.2c9.2,9,20.3,16.1,32.6,19.7c8.9,2.6,17.8,4.4,26.6,7.2
						C758,300.1,763,304,768,306.7z"/>
					<g>
						<g>
							<path class="st8" d="M722.6,265.2c12.7-6.6,27.2-9.5,40.2-2.9c0.3,0.2,7.1-4.3,8.1-4.7c2.7-1.1,5.5-1.9,8.4-2.3
								c5.8-0.8,11.7,0.3,17.2,2.3c12,4.4,23,13,32.4,21.5c7.7,7,13.3,15.1,18.4,24.1c2.8,5.1-18.2,13.1-21,14.1
								c-11.3,3.8-23.7,5.3-35.3,2c-10.8-3.1-20-9.9-29.8-15.5c-9.4-5.4-19.4-9.6-29.8-12.6c-10-2.9-19.5-5.6-27.6-12.5
								C709.1,273.6,715.5,268.8,722.6,265.2z"/>
						</g>
						<g class="st9">
							<path class="st0" d="M766.3,260.9c33-2.3,49.1,12.9,79.5,43.3C834.1,274.8,792.7,245.1,766.3,260.9z"/>
						</g>
					</g>
					<g>
						<g>
							<path class="st10" d="M725.9,289c-4.5-9.6-4.1-20.6-2.3-30.8c1.8-10.3,4.4-20.9,7.9-30.8c0.2-0.6,0.5-1.3,0.3-2
								c-0.3-1.6-2.3-2.1-3.9-2.2c-15.4-1.3-30.6-0.2-45.9,2.1c-9.3,1.4-18.2,4.7-26.2,9.6c6.2,2.2,12.2,5.1,17.8,8.5
								c4.2,2.6,5.3,6,7.9,9.9c3.2,4.8,6.9,9.2,11,13.3c4.8,4.7,10.1,8.8,15.7,12.5c2.9,1.9,5.9,3.7,8.9,5.3
								C718.8,285.4,725.2,287.5,725.9,289z"/>
						</g>
						<g>
							<path class="st7" d="M722.6,271.4c-6.3-2.1-12.4-4.9-18.3-8c-6.2-3.2-12.4-6.7-17.9-11c-5.4-4.2-11.8-7.2-17.8-10.5
								c-2.5-1.4-5.1-2.8-7.9-3.7c-2.3-0.7-4.8-1-6.9-2.1c-0.4-0.2-0.8-0.5-0.9-1c-0.2-0.8,0.7-1.4,1.4-1.8
								c9.9-5.1,20.4-9.1,31.2-11.6c14.6-3.5,30.1-6.1,44.5-1.8c1.3,0.4,2.7,1,3.1,2.3c0.2,0.6,0,1.2-0.1,1.9
								c-2,8.7-5.6,16.8-8,25.4C722.8,256.8,722.7,263.8,722.6,271.4z"/>
						</g>
					</g>
				</g>
				<g>
					<g>
						<path class="st3" d="M875.3,301c-1.5,0.3-3,1.1-4.4,1.8c-5,2.3-10.4,1.6-15.7,2.4c-5.6,0.8-11.2,2.1-16.4,4.1
							c-7.5,2.9-14.5,7.2-22.4,8.8c-10,2-20.4-0.4-29.8-4.3s-18.2-9.2-27.5-13.3c-12.8-5.6-26.5-8.9-39.2-14.9
							c-13.2-6.2-25.1-15.3-34.6-26.3c-4.3-5-8.2-10.5-13.4-14.7c-13.5-10.9-34-11.6-50.5-12.5c-18.4-1.1-37.9,0.4-54.5,9.1
							c-21.7,11.4-35.6,34.4-35.6,58.9c0,55,60.7,74.8,106.5,73.9c57.1-1.2,114.3-5.4,171.1-6.7c11-0.3,21.7-4.2,31.8-8.6
							c7.3-3.2,14.6-6.7,21.6-10.5c7.2-3.9,14.5-8.2,19.4-14.8c6.5-8.7,6.6-22.9-1.7-30.7c-0.8-0.7-1.6-1.4-2.6-1.7
							C876.8,300.8,876,300.8,875.3,301z"/>
						<circle class="st3" cx="597.9" cy="300" r="66.5"/>
					</g>
					<g class="st9">
						<path class="st0" d="M669,250.1c0.3,0.9,0.7,1.8,1.1,2.7c0.5,1.3,1,2.5,1.6,3.7c0.8,1.6,1.6,3.3,2.5,4.8
							c1.1,1.9,2.2,3.8,3.5,5.6c1.4,2.1,2.9,4,4.6,5.9c1.8,2.1,3.7,4.1,5.8,5.9c2.2,2,4.6,3.9,7.1,5.6c2.7,1.8,5.6,3.5,8.6,4.9
							c3.3,1.5,6.7,2.8,10.1,3.8c35.5,10.1,74.8,25.7,74.8,25.7s-30.1-18.6-68.5-30.9c-1.7-0.5-3.3-1.1-4.9-1.8
							c-3.5-1.4-6.9-3-10.1-4.9c-2.9-1.7-5.8-3.7-8.4-5.9c-2.4-2-4.7-4.1-6.9-6.4c-1.9-2.1-3.8-4.3-5.5-6.6c-1.5-2-2.9-4.2-4.2-6.3
							c-1.7-2.9-3.1-5.9-5.4-8.4c-1.4-1.5-3-2.8-4.7-3.9c-0.9-0.6-1.8-1.2-2.7-1.8c-0.2-0.1-0.4-0.3-0.6-0.2
							c0.2,2.2,0.9,4.3,1.6,6.4C668.6,248.7,668.8,249.4,669,250.1z"/>
					</g>
					<g class="st11">
						<path d="M593.6,369.1c14.7,3.6,28.9,5.1,44.3,4.8c36.9-0.8,73.7-1.7,110.5-3.7c32.4-1.7,66.5-0.1,96.7-13.4
							c8.3-3.6,16.2-8.1,24-12.6c5.8-3.3,12-6.9,15.4-12.7c4.4-7.3,4.4-21.4-2.1-27.7c-1.9-1.8-4.9-2.7-7.1-1.3
							c-2.6,1.7-2.7,5.3-3.5,8.3c-2.1,7.8-10.2,12.6-18.1,14.2s-16.2,1-24.1,2.5c-7.9,1.5-15.3,5-22.7,8c-15,6.1-31,10.5-47,12.8
							c-15,2.1-28.6,5.2-43.2,9.3c-32.7,9.1-67.2,8.6-101.1,8.3c-9-0.1-18-0.1-26.8,2C590.4,368.3,592,368.7,593.6,369.1z"/>
					</g>
				</g>
				<g>
					<g>
						<path class="st0" d="M752.7,298.5c0.7-7.6,0.9-14.6,0-20.7c-0.2-1.7-2.1-2.7-3.7-2c-6.3,3-12,7.7-17.2,14.2"/>
					</g>
					<g>
						<path class="st0" d="M821.2,318.7c0.9-28.5-5.5-30.2-31.1-1.3"/>
					</g>
					<g>
						<path class="st0" d="M782,314.1c0.3-7.5-0.7-14.1-3.3-19.1c-1-1.9-3.5-2.5-5.3-1.4c-4,2.4-7,6-9.3,10.5"/>
					</g>
					<path class="st0" d="M847.9,307.4l7.9-14.7c3.6-5.3,7.4-9.8,12-10.1c5.1,5.3,6.1,13.8,3.1,25.5
						C870.9,308.2,859,304.8,847.9,307.4z"/>
					<path d="M878.2,295.6c0-0.1,0-0.1,0-0.2c-0.1,0-0.1-0.1-0.2-0.1c-0.5-0.3-1.1-0.6-1.7-0.6c-6.8,0.2-1.3,7.6,1.2,10.9
						C878.5,302.5,878.5,298.9,878.2,295.6z"/>
				</g>
			</g>
			<g id="contorno_x5F_mandibula">
				<path d="M710.7,266.7c0.5-0.3,0.8-0.9,0.7-1.5l0-0.1c-2.6-10.5,3.8-20.8,7.6-30.2c0.8-1.8,1.4-4.3-0.1-5.6
					c-1.2-1.1-3.2-0.6-4.5,0.3c-1.7,1.2-2.7,3.1-3.5,4.9c-1.9,4.1-3.4,8.7-4.2,13.5c-1,6.2-0.5,12.6,2.3,18
					C709.2,266.8,710,267,710.7,266.7z"/>
				<path d="M890.9,321.9c-0.6-10.2-3.6-21.1-12.8-26.5c0-0.3-0.1-0.6-0.1-0.8c-0.8-5.7-2.2-14-8.8-15.6c-7.1-1.8-12.5,4-16.7,10.9
					l-9.1-1.9c-3-4-6.5-7.7-10.2-11.1c-2.6-2.4-5.4-4.8-8.4-7.1c-2.5-25.7,2.8-51.8,3.8-77.6c-1.6,0.5-3.2,1-4.8,1.4
					c-0.8,0.2-1.6,0.5-2.1,1.1c-0.5,0.6-0.7,1.5-0.8,2.3c-2.8,20.4-5.4,41.7-4.6,62.3c0.1,1.4,0.2,3,0.6,4.6
					c-5.7-3.9-11.8-7.3-17.8-9.7c-5.7-2.3-11.8-3.6-17.9-3.2c-3.2,0.2-6.4,0.9-9.5,1.9c-1.3,0.4-8.6,5-9.2,4.7
					c-10-4.4-21-4.2-31.2-0.4c-1.3,0.5-2.7,0.8-3.8,1.2c1.2-9.7,3.5-19.2,6.8-28.3c0.9-2.4,2.7-5.2,2.8-7.8c0-1.5-0.8-3.2-2.2-3.6
					c-1.2-0.3-2.4,0.2-3.3,1c-0.9,0.8-1.4,2-1.9,3.1c-4.9,10.9-8.2,22.5-9.8,34.3c-1.1,8.4-1.9,17.4,0,25.8
					c-3.9-1.5-7.7-3.6-11.2-6.3c-11-8.3-19.2-17.9-27.8-28.4c-1.6-1.9-3.2-3.9-5-5.6c-6.7-6.2-15.9-9-24.5-11
					c-4.4-1-8.8-1.7-13.3-2.3c-16.3-2.1-32.8-2.2-49,0.5c-17.1,2.8-33.9,10.4-44.7,23.9c-3.1,3.9-5.6,8.1-7.8,12.5
					c-6.4,12.7-9.6,26-8,40.2c1.8,15.8,8.8,33.8,21.4,43.9c6.3,5,12.7,10.5,20,14c4.8,2.3,9.8,3.8,14.8,5.3
					c15.1,4.6,29.4,6.8,45.2,7.6c1.5,0.1,3.1,0.1,4.7,0.2c13.8,0.4,27.5-0.6,41.2-1.2c14-0.6,28.1-1.3,42.1-2
					c12.5-0.6,25-1.2,37.5-1.7c2.7-0.1,5.3-0.2,8-0.3c18-0.6,37,1.4,54.8-1c18.6-2.5,37.8-15.4,54.7-23.1c4.4-2,8.9-4.1,12.2-7.7
					C889.7,335.7,891.3,328.6,890.9,321.9z M859.1,294.8c5.3-7.4,7.7-8.2,8.2-8.3c0.3,0.3,1.9,2,2.9,9.8c0.1,0.8,0.1,1.5,0.1,2.2
					c0,2.7-0.5,4.4-1,5.4c-5.2-0.9-10-1.3-14.5-1.2L859.1,294.8z M726.5,268.1c3.7-1.9,9-4,9.8-4.3c5.6-1.9,11.6-2.4,17.4-0.7
					c14.1,4,26.1,11.5,36.4,21.8c0.5,0.5,1.3,0.5,1.8,0c0.5-0.5,0.5-1.2,0.1-1.7c-3.7-4.9-7.6-9.6-12.2-13.8c-2.9-2.7-6-5.1-9.4-7.3
					c0.3,0.2,5.2-2.1,5.9-2.3c2.1-0.5,4.3-0.8,6.5-0.9c4.9,0,9.7,1.3,14.2,3.1c10.5,4.4,20.8,12,29.4,19.4c7.2,6.2,13,14.3,17,22.9
					c-3.8,1.1-7.2,2.6-10.3,4.6c-3,2-5.6,3.4-8.1,4.4c0-10.7-1.6-18.1-7-20.3c-6.2-2.5-14,2.7-29.3,19.7c-1-0.4-1.9-0.8-2.9-1.2
					c0-7.6-1.3-13.7-3.8-18.5c-1-1.8-2.7-3.2-4.7-3.8c-2-0.6-4.3-0.3-6.1,0.8c-3.5,2.1-6.4,5-8.8,8.6c-2-1-3.9-1.9-5.8-2.8
					c0.6-7.4,0.5-13.5-0.2-18.8c-0.3-2-1.5-3.9-3.3-4.8c-1.8-1-4-1-5.9-0.2c-6.2,3-12.1,7.6-17.3,13.8c-0.4-0.1-0.8-0.2-1.3-0.4
					C726.5,280.1,726.3,274.1,726.5,268.1z M817.3,315.5c-5.7,0.9-12,0.9-18.9-0.1c-0.4,0-0.7-0.1-1.1-0.2
					c13.7-14.8,17.3-14.9,17.9-14.8C815.5,300.6,817.5,302.2,817.3,315.5z M778,307.2c-2.8-1.7-5.7-3.2-8.4-4.7
					c1.6-2.3,3.5-4.2,5.8-5.5C776.7,299.7,777.6,303.1,778,307.2z M749.2,292.7c-3.7-1.5-7.3-2.9-10.9-4.1c3.4-3.5,7-6.3,10.8-8.4
					C749.4,283.8,749.5,288,749.2,292.7z M882.3,325.2c-0.1,0.5-0.3,1-0.4,1.4c-4.4,12.3-25.2,18.5-35.8,24.2
					c-7.5,4-15,8.1-23.3,10.2c-7.2,1.8-14.6,2-22,2.3c-8.5,0.3-16.9,0.7-25.3,1.3c-12.2,0.9-24.4,1.6-36.6,2.2
					c-28.1,1.4-56.2,2.2-84.3,2.8c-31.5,0.7-65.4-0.2-92-18.9c-5.7-4-11.1-8.6-15.4-14.1c-9.7-12.6-12.4-29.4-10.7-45.1
					c0.4-3.6,1-7.1,2-10.6c5.5-19.5,22.6-34.3,41.8-40.9c19.2-6.6,40.1-6,60-2.5c11.3,2,25.5,4.3,33.5,13.7
					c4.2,4.9,7.3,10.7,11.7,15.6c5.6,6.1,11.8,11.4,18.4,16.4c6.1,4.6,12.8,7.8,19.9,9.4c15.8,3.7,33.2,11.3,53.2,23.3
					c1.1,0.6,2.1,1.2,3.2,1.8c0.1,0,0.1,0.1,0.2,0.1c2.7,1.4,5.5,2.5,8.3,3.4c0,0,0.1,0,0.1,0c2.8,0.9,5.6,1.6,8.4,2
					c4,0.6,7.8,0.9,11.5,0.9c4.6,0,9-0.5,13.2-1.4c0,0,0,0,0,0c1-0.2,2-0.5,2.9-0.8c4-1.2,8-3.1,12.7-6.2c7.9-5.2,18.8-6.4,32.5-3.5
					c1,0.2,2.1,0,2.9-0.5c2.2-1.5,3.6-3.5,4.4-5.9c0.5,0.6,0.8,1.1,1,1.4C881.6,312.4,883.9,318.9,882.3,325.2z"/>
			</g>
		</g>
		<g id="cara">
			<g id="cuernos2" class="st12">
				<g class="st13">
					<g>
						<path class="st14" d="M562.1,105.7c-12-5-23.3-14.8-34-29.3c-2.8-3.9-8.9-2.4-9.8,2.3c-5.4,27.3-0.6,50,14.4,68.1"/>
					</g>
					<g class="st11">
						<path d="M532.7,146.7l17-23.8c-14.8-11-24.5-27-29-48c-1.2,0.8-2.2,2-2.5,3.6C512.8,105.8,517.7,128.5,532.7,146.7z"/>
					</g>
					<path d="M563.6,102.1c-11.2-4.7-22.1-14.1-32.4-28.1c-2.2-3-5.9-4.4-9.6-3.6c-3.7,0.8-6.5,3.7-7.2,7.4
						c-5.6,28.3-0.5,52.3,15.2,71.4c0.8,0.9,1.9,1.4,3,1.4c0.9,0,1.8-0.3,2.5-0.9c1.7-1.4,1.9-3.8,0.5-5.5
						c-2.8-3.4-5.3-7.1-7.4-10.9c3.9-13,11.2-22.7,22.2-29.4c3.3,2.2,6.7,4,10.1,5.4c2,0.8,4.3-0.1,5.1-2.1
						C566.6,105.2,565.6,102.9,563.6,102.1z M522.1,79.3c0.2-1,0.9-1.2,1.3-1.3c0.4-0.1,1.1-0.1,1.6,0.6c2.6,3.6,5.3,6.9,8,9.9
						c-5.2,3.4-9.5,7.6-12.9,12.7C519.9,94.3,520.6,87,522.1,79.3z M525.2,126.6c-2-5.1-3.5-10.4-4.3-16c3.5-7.9,8.7-13.9,15.8-18.2
						c3,3.1,6.2,5.8,9.3,8.2C536.5,107,529.5,115.7,525.2,126.6z"/>
				</g>
				<g class="st13">
					<g>
						<path class="st14" d="M656,75.7c-8.5-9.2-16-19.3-21.7-31.2c-2.1-4.4-8.2-4.9-11-0.9c-8.8,12.6-11.2,28.5-8.8,47"/>
					</g>
					<g class="st11">
						<path d="M614.5,90.6l22.2-8c-7-14.1-9.7-27.8-6.7-41c0-0.2,0.1-0.3,0.1-0.5c-2.4-0.6-5.2,0.2-6.8,2.6
							C614.5,56.3,612.1,72.2,614.5,90.6z"/>
					</g>
					<path d="M658.9,73.1c-9.2-10-16.1-19.9-21-30.2c-1.6-3.3-4.8-5.5-8.4-5.8c-3.7-0.3-7.2,1.3-9.3,4.4
						c-8.9,12.8-12.1,29.5-9.5,49.7c0.3,2,1.9,3.4,3.9,3.4c0.2,0,0.3,0,0.5,0c2.1-0.3,3.7-2.2,3.4-4.4c-0.5-3.5-0.7-6.8-0.8-10
						c6.5-8.6,17.9-11.8,27.5-11.2c2.5,3.2,5.2,6.3,8.1,9.4c1.5,1.6,3.9,1.7,5.5,0.2C660.2,77.1,660.3,74.7,658.9,73.1z M628.8,44.8
						c0.4,0,1.5,0.2,2,1.4c1.3,2.8,2.8,5.5,4.4,8.3c-4-0.3-9.2-0.1-14.1,1.7c1.4-3.7,3.2-7.1,5.4-10.3
						C627.2,44.8,628.3,44.8,628.8,44.8z M617.6,74.4c0.2-4.8,0.8-9.2,2-13.3c6.2-3.4,13.8-3.1,18.1-2.5c1.4,2.2,2.9,4.3,4.4,6.5
						C633.6,65.2,624.3,68.1,617.6,74.4z"/>
				</g>
				<g class="st13">
					<g>
						<g>
							<path class="st3" d="M463.6,257.3c9.8-6.7,37.3-31.9,46-40c-0.7,6.9-1.3,14.1-1.7,21.4c-15.5,19.1-28.9,26.1-37.8,26.6
								c-0.1,0-0.2,0-0.2,0c-0.1,0-0.1,0-0.2,0c-1.5,0-2.8-0.1-4-0.4c-2.4-0.6-4.1-2-4.4-3.6C461.1,259.9,461.9,258.4,463.6,257.3z"
								/>
						</g>
					</g>
					<g>
						<g>
							<path class="st6" d="M507.7,243.2c-0.7,17.6,0,35.6,4,52.5c-11.4-19.2-26.4-26.4-35-29C485.2,264,495.9,257,507.7,243.2z"/>
						</g>
					</g>
					<g>
						<g>
							<path class="st6" d="M439.9,108.4c8.4,12.9,30.1,36.3,78.1,60.5c-1.4,3.9-2.6,8-3.6,12.3c-10.8-0.7-64.1-4.1-82.5-0.2
								C443.1,155,441.4,122.6,439.9,108.4z"/>
						</g>
					</g>
					<g>
						<g>
							<path class="st6" d="M511.3,201c-0.4,3.9-0.9,8-1.3,12.1c-3.8,3.5-37.3,34.6-47.9,41.9c0,0,0,0-0.1,0.1
								c1.1-30.1-11-47.6-18.8-55.6c10.4,3.3,25.5,5.1,45.3,4C495.5,203,503.1,202.2,511.3,201z"/>
						</g>
					</g>
					<g>
						<g>
							<path class="st3" d="M438.4,99.6c8.9,3.3,56.8,30.5,89.4,49.3c-3.2,5.2-6.2,11-8.8,17.5C457.9,135.5,440.3,105.8,438.4,99.6z
								"/>
						</g>
					</g>
					<g>
						<g>
							<path class="st3" d="M429.6,184.4c0.2,0,0.4-0.1,0.6-0.2c3.8-1.2,14-2.7,41.9-2.1c18.2,0.4,36.3,1.5,41.6,1.9
								c-0.7,3.5-1.3,7.2-1.8,11.1l-0.4,3.1c-39.8,6-63.2,1.7-74.7-4.1c0,0,0,0,0,0c0,0,0,0-0.1,0c-5.5-2.8-8.3-6-8.8-8.6
								C428.1,185.3,428.3,184.9,429.6,184.4z"/>
						</g>
					</g>
					<g>
						<g>
							<path class="st1" d="M499.6,271.2c4.9,3.6,8.1,7,9.2,8.3c0.7,5.5,1.6,10.9,2.9,16.1c-11.4-19.2-26.4-26.4-35-29
								c2.7-0.8,5.5-2.1,8.6-3.9C485.3,262.8,493.4,266.6,499.6,271.2z"/>
						</g>
					</g>
					<g>
						<g>
							<path class="st1" d="M455.2,202.6c0,0,10,13.3,12.3,19.4l11.4-0.7l-11,5c0,0,1.9,11.5-0.5,23.7l1.2-0.1
								c-2.6,2.1-4.9,3.9-6.6,5c0,0,0,0-0.1,0.1c1.1-30.1-11-47.6-18.8-55.6c3.5,1.1,7.6,2.1,12.2,2.8L455.2,202.6z"/>
						</g>
					</g>
					<g>
						<g>
							<path class="st1" d="M429.6,184.4c0.2,0,0.4-0.1,0.6-0.2c0.6-0.2,1.3-0.4,2.3-0.6c0,0,10.1,4,35.6,4.1
								c22.6,0.1,41-0.3,45-0.4c-0.2,1.3-0.5,2.7-0.7,4.1c-4.8,0.6-24.1,2.9-45.9,2.6c-20.8-0.3-33.5-4.4-37.2-5.8
								c-0.7-1-1.2-1.9-1.3-2.8C428.1,185.3,428.3,184.9,429.6,184.4z"/>
						</g>
					</g>
					<g>
						<g>
							<path class="st1" d="M439.9,108.4c2.8,4.3,7,9.8,13.2,16c1.4,6.7,1.8,19.2,1.2,24.7c-0.7,7-1.8,10.8-1.8,10.8l5.4,2.5
								l-7.6,1.2c0,0-3,9.8-4.6,12c-1.6,2.2-2.8,4.1-2.8,4.1h0c-4.4,0.3-8.2,0.7-11.1,1.3C443.1,155,441.4,122.6,439.9,108.4z"/>
						</g>
					</g>
					<g>
						<g>
							<path class="st1" d="M463.6,257.3c9.8-6.7,37.3-31.9,46-40c-0.3,2.7-0.5,5.4-0.8,8.2c0,0,0,0,0,0s-10.6,13.7-22.9,23.2
								c-10.5,8.2-21,13-23.8,14.3c-0.5-0.5-0.7-1-0.8-1.6C461.1,259.9,461.9,258.4,463.6,257.3z"/>
						</g>
					</g>
					<g>
						<g>
							<path class="st1" d="M479.6,126.9c13.9,9.5,37.9,24.3,44.5,28.3c-1,1.8-1.9,3.7-2.8,5.7v0c0,0-31-19.3-46.9-30.1
								c-15.8-10.7-31.3-22.8-31.5-22.9c-2.7-3.9-4.1-6.9-4.6-8.4c3.5,1.3,13,6.3,25.1,12.9C465.6,115.5,470,120.4,479.6,126.9z"/>
						</g>
					</g>
					<g class="st4">
						<g>
							<path class="st0" d="M463.5,112.5c18.9,10.4,44.4,24.9,64.2,36.4c-1.3,2-2.5,4.1-3.6,6.3c-6.6-4-30.5-18.8-44.5-28.3
								C470,120.4,465.6,115.5,463.5,112.5z"/>
						</g>
					</g>
					<g class="st4">
						<g>
							<path class="st0" d="M432.5,183.6c5.1-1,16.1-2,39.6-1.5c18.2,0.4,36.3,1.5,41.6,1.9c-0.2,1.1-0.4,2.2-0.6,3.4
								c-4,0.1-22.4,0.5-45,0.4C442.6,187.6,432.5,183.6,432.5,183.6z"/>
						</g>
					</g>
					<g class="st2">
						<g>
							<path d="M445.8,175.7c1.6-2.2,4.6-12,4.6-12l7.6-1.2l-5.4-2.5c0,0,1-3.8,1.8-10.8c0.6-5.5,0.2-18-1.2-24.7
								c12.5,12.6,32.8,28.4,64.9,44.5c-1.4,3.9-2.6,8-3.6,12.3c-9.1-0.6-48.2-3.1-71.4-1.5h0C443,179.8,444.2,177.9,445.8,175.7z"
								/>
						</g>
					</g>
					<g class="st2">
						<g>
							<path d="M521.3,160.9L521.3,160.9c-0.8,1.8-1.6,3.6-2.3,5.4c-46.3-23.4-67.5-46.1-76-58.4c0.2,0.2,15.7,12.2,31.5,22.9
								C490.3,141.6,521.3,160.9,521.3,160.9z"/>
						</g>
					</g>
					<g class="st2">
						<g>
							<path d="M512.5,191.4c-0.2,1.2-0.3,2.4-0.5,3.6l-0.4,3.1c-39.8,6-63.2,1.7-74.7-4.1c0,0,0,0,0,0c0,0,0,0-0.1,0
								c-3.6-1.9-6-3.9-7.4-5.7c3.7,1.4,16.4,5.5,37.2,5.8C488.4,194.3,507.7,192,512.5,191.4z"/>
						</g>
					</g>
					<g class="st2">
						<g>
							<path d="M467.9,226.4l11-5l-11.4,0.7c-2.3-6.1-12.3-19.4-12.3-19.4l0.2-0.4c9,1.4,20,1.9,33.1,1.2c7-0.4,14.7-1.2,22.9-2.4
								c-0.4,3.9-0.9,8-1.3,12.1c-3.2,3-27.4,25.5-41.4,36.9l-1.2,0.1C469.8,237.9,467.9,226.4,467.9,226.4z"/>
						</g>
					</g>
					<g class="st2">
						<g>
							<path d="M508.8,225.4C508.8,225.4,508.8,225.4,508.8,225.4c-0.4,4.4-0.7,8.8-0.9,13.3c-15.5,19.1-28.9,26.1-37.8,26.6
								c-0.1,0-0.2,0-0.2,0c-0.1,0-0.1,0-0.2,0c-1.5,0-2.8-0.1-4-0.4c-1.5-0.4-2.7-1.1-3.5-1.9c2.8-1.2,13.3-6.1,23.8-14.3
								C498.2,239.1,508.8,225.4,508.8,225.4z"/>
						</g>
					</g>
					<g class="st2">
						<g>
							<path d="M499.6,271.2c-6.3-4.6-14.4-8.4-14.4-8.4c6.7-3.9,14.3-10.2,22.4-19.6c-0.5,12.1-0.3,24.4,1.2,36.3
								C507.7,278.2,504.5,274.8,499.6,271.2z"/>
						</g>
					</g>
					<path d="M532,144.2c-0.2-0.1-22.9-13.3-45.5-26c-13.3-7.5-24-13.4-31.8-17.5c-15.8-8.3-17.9-9-20.9-6.5
						c-0.9,0.7-2.2,2.4-1.9,5.3c0.1,0.9,0.4,1.9,0.9,3.2c0.7,4.6,6.7,45.6-6.9,76.5c-1.3,0.7-1.9,1.3-2.4,1.9
						c-1.4,1.5-1.9,3.4-1.6,5.4c0.8,4.4,4.5,9.1,11.8,12.9c2.2,1.5,24.5,17.5,21.9,58.1c-0.6,1.5-0.8,3.2-0.5,4.8
						c0.7,4.1,4.1,7.3,9,8.5c1.1,0.3,2.9,0.6,5.3,0.6c0,0,0,0,0,0c1.2,0.1,28.5,2.8,42.8,39.8c0.8,2,2.8,3.2,4.8,3.1
						c0.5,0,1-0.1,1.5-0.3c2.5-1,3.8-3.8,2.8-6.3c-9.5-24.3-24.1-35.8-35.3-41.2c7.5-4.1,16.7-11.4,27-24.2c1.7-2.1,1.4-5.2-0.7-6.9
						c-2.1-1.7-5.2-1.4-6.9,0.7c-15.8,19.6-29.6,26-37.2,25.5c-1.9-0.1-2.9-0.6-3.3-1c0.1-0.1,0.3-0.3,0.6-0.5
						c11.6-7.9,47.5-41.4,49.1-42.8c2-1.9,2.1-4.9,0.2-6.9c-1.8-2-4.9-2.1-6.9-0.2c-0.3,0.3-28,26.1-42.4,37.8
						c-0.6-19.6-6.6-33.4-12.8-42.5c9.4,1.7,21,2.4,35.3,1.6c7.8-0.4,16.3-1.4,25.6-2.8c2.7-0.4,4.5-2.9,4.1-5.6s-2.9-4.5-5.6-4.1
						c-50.8,7.8-73.5-1.7-79.2-7.4c11-2.5,49.2-1.8,82.1,0.5c2.7,0.2,5-1.9,5.2-4.5c0.2-2.7-1.8-5-4.5-5.2c-0.2,0-20.8-1.4-41.9-1.9
						c-17.9-0.4-29.2-0.1-36.4,0.7c7-19.7,7.6-41.4,6.9-56.5c12.7,14.6,35.8,33.9,73.1,52.6c0.8,0.4,1.6,0.6,2.5,0.5
						c1.7-0.1,3.3-1.1,4.1-2.7c1.2-2.4,0.2-5.4-2.2-6.6c-44.4-22.2-66-44.1-74.9-56.3c18.3,9.5,55.5,30.7,80.2,45
						c2.3,1.4,5.3,0.6,6.7-1.8C535.1,148.5,534.3,145.5,532,144.2z"/>
				</g>
			</g>
			<g id="cuernos">
				<g>
					<g>
						<path class="st14" d="M449.5,81.9c1,0.2,2,0.4,3,0.6c23.1,4.5,47,6.8,69.8,12.1c23,5.4,45.5,11.7,67.6,19.1
							c1.7,0.6,3.5,1.1,5.3,0.9c1.9-0.3,3.4-1.4,4.7-2.4c11.4-9,22.7-18.1,34.1-27.1c3.6-2.9,7.2-5.7,10.2-9c0.5-0.6,1.1-1.4,0.5-2
							c-0.4-0.4-1.2-0.5-1.9-0.6c-47.8-3.8-95.8-8.8-143.8-9.7c-16.7-0.3-34.6-0.7-50.9,1.9c-4.3,0.7-9,1.9-10.5,5
							c-1.5,2.8,0.6,6.2,3.8,8.2C443.6,80.4,446.5,81.2,449.5,81.9z"/>
					</g>
					<g class="st11">
						<path d="M590.4,112.4c2,0.3,4.1,0.5,6.2,0.6c22.2,0.9,43.2-12.2,54.9-30.7c0.7-1.1,1.3-2.8,0.3-3.7c-0.5-0.4-1.1-0.5-1.7-0.5
							c-12-0.9-23.9,2.6-35.7,5c-29.6,6.2-57.8,4.6-87.5,0.2c-13.7-2-27.4-3.9-41.1-5.7c-12.9-1.7-27.6-2.1-39.4-6.4
							c-0.9-0.3-1.8-0.6-2.8-0.8c-9.7-1.5-6.1,7.2-1.1,9.6c2.9,1.4,6.2,2,9.5,2.6c24.9,4.6,49.8,8.8,74.5,14.1
							c12.3,2.6,24.5,5.5,36.5,8.8C572.4,108,580.9,111.1,590.4,112.4z"/>
					</g>
					<path d="M662.6,74.2c-3.7-2.1-7.9-2.8-12.1-3.4c-19-2.7-38.1-3.9-57.2-5.3c-44.3-3.2-89.4-6.7-133.8-4.8
						c-5.2,0.2-10.4,0.6-15.3,2.1c-4.5,1.3-9.1,4-10.6,8.4c-5.7,16.7,30,17,38.7,18.2c35.4,5,69.6,12,103,25.1
						c4.5,1.8,9.2,3.7,14.1,3.8c2.5,0,10.6-0.3,7-5c-1.7-2.2-5.3-3.5-8.2-4.5c0.7-0.9,0.5-2.1,0.3-3.2c-2.4-12.4,5.8-25.4,19.6-32
						c1.5,0.1,3,0.2,4.6,0.3c16.2,1.2,32.1,3.5,48.3,5.2c1.4,0.2,3.1,0.1,3.8-1.1C665.4,76.5,664,75,662.6,74.2z M553,92.2
						c0.3,2.3,1,4.7,2.7,6.7c0.1,0.1,0.2,0.3,0.3,0.4c-7.8-2.2-15.8-4.2-23.8-6c-0.2-0.3-0.4-0.5-0.6-0.8c-0.8-1.1-1.1-2.4-1.2-3.7
						c-0.5-4.4,0.7-8.8,3.1-12.7c1.3-2.1,4.6-4.3,6.3-6.4c7.3,0.4,14.6,0.9,22,1.3C554.7,75.9,552.1,85.1,553,92.2z M500.7,84.2
						c0.1,1,0.3,2,0.7,3c-5.6-0.9-11.1-1.7-16.7-2.5c0-0.2-0.1-0.3-0.1-0.4c-1.3-5.6,1.3-11.4,5.9-15.8c0.3-0.3,0.7-0.7,1-1
						c5,0.1,10.1,0.2,15.1,0.4c-1.2,1.2-2.1,2.5-2.4,3C501.5,74.9,500.3,79.6,500.7,84.2z M441.7,75.5c-1.8-5.6,9.6-7.4,20-7.9
						c-0.3,0.3-0.6,0.7-0.9,1c-2.5,3.3-3.5,7.3-2.9,11.2c0.1,0.5,0.2,1,0.4,1.4c-2-0.3-4.1-0.5-6.1-0.8
						C448,79.9,442.8,78.7,441.7,75.5z M462.7,81.8c-0.4-3.1-0.4-6.2,1.3-9c1.3-2.1,3.4-3.7,5.5-5.3c3.3,0,6,0,7.4,0
						c2.1-0.1,4.3-0.1,6.4-0.1c-0.7,1-1.2,2-1.6,2.5c-2.6,4.2-3.5,9-2.4,13.6c0,0.2,0.1,0.4,0.2,0.6
						C473.9,83.2,468.3,82.5,462.7,81.8z M506.5,88c0-0.1,0-0.2,0-0.3c-0.7-6.6,1.6-13.3,6.6-18.6c0.3-0.3,0.5-0.6,0.8-0.9
						c6.2,0.3,12.4,0.7,18.6,1.1c-5.4,3.5-7.5,11.4-7.7,15.5c-0.1,2.4,0.2,4.9,1.4,7.1c-1.3-0.3-2.6-0.6-3.8-0.8
						C517.1,89.9,511.8,88.9,506.5,88z M585.4,83.4c-4.5,7-7,15.2-3.9,22.7c0,0.1,0.1,0.2,0.2,0.3c-6.1-2-12.3-3.5-18.5-5.3
						c-0.3-0.9-0.9-1.8-1.4-2.7c-3.3-5.3-3.5-11.5-0.6-16.8c2.3-4.3,6.7-7.9,12-10.2c8.2,0.4,16.5,0.9,24.7,1.4
						C592.5,75.1,588.1,79.3,585.4,83.4z"/>
				</g>
				<g>
					<g>
						<path class="st14" d="M349.3,129.1c1.1,0.3,2.2,0.5,3.4,0.8c26.4,5.6,53.5,7.9,79.5,14.7c26.2,6.9,52,15.3,77.2,25.3
							c1.9,0.8,4,1.5,6,1.1c2.2-0.5,3.8-2.2,5.3-3.9c12.5-14.1,25.1-28.3,37.6-42.4c4-4.5,8-9,11.2-14c0.6-0.9,1.2-2.1,0.5-3
							c-0.5-0.6-1.4-0.8-2.2-0.8c-54.3-3.3-108.8-8.4-163.3-7.4c-18.9,0.3-39.2,0.7-57.6,5.4c-4.8,1.2-10.1,3.4-11.8,8
							c-1.6,4.3,0.9,9.3,4.6,12.1C342.5,127.2,345.9,128.3,349.3,129.1z"/>
					</g>
					<g class="st11">
						<path d="M517,168.4c13.6,0.1,21.6-5.3,30.8-14.5c9-9,11.6-24.6,11.8-37.1c0-2.2-0.8-5.1-2.9-4.9c-0.6,0.1-1.2,0.4-1.7,0.8
							c-4.9,3.3-9.6,6.9-14.6,10c-12.5,7.7-27.8,12.4-42.6,12.3c-20.5-0.2-40.6-4.4-60.8-7.5c-15.6-2.4-31.2-4.5-46.8-6.5
							c-14.6-1.9-31.3-1.8-44.9-7.7c-1-0.4-2-0.9-3.1-1.1c-11.1-1.7-6.7,11.1-0.9,14.5c3.3,1.9,7.1,2.7,10.9,3.5
							c28.3,5.7,56.8,10.8,84.9,17.4c14,3.3,28,7,41.7,11.3c10.5,3.3,20.3,7.6,31.1,9C512.3,168.2,514.6,168.4,517,168.4z"/>
					</g>
					<path d="M579.7,103.3c-7.4-1.8-15.9-1.3-23.4-1.7c-16.5-0.8-33.1-1.4-49.7-1.8c-32.8-0.8-65.6-0.8-98.4-0.9
						c-19.5-0.1-38.6-0.9-58,2.6c-3.4,0.6-6.8,1.3-9.9,2.9c-6,3-12.3,10.8-8.8,17.7c3.1,6.1,11.9,9.3,18.1,10.6
						c29.8,6.3,60.4,8.9,89.9,16c29.3,7,57.9,17.4,84.8,31c1.8,0.9,3.7,1.8,5.7,1.6c8.6-0.9-3.3-9.1-5.9-10.4
						c-1.1-0.5-2.1-1-3.2-1.6c-3.7-1.8-7.5-3.4-11.3-5.1c-1.7-5.2-3-9.8-2.8-15.4c0.3-5.9,1.4-11.9,3.6-17.4
						c2.1-5.3,5.1-10.3,8.9-14.6c1-1.2,4.9-5.6,8.2-8.3c2,0.1,4.1,0.2,6.1,0.3c14.8,0.8,29.5,1.9,44.1,3.7c2.5,0.3,5.2,0.6,7.4-0.6
						C592.3,108.1,583.2,104.1,579.7,103.3z M340.2,120c-2.3-8.4,10.6-11.6,22.4-12.9c-0.4,0.5-0.7,1.1-0.9,1.6
						c-2.6,5.2-3.7,11.2-2.9,16.9c0.1,0.7,0.2,1.5,0.5,2.2c-2.3-0.3-4.6-0.6-6.9-0.9C347.5,126.2,341.5,124.8,340.2,120z
						 M385.3,109.4c-2.8,6.4-3.7,13.7-2.2,20.5c0.1,0.4,0.2,0.9,0.3,1.3c-6.4-1-12.8-1.9-19.2-2.8c-0.5-4.7-0.7-9.4,1.1-13.7
						c1.4-3.3,3.7-5.7,6-8.3c3.7-0.2,6.8-0.3,8.4-0.4c2.4-0.2,4.9-0.3,7.3-0.4C386.3,107.1,385.7,108.6,385.3,109.4z M410.7,109.7
						c-2.8,6.3-4.1,13.4-3.4,20.3c0.2,1.8,0.5,3.7,1.2,5.4c-6.4-1.2-12.9-2.3-19.3-3.3c0-0.4-0.1-0.8-0.2-1.2
						c-1.7-8.4,1-17.2,6.1-24.1c0.4-0.5,0.8-1,1-1.6c5.7-0.1,11.4-0.2,17.1-0.1C412,107.1,411,109,410.7,109.7z M436.9,141.2
						c-7.5-1.7-15.1-3.3-22.7-4.8c0-0.5-0.1-1-0.1-1.4c-1.1-9.8,1.3-20,6.7-28.3c0.3-0.4,0.6-0.9,0.9-1.5c7,0.2,14.1,0.4,21.1,0.7
						c-6,5.5-8.1,17.5-8.1,23.7C434.6,133.6,435.2,137.8,436.9,141.2z M444,142.9c-0.4-0.7-0.8-1.3-1.2-2c-1-1.6-1.3-3.6-1.5-5.4
						c-0.7-6.5,0.4-13.2,3.1-19.2c1.4-3.3,5-6.7,6.9-9.9c8.3,0.3,16.6,0.6,24.9,0.8c-8,7.9-10.6,21.8-9.3,32.3
						c0.4,3.5,1.3,7,3.3,9.9c0.2,0.3,0.5,0.7,0.7,1C462,147.5,453,145.1,444,142.9z M503.2,124.7c-3.7,8.2-9.2,25.1-4.8,35
						c-6.5-2.5-13-4.8-19.6-7c-0.3-1.4-1-2.8-1.7-4.1c-3.9-7.8-4.4-17.1-1.3-25.3c2.5-6.6,7.3-12.3,13.2-15.9
						c9.3,0.2,18.7,0.5,28,0.8C510.9,111.8,506.1,118.3,503.2,124.7z"/>
				</g>
			</g>
			<g id="cara_00000055664751559793146820000018026773606094876035_">
				<g id="dientes">
					<g>
						<g>
							<path class="st0" d="M909.9,186.2c-12.3-10.5-26.9-7.4-43.4,7.4l6.5,12.4c5,1.4,9,0.3,11.7-4.3c2.8,11,8.3,12.7,15.6,8.7
								L909.9,186.2z"/>
						</g>
						<g>
							<path class="st0" d="M860.8,195.3c-0.6-0.2-17,12.6-17,12.6s7.2,17.2,12.5,12.5s10.8-14.6,8.2-19.2
								C861.9,196.6,860.8,195.3,860.8,195.3z"/>
						</g>
					</g>
					<g>
						<path class="st0" d="M836,212.3v12.9c0,0-0.2,23.2-16.1,8.1c-15.9-15.1-9.6-12.9-9.6-12.9L836,212.3z"/>
					</g>
					<g>
						<path class="st0" d="M803.9,220.4c-8.4,19.1-17.3,25-27,2.3"/>
					</g>
					<g>
						<path class="st0" d="M769.9,225c-2.5,20.4-8.4,32.1-24.6,12.4"/>
					</g>
				</g>
				<g id="color_x5F_cara">
					<path class="st3" d="M895.4,102.4c-1.6-8.1-4.8-17-11.3-22.3c-8.2-6.7-17-3.7-25.6,0.5c-3.3,1.6-6.5,3.6-10,5
						c-3.8,1.6-7.8,2.7-11.8,3.7c-13.1,3.3-26.2,6.6-39.3,9.7c-5.1,1.2-10.3,2.4-15.5,2.7c-4.4,0.3-8.8-0.1-13.1,0.5
						c-5.8,0.8-11.2,3.3-17,4.1c-2.1,0.3-4.4,0.3-6.4-0.5c-1.5-0.6-2.7-1.6-3.9-2.6c-8.8-7.3-15.9-16.3-24.3-24
						c-13.3-12.1-30.7-19-48.2-11.9c-5.2,2.1-11.5,10.5-16,11.5c-16.3,3.6-30.8,8.1-42.7,13.7c-30.3-3.1-49.8,7.3-59.2,30.4
						c-17.4,18.5-29.4,40.3-36.2,65.1c-3.7,13.4-5.9,27.6-6.5,42.8c-0.6,12.4-0.2,25.5,1.3,39c0.9,7,2.1,13.6,3.6,19.8
						c7.5,29.1,27.7,57.3,55.4,70.1c27.9,13,61.6,6.1,81.2-18c9.5-11.8,14.8-26.7,14.8-41.8c0-18.8-7.8-35.8-20.3-47.8
						c0-0.2,0.1-0.3,0.1-0.5c22.5-9.3,48.5,0.4,72.3-4.4c20.2-4.1,37-18.1,56.9-23.3c12.6-3.3,26-2.9,38.8-4.9c4-0.6,8-1.5,11.8-2.9
						c13.8-4.7,25.2-14.6,37.4-22.5c11.1-7.2,24.4-13.3,37.9-11.4c5.3,0.8,10.9,4.7,15.3,0.4c2.6-2.6,3.9-8.8,4.5-12.3
						C923,147.1,906.7,121.4,895.4,102.4z"/>
					<circle class="st3" cx="597.9" cy="300" r="66.5"/>
					<g class="st15">
						<g>
							<ellipse cx="571.6" cy="239.4" rx="20.6" ry="22.9"/>
						</g>
						<g>
							<ellipse cx="620.7" cy="207.4" rx="10.6" ry="12.2"/>
						</g>
						<g>
							<circle cx="621.6" cy="292.8" r="11.5"/>
						</g>
						<g>
							<ellipse cx="542.7" cy="265.8" rx="4.1" ry="5.6"/>
						</g>
						<g>
							<path d="M508.2,230.9c1.6,0.5,3.3,0.8,5.1,0.8c10.4,0,18.8-9.8,18.8-21.8c0-11.5-7.6-20.9-17.3-21.8
								C511,201.4,508.9,215.7,508.2,230.9z"/>
						</g>
						<g>
							<ellipse cx="626.3" cy="337.4" rx="6.7" ry="8.5"/>
						</g>
						<g>
							<ellipse cx="681" cy="114.8" rx="14.9" ry="11.7"/>
						</g>
					</g>
					<g class="st9">
						<path class="st0" d="M874.1,83.3c0.7-0.1,1.4-0.2,2.1-0.2c2.5-0.2,4.6,0,6.9,0.5c1,0.2,5.2,1.3,3.1-1.4
							c-3.8-4.9-11.9-7.2-17.9-5.8c-4.2,1-8.6,3.7-12.7,5.3c-4.3,1.7-8.6,3.2-13,4.7c-17.3,5.8-35.1,9.9-53.2,12.2
							c-8.9,1.1-18.3,1.9-26,6.5c-7.3,4.3-16.1,15.1-14.2,24.2c0.1,0.6,0.6,1.4,1.2,1.2c0.3-0.1,0.4-0.5,0.5-0.8
							c2-5.7,5.8-11.3,10.5-15.1c7.2-5.7,16.8-7.1,25.9-7.1c10.3,0,20.7-3.3,30.7-5.9c11.3-2.9,22.4-6.3,33.4-10.2
							c-2.5,3.1-4.3,7.3-4.9,11.2c0.4-2.5,4.5-6.5,6.1-8.3c2.6-2.7,5.5-4.9,8.8-6.7C865.5,85.4,869.7,83.9,874.1,83.3z"/>
						<path class="st0" d="M712.2,78.8c-17-12-37.8-8.7-52.2,7.1c-16.3,3.6-30.8,8.1-42.7,13.7c-30.3-3.1-49.8,7.3-59.2,30.4
							c-3.9,8.9-7.4,22.2-10.8,36.6c0,0-1.8-12.1-1-22.4c-11.2,15.2-19.3,32.2-24.4,50.9c-3.7,13.4-5.8,27.6-6.5,42.8
							c-0.6,12.4-0.2,25.5,1.3,39c3.5,28.7,13.3,50.5,28.3,66.6c-19-16.6-31.5-40.5-35.5-73.6c-1.4-13.6-1.8-26.6-1.3-39.1
							c0.7-15.1,2.9-29.4,6.5-42.8c6.8-24.8,18.8-46.5,36.2-65.1c9.4-23.1,28.9-33.5,59.2-30.4c11.9-5.6,26.4-10.1,42.7-13.7
							c16.3-18,41-19.8,58.9-1.3L712.2,78.8z"/>
					</g>
					<g class="st11">
						<path d="M897.8,106.5c0,0,13.8,45.6-3.5,47.3c-17.4,1.7-41.3,1.4-63.5,26.1c-23.5,26.1-67.5,7.4-95.2,25.6
							c-6.1,4-11.8,8.8-18.3,12.1c-11.5,6-24.8,7.4-37.5,10.4c-9.2,2.2-18.2,5.4-26.8,9.5c-8.4,4-15.7,7.5-25.2,4.1
							c7.1,7.6,19.1,8.2,29.4,6.6c8.7-1.4,19.3-5.3,28.1-3.1c5.9,1.4,10.6,3.4,16.9,3.6c16.1,0.5,31.8-4.8,45.5-13.1
							c38.3-23.3,57-11.4,76.5-19.7s56.3-36.4,71.8-36.1s13.7,7.5,13.7,7.5S935.5,170,897.8,106.5z"/>
					</g>
				</g>
				<g id="contorno_x5F_cara">
					<g>
						<path d="M869,114.8c-2.8-16.7,4.8-24.8,12.3-15.4c2.7,3.4,2.4,8.4-0.8,11.5l-5.9,5.8C872.7,118.6,869.4,117.5,869,114.8z"/>
					</g>
					<g>
						<path d="M795.8,136.5c-4.7,0.1-9,1.7-13,4.4c-4,2.7-9.6,0.9-11.3-3.6c-1.3-3.5-1.1-7.6,1.8-11.7c2-2.8,5.4-4.1,8.7-3.4
							c6.6,1.4,11.7,5.1,15.5,10.9C798.6,134.5,797.6,136.4,795.8,136.5z"/>
					</g>
					<path d="M922.1,152c-1.8-8.2-4.8-16.1-8.3-23.6c-3.8-8.4-8.3-16.4-12.9-24.4c-0.5-0.9-1.2-1.8-1.6-2.7c0-0.1-0.1-0.2-0.1-0.3
						c-0.3-0.8-0.4-1.8-0.6-2.6c-1.7-6.9-3.7-14.3-8.6-19.7c-4.3-4.7-10.8-7.8-17.1-6.8c-9.1,1.3-16.6,8-25,11.4
						c-9.3,3.8-19.2,6-29,8c-12.4,2.6-24.9,5.1-37.4,6.9c-0.5-0.1-1-0.2-1.5-0.3c-5.8-1.1-12.2-0.3-17.7,2.5
						c-4.6,0.4-9.2,0.6-13.8,0.8c-1.3,0-2.6,0.1-3.9,0.1c-3.3-2.8-6.2-6.5-9-9.9c-12.5-15.6-30.8-30.9-52-30.6
						c-11.6,0.2-22.8,5.4-31.6,14.8c-16.7,3.8-30.3,8.1-41.3,13.2c-30.9-2.9-51.7,8-61.9,32.3c-17.4,18.7-29.7,41-36.6,66.2
						c-3.7,13.6-6,28.3-6.7,43.7c-0.6,12.5-0.2,25.8,1.3,39.6c0,0,0,0,0,0.1c2.6,15.5,5.5,30.4,12.6,44.6c10.8,21.9,29,38,50.6,48.8
						c8.6,4.3,18.2,8.6,28,9.4c1.7,0.1,3.6,0.1,5.1-0.7c1.5-0.8,2.6-2.7,2-4.4c-0.3-0.9-1.2-1.6-2-2s-1.8-0.6-2.8-0.7
						c-3.4-0.6-6.7-1.5-9.9-2.6c-3.5-1.1-7-2.4-10.4-3.7c-6-2.4-11.7-5.4-17.2-8.8c-7.3-4.5-13.9-9.3-19.8-15.5
						c-9.8-10.2-17-22.6-21.7-35.9c-3.3-9.5-5.4-19.5-6.6-29.5c-1.4-13.4-1.8-26.4-1.2-38.4c0.7-14.8,2.8-28.9,6.4-41.9
						c5.4-19.6,14.2-37.4,26.3-52.9c0,0.5-0.1,1.1-0.2,1.6c-0.2,2.7-0.3,5.4-0.3,8.1c0,2.7,0.1,5.4,0.3,8c0.1,0.7,0.7,1.3,1.4,1.2
						c0.7-0.1,1.1-0.6,1.2-1.2v0c0.2-2.6,0.5-5.1,0.9-7.7c2.5-14,7.6-30.4,19.1-40c11.2-9.4,26.4-11.1,40.5-9.9
						c0.2,0,0.3,0.1,0.5,0.1c8.2,0.9,16.5,3.7,24.2,7.7c0.6,0.3,1.4,0.1,1.8-0.6c0.3-0.6,0.1-1.3-0.3-1.6c-4.4-3.5-9.1-6.6-14.3-9.2
						c9.5-3.8,20.7-7.1,34-10c0.8-0.2,1.5-0.6,2-1.2c14.3-15.9,35.7-15.8,52.6-4c7.5,5.2,13.7,12,19.2,19.2c2,2.6,4.1,5.2,6.5,7.4
						c-4.3,1.9-8.6,3.8-13,5.7c-0.8,0.3-1.7,0.7-2.1,1.5c-0.5,0.8-0.3,1.9,0.6,2.2c9.3-3.2,19.3-2.5,29-3.7c0.8-0.1,1.6-0.2,2.4-0.4
						c-1,1.5-1.8,3-2.5,4.7c-2.3,5.7-2.6,11.8-1.5,17.4c0.2,0.7,0.8,1.2,1.6,1c0.5-0.1,0.9-0.5,1-1l0,0c1.2-5.3,2.7-10.2,5.1-14.3
						c2.4-4.2,5.7-7.5,9.7-9.7c4-2.2,8.8-3.2,13.6-3.1c4.9,0.1,9.9,1.4,14.8,3.5l0,0c0.7,0.3,1.5,0,1.7-0.7c0.2-0.5,0.1-1.1-0.3-1.5
						c-0.8-0.8-1.8-1.5-2.7-2.2c2.1-0.1,4.3-0.3,6.4-0.8c13-3.1,26-6.3,38.8-9.8c6.5-1.8,13.1-3.6,19.1-6.5c3.3-1.6,6.5-3.5,10-4.8
						c13.9-5.2,21.3,7.4,24,19.1c0.2,1,0.4,2.1,0.8,3.1c0.4,1.1,1,1.9,1.5,2.9c1.3,2.2,2.5,4.3,3.7,6.5c2.2,4,4.4,8,6.5,12.1
						c3.4,6.8,6.5,13.7,8.8,21c1.8,5.4,3.1,11.1,3.4,16.8c0.2,4.4-0.3,8.9-2,13c-1,2.3-2.3,4.5-4,6.4c-1.7-1.9-4.3-3.9-7.8-5.1
						c-4.4-1.5-9.3-1.5-14.7-0.2c0,0-0.1,0-0.2,0c-3.7,1-7.7,2.6-11.9,4.9c-3.9,2.1-7.5,4.2-11,6.3c-0.3,0.1-0.5,0.3-0.7,0.4
						c-9.4,5.6-17.3,10.7-22.9,14.4c-11.9,8-25.4,12.7-39.1,13.7c-3.1,0.2-6.2,0.3-9.3,0.1c-15.8-0.8-35,8.8-48.3,16.9
						c-10.4,6.4-21.4,10.2-32.7,11.5c-9.5,1-17.8-3.6-27-4.9c-8.5-1.1-16.8,2.3-25.1,4.4c-5.4,1.4-11.2,2.3-16.7,1.1
						c-3.6-0.8-7.1-2.3-10.5-3.8c-2.1-0.9-4.6-1.6-6.6-0.6c-0.3,0.1-0.5,0.3-0.7,0.5c-0.8,1,0.2,2.4,1.3,3.1
						c5.7,3.3,10.3,7.9,17.1,9.2c9.7,1.9,19.1-2.4,28.3-4.6c5.7-1.4,10.8-2.3,16.4-0.1c6.2,2.5,11.9,4,18.7,3.8
						c13.3-0.5,26.6-4.6,38.2-11.1c4,4.5,9.2,9.1,14.7,9.1c0.9,0,1.8-0.1,2.7-0.4c6-1.8,9.7-8.9,11.7-23.2c0.5-0.2,0.9-0.3,1.3-0.4
						c3.2,6.6,7.9,13.8,14.7,13.9c0,0,0,0,0.1,0c6.1,0,11.4-5.4,16.9-17.2c0.5-0.1,1-0.1,1.4-0.2c5.4,7.9,14.4,22.8,25,17.6
						c6.5-3.2,6.9-12.6,6.9-18.8c0-1.4,0-2.9,0-4.4c0-1.9,0-3.9,0-5.8c0,0,0,0,0,0c0.2,0.3,0.4,0.6,0.5,0.9
						c3.7,6.3,10,13.5,18.3,10.4c3-1.1,5.1-3.6,6.5-6.5c0.7-1.4,1.2-3,1.6-4.5c0.4-1.7,1-3.4,1.1-5.1c2.9,2.6,6.6,3.7,10.5,3.9
						c2.2,0.1,4.3-0.9,6.1-1.9c2.8,3.8,6,8.3,11.4,7.8c6.6-0.6,11.5-8.3,16.6-26.6c2.7-1.9,4.9-5.1,6.5-7.7c1.8-3,3.1-6.4,3.9-9.8
						C924.3,166.3,923.7,159,922.1,152z M759.6,243.5c-0.5,0.1-2.9,0.4-8.3-5.2c3.9-2.3,8.6-4.8,13.7-7.1
						C763,241.6,760.5,243.3,759.6,243.5z M789.6,233.4c-0.5,0-3.2-0.5-7.1-8.1c3.2-0.6,6.2-0.9,9.1-0.8c1.9,0.1,3.9,0.1,5.8,0.1
						C793.2,232.7,790.4,233.4,789.6,233.4z M832.1,225.1c-0.1,2.4,0.3,8.4-2.7,9.2c-0.6,0.2-1.2,0.1-1.8-0.1
						c-2.4-0.7-4.1-2.7-5.5-4.7c-1.8-2.5-3.7-5-5.5-7.5c5.3-1.3,10.5-3.2,15.6-5.5C832.1,220.4,832.1,225.1,832.1,225.1z
						 M859.4,210.3c-0.4,1.9-1,4.3-2.7,5.5c-0.8,0.6-1.9,0.7-2.9,0.5c-1.1-0.2-2.2-0.9-2.9-1.8c-1.6-2-2.9-4.1-4.2-6.3
						c3.8-2.6,8.6-5.6,14.1-9c-0.2,1.6-0.3,3.2-0.5,4.7C860,206.1,859.9,208.2,859.4,210.3z M880.4,202.4c-2,2.2-4.7,1.2-6.1-1
						c-1.6-2.5-2.6-5.2-3.7-7.9c2.6-1.5,5.4-3.1,8.2-4.6c1.8-1,3.5-1.8,5.1-2.5c-0.2,3.3-0.6,6.6-1.1,9.9
						C882.5,198.3,881.8,200.8,880.4,202.4z M899.1,205c-0.7,1.3-2.3,4.3-3.8,4.5c-1.4,0.2-2.7-1.8-3.4-2.7c-1-1.3-1.9-2.7-2.2-4.3
						c-0.2-1.6,0.5-3.3,0.7-4.8c0.3-1.9,0.6-3.8,0.8-5.7c0.3-2.6,0.6-5.3,0.7-7.9c2.8-0.4,5.2-0.2,7.4,0.5c1.8,0.6,3.4,1.6,4.7,3
						c0.4,0.4,0.6,0.9,0.9,1.4c-0.9,3.4-1.8,6.9-3,10.3C901,201.2,900.2,203.2,899.1,205z"/>
				</g>
			</g>
			<g id="deco">
				<g>
					<g>
						<path class="st14" d="M587.3,321.6c7.1,3.4,12.1,8.8,14.9,16.2c1.4,3.6,0.2,7.7-2.8,10.1c-8.8,7.4-18,12.9-27.5,16.2
							c-4.4,1.5-9.1-2-8.7-6.6c0.8-10,5.4-20.9,12.7-32.4C578.2,321.2,583.2,319.7,587.3,321.6z"/>
					</g>
					<g class="st11">
						<path d="M571.9,364.2c9.6-3.3,18.7-8.8,27.5-16.2c3-2.5,4.2-6.5,2.8-10.1c-2.8-7.5-7.8-12.8-14.9-16.2
							c-0.8-0.4-1.7-0.6-2.5-0.8c2,2.5,3.6,5.3,4.8,8.5c1.4,3.6,0.1,7.7-2.8,10.1c-7.5,6.3-15.2,11.2-23.3,14.6
							c-0.2,1.2-0.3,2.3-0.4,3.4C562.8,362.2,567.4,365.7,571.9,364.2z"/>
					</g>
					<g>
						<path d="M569.7,368.4c1.1,0,2.3-0.2,3.4-0.6c9.7-3.3,19.1-8.8,28.8-16.9c4.3-3.6,5.9-9.4,4-14.5c-3.2-8.4-8.8-14.6-16.8-18.4
							l0,0c-5.9-2.8-13-0.7-16.5,4.9c-8.1,12.9-12.5,24.1-13.2,34.2c-0.3,3.5,1.2,6.8,4,9C565.1,367.7,567.4,368.4,569.7,368.4z
							 M585.7,325.2c6.2,3,10.4,7.5,12.9,14.1c0.8,2,0.1,4.3-1.7,5.8c-8.8,7.3-17.6,12.5-26.3,15.5c-1.3,0.4-2.2-0.2-2.6-0.4
							c-0.4-0.3-1.1-1-1-2.2c0.7-8.8,4.6-18.8,12.1-30.6C580.5,324.9,583.3,324.1,585.7,325.2L585.7,325.2z"/>
					</g>
				</g>
				<g>
					<g>
						<path class="st14" d="M550.5,282c8.8,3.4,13.2,9.8,13.3,19c0.1,4.5-3,8.4-7.3,9.7c-11.4,3.3-23.3,5.1-35.8,5.7
							c-4.5,0.2-7.3-4.9-4.6-8.6c6.7-9.2,14.9-17.4,24.7-24.5C543.7,281.2,547.3,280.7,550.5,282z"/>
					</g>
					<g class="st11">
						<path d="M520.8,316.3c12.4-0.6,24.4-2.5,35.8-5.7c4.3-1.2,7.3-5.2,7.3-9.7c-0.1-7.6-3.2-13.3-9.2-16.9c0.5,1.8,0.8,3.8,0.8,6
							c0.1,4.5-3,8.4-7.3,9.7c-9.6,2.8-19.6,4.5-30,5.4c-0.7,0.9-1.4,1.8-2,2.7C513.5,311.4,516.3,316.5,520.8,316.3z"/>
					</g>
					<g>
						<path d="M520.6,320.3c0.2,0,0.3,0,0.4,0c12.8-0.6,25.1-2.6,36.7-5.9c6-1.7,10.2-7.3,10.1-13.5c-0.2-10.8-5.7-18.6-15.8-22.6
							l0,0c-4.4-1.7-9.4-1.1-13.3,1.8c-10.2,7.4-18.8,16-25.6,25.4c-2.1,2.9-2.4,6.7-0.7,9.9C514,318.4,517.1,320.3,520.6,320.3z
							 M549.1,285.6c7.3,2.8,10.7,7.7,10.9,15.4c0,2.7-1.8,5.1-4.4,5.8c-11,3.1-22.7,5-34.9,5.6c-0.8,0-1.2-0.5-1.4-0.8
							c-0.2-0.3-0.4-1,0.1-1.6c6.3-8.7,14.3-16.7,23.9-23.6C544.9,285.2,547.2,284.9,549.1,285.6L549.1,285.6z"/>
					</g>
				</g>
			</g>
			<path id="ojo_x5F_cerrado" class="st12" d="M623,147.5c9,0.5,17.7,2.8,16.6,10.9c-0.4,2.8-2.5,5.1-5,6.4c-2.5,1.3-5.3,1.8-8,2.4
				c-12.8,2.7-25.2,7.4-36,14.9c-3.9,2.7-7.5,5.7-11.2,8.7c-0.4,0.3-0.8,0.6-1.3,0.7c-0.8,0.1-1.4-0.7-1.5-1.5s0.2-1.5,0.5-2.2
				c3.2-6.7,8.7-12,15-16c6.2-4,13.2-6.8,20-9.5c2.5-1,5.1-2.1,7.7-3.1c-3.7-1-7.5-1.6-11.3-1.9c-6.8-0.6-13.7-0.7-20.5-0.3
				c-6.4,0.4-12.4,2.1-18.7,2.8c-0.9,0.1-2.2,0-2.4-0.9c-0.1-0.4,0.1-0.8,0.3-1.2c1.3-2.1,3.7-3.1,6-3.9c10.6-3.5,21.8-4.8,32.9-5.6
				C609.4,147.9,616.3,147.2,623,147.5z"/>
			<g id="ojo_x5F_abierto">
				<path d="M634.2,145.7c-4.9-6.7-12.7-11.9-19.4-14.9c-11.4-5.1-24.5-7-36.9-5.4c0,0,0,0,0,0c-1.4,0.2-1.5,2.2-0.1,2.5
					c3.2,0.7,7.2,1.7,11.1,2.5c-2.8-0.6-7.2,10.9-7.7,12.7c-1.6,5.8-1.5,11.9-0.3,17.8c2.5,12.1,9.4,21.9,20.1,27.8
					c-3.7,3.1-7.9,5.2-12.2,7.6c-0.7,0.4-1.6,1.3-1.1,1.9c0.3,0.4,0.9,0.4,1.4,0.4c15.2-0.8,33.5-12.7,43.2-23.9
					c3.9-4.5,7.1-10.1,6.9-16.1C638.9,153.9,637,149.6,634.2,145.7z"/>
				<path class="st0" d="M608.8,142.2c-3.7,1.1-5.5,5.7-4.1,10.2s5.5,7.2,9.2,6s5.5-5.7,4.1-10.2
					C616.6,143.8,612.5,141.1,608.8,142.2z"/>
				<path class="st0" d="M600,168.9c-1.5,0.5-2.3,2.3-1.7,4.1c0.6,1.8,2.2,2.9,3.7,2.5c1.5-0.5,2.3-2.3,1.7-4.1
					C603.1,169.5,601.5,168.4,600,168.9z"/>
			</g>
		</g>
	</g>
	<g id="fuego">
		<g>
			<g>
				<path class="st16" d="M990.1,295.4c7.2-2.4,13.8-5.6,19.5-9.9c7.2-5.5,16.9-7,25.1-3c3.2,1.6,6.3,3.8,9.3,6.7
					c3.2,3.1,7.8,4.5,12.1,3.3c0.9-0.3,1.9-0.6,2.8-1c-1.7,5.2-4.4,9.2-8.3,11.5c-2.9,1.7-6.3,2-9.6,1.3c-2.8-0.5-7.2-0.7-11.2,2.4
					c-3.8,2.9-8.5,4.4-13.1,3.3c-2.8-0.6-5.8-2.1-8.5-5.1C999.6,295.4,990.1,295.4,990.1,295.4z"/>
			</g>
			<g class="st11">
				<path d="M990.1,295.4c0,0,9.5,0,18,9.5c2.8,3,5.8,4.5,8.5,5.1c4.6,1,9.4-0.4,13.1-3.3c4-3.1,8.5-2.9,11.2-2.4
					c3.3,0.6,6.7,0.3,9.5-1.3c2.3-1.3,4.2-3.2,5.7-5.6c-0.9,0.6-2,1.1-3,1.5c-3.1,1.1-6.5,0.8-9.6-0.4c-2.6-1-6.9-2-11.4,0.4
					c-4.2,2.2-9.1,2.8-13.5,1c-2.6-1.1-5.3-3.1-7.5-6.6c-1.4-2.2-2.9-4.1-4.4-5.6C1001.7,290.9,996.1,293.4,990.1,295.4z"/>
			</g>
			<g class="st9">
				<path class="st0" d="M990.1,295.4c0,0,2.8,0,6.6,1.5c3.5-1.7,6.9-3.7,10-6c7.2-5.5,16.9-7,25.1-3c3.3,1.6,6.3,3.8,9.3,6.7
					c3.2,3.1,7.8,4.5,12.1,3.3c0.9-0.3,1.9-0.6,2.8-1c-0.2,0.6-0.4,1.3-0.7,1.9c1.5-2,2.7-4.4,3.6-7.2c-0.9,0.4-1.9,0.8-2.8,1
					c-4.3,1.2-8.9-0.2-12.1-3.3c-3-2.9-6-5.1-9.3-6.7c-8.2-4-17.8-2.5-25.1,3C1003.9,289.8,997.3,293,990.1,295.4z"/>
			</g>
			<g>
				<path d="M1019.7,313.6c4.2,0,8.4-1.5,12.1-4.3c3-2.3,6.3-2.2,8.6-1.8c4.3,0.8,8.5,0.2,11.8-1.7c4.5-2.6,7.8-7.1,9.8-13.3
					c0.4-1.2,0-2.6-0.9-3.4c-1-0.9-2.3-1.1-3.5-0.5c-0.8,0.3-1.5,0.6-2.3,0.8c-3.1,0.8-6.5-0.1-9-2.5c-3.3-3.2-6.7-5.6-10.1-7.3
					c-9-4.4-19.9-3.1-28.4,3.3c-5.1,3.9-11.2,7-18.6,9.4c-1.5,0.5-2.4,2-2.2,3.6c0.3,1.6,1.6,2.7,3.2,2.7c0.4,0,8.3,0.3,15.7,8.4
					c2.9,3.2,6.4,5.3,10.3,6.1C1017.2,313.5,1018.4,313.6,1019.7,313.6z M1037.9,300.8c-3.7,0-7.2,1.1-10.1,3.4
					c-3.3,2.5-7,3.5-10.4,2.7c-2.5-0.6-4.8-2-6.8-4.2c-3.5-3.8-7.1-6.3-10.3-7.8c4.2-2,7.9-4.2,11.3-6.8c6.5-5,14.8-6,21.7-2.7
					c2.8,1.4,5.7,3.4,8.4,6.1c3.1,3,7.2,4.7,11.4,4.6c-1.2,1.7-2.6,3-4.2,4c-2,1.1-4.6,1.5-7.3,0.9
					C1040.4,300.9,1039.2,300.8,1037.9,300.8z"/>
			</g>
		</g>
		<g>
			<g>
				<path class="st16" d="M943.1,313.6c8.3,1.7,16.1,2.7,20.8,0c11.6-5.3,20.9-1.5,27.8,11.4c0,0-12.9-6.4-20.1,0
					C955.7,334.8,948,328.1,943.1,313.6z"/>
			</g>
			<g class="st9">
				<path class="st0" d="M943.1,313.6c0.7,2.2,1.5,4.2,2.4,6c6.8,1.2,12.9,1.5,16.8-0.7c8.9-4.1,16.5-2.8,22.7,4
					c3.7,0.8,6.5,2.1,6.7,2.2c-6.9-12.9-16.2-16.7-27.8-11.4C959.2,316.3,951.4,315.3,943.1,313.6z"/>
			</g>
			<g>
				<path d="M958.5,332.9c4.3,0,9.2-1.7,14.8-5.1c0.2-0.1,0.3-0.2,0.4-0.3c5.5-4.8,16.4,0.4,16.5,0.5c1.3,0.6,2.8,0.4,3.8-0.7
					s1.2-2.6,0.5-3.8c-9.8-18.3-22.8-17.1-32-12.8c-0.1,0-0.2,0.1-0.3,0.1c-3.9,2.2-11.5,1-18.5-0.4c-1.1-0.2-2.3,0.2-3.1,1
					s-1,2.1-0.7,3.2c3.3,9.7,7.5,15.3,13.2,17.4C954.9,332.6,956.7,332.9,958.5,332.9z M969.6,322.4c-5.9,3.6-10.7,4.8-14.1,3.5
					c-2.8-1-5.1-3.6-7.2-8c7.1,1.1,12.8,1,17.1-1.3c7.3-3.3,13.2-2.5,18.3,2.7C979.1,318.5,973.8,318.9,969.6,322.4z"/>
			</g>
		</g>
		<g>
			<g>
				<path class="st16" d="M998.4,180.8c0.1,16.1-10.9,20.8-29.2,18.3c-4.9-1.9-10.1-2.4-15.4-1.6c8.6-5.4,8.1-13.9,17.9-17.5
					C984.2,175.9,991.3,188.1,998.4,180.8z"/>
			</g>
			<g class="st9">
				<path class="st0" d="M953.8,197.4c1.2-0.2,2.3-0.3,3.5-0.3c3.3-4.5,5.2-9.2,11.8-11.7c12.5-4.1,19.6,8.2,26.7,0.9
					c0,2.5-0.2,4.8-0.8,6.8c2.2-3,3.4-7,3.4-12.3c-7,7.3-14.2-4.9-26.7-0.9C961.9,183.5,962.4,192,953.8,197.4z"/>
			</g>
			<g>
				<path d="M977.8,203c7.6,0,13.4-1.8,17.4-5.3c4.3-3.8,6.5-9.5,6.4-16.9c0-1.3-0.8-2.5-2.1-3c-1.2-0.5-2.6-0.2-3.6,0.8
					c-1.9,2-3.3,1.7-8.1-0.1c-4.2-1.6-10-3.9-17.2-1.6c-6.5,2.4-9.3,6.6-11.7,10.3c-1.8,2.8-3.6,5.4-6.9,7.5
					c-1.3,0.8-1.8,2.4-1.3,3.9c0.5,1.4,2,2.3,3.5,2.1c4.8-0.7,9.5-0.2,13.8,1.5c0.2,0.1,0.5,0.1,0.7,0.2
					C972,202.8,975,203,977.8,203z M994.6,186.4c-0.6,2.7-1.8,4.8-3.6,6.4c-3.9,3.4-11,4.5-21,3.1c-2.5-0.9-5.2-1.5-7.9-1.8
					c0.8-1.1,1.6-2.2,2.3-3.3c2.3-3.4,4.1-6.1,8.4-7.7c4.8-1.6,8.8,0,12.7,1.5C988.3,185.6,991.4,186.8,994.6,186.4z"/>
			</g>
		</g>
		<g>
			<g>
				<path class="st16" d="M830.8,260.2c20.1-2.7,28.8-0.4,40.5,10.8c6.2,5.9,13.1,14.2,23,25.5c28.7,32.8,53,2.7,53,2.7
					c-5.2,2.4-13.2-1.6-13.2-7.3c0-7.7,10.3-10.6,17.9-3.3c7.7,7.3,24.9,11.2,29.2,0c4.2-11.3,14.3-13.1,14.3-13.1
					c14.1-3.5,18.7-10.2,26.3-23.3c1.4-2.3,2.9-4.1,4.5-5.5c7.3-6.4,16.2-4.2,16.2-4.2c-6.3-9.5-14.3-12.3-24.3-6.2
					c-10.7,9-21.5,8.4-32.4-2.6c-29.3-34.3-53.7-27.3-75.9-3c-6.8,9.2-16.1,12.6-27,11.8C860.2,233.2,844.1,242.7,830.8,260.2z"/>
			</g>
			<g class="st9">
				<path class="st0" d="M830.8,260.2c2.3-0.3,4.4-0.5,6.4-0.7c11.8-11.5,25.9-16.4,44.3-8.7c11,0.8,20.2-2.6,27-11.8
					c22.2-24.2,46.5-31.3,75.9,3c10.9,11,21.7,11.6,32.4,2.6c6.2-3.8,11.6-4.1,16.3-1.6c5.1-1.5,9.3-0.4,9.3-0.4
					c-6.3-9.5-14.3-12.3-24.3-6.2c-10.7,9-21.5,8.4-32.4-2.6c-29.3-34.3-53.7-27.3-75.9-3c-6.8,9.2-16.1,12.6-27,11.8
					C860.2,233.2,844.1,242.7,830.8,260.2z"/>
			</g>
			<g>
				<path d="M922.2,315.7c0.2,0,0.4,0,0.6,0c16.3-0.3,27.1-13.5,27.6-14c1.1-1.4,1.2-3.4,0-4.9s-3.1-1.9-4.7-1.1
					c-1.5,0.7-3.7,0.4-5.5-0.8c-1.3-0.9-2.1-2-2.1-3c0-1.5,0.7-2.6,2.1-3.2c2.2-0.9,5.9-0.5,9.2,2.7c5.4,5.2,16,9.7,24.9,7.6
					c5.1-1.2,8.9-4.4,10.6-9.1c3.4-8.9,11-10.6,11.4-10.6c0,0,0.1,0,0.2,0c15.7-3.9,20.9-11.6,28.7-25.1c6-10.2,15.9-8,16.3-7.9
					c1.6,0.4,3.2-0.2,4.1-1.6c0.9-1.3,0.9-3.1,0.1-4.4c-7.8-11.6-18.3-14.2-29.6-7.4c-0.2,0.1-0.3,0.2-0.5,0.4
					c-9.1,7.7-17.7,7-27-2.3c-14.1-16.4-27.7-24.5-41.6-24.7c-13.4-0.2-26.4,6.9-40,21.7c-0.1,0.1-0.2,0.2-0.3,0.3
					c-5.6,7.5-13.1,10.9-23,10.3c-21.4-8.7-39.7-2.4-56,19.1c-1,1.3-1.1,3-0.3,4.3c0.8,1.4,2.3,2.1,3.9,1.9
					c26.6-3.6,30.9,1.4,54.8,28.9c1.7,1.9,3.4,4,5.3,6.1C901.1,310.1,911.5,315.7,922.2,315.7z M937.9,302.5
					c-3.8,2.7-9.1,5.3-15.2,5.4c-8.5,0.1-17.1-4.6-25.3-14c-1.9-2.1-3.6-4.1-5.3-6.1c-21.6-24.9-29.3-33.6-52-32.4
					c12.5-13,25.5-15.8,41.3-9.2c0.4,0.2,0.8,0.3,1.2,0.3c12.9,0.9,23.1-3.5,30.3-13.2c11.8-12.8,22.8-19,33.5-19c0.2,0,0.3,0,0.5,0
					c11.6,0.2,23.3,7.4,35.9,22.1c0.1,0.1,0.1,0.1,0.2,0.2c12.2,12.3,25.1,13.3,37.4,3.1c5.2-3,9.4-3.4,13.3-0.8
					c-5.3,1.2-11.1,4.4-15.2,11.5c-7.3,12.6-11.1,18.3-23.8,21.4c-1.5,0.3-12.4,3-17.1,15.5c-0.8,2.3-2.5,3.6-5,4.2
					c-5.3,1.2-13.2-1.3-17.8-5.7c-5.2-5-12.1-6.6-17.7-4.3c-4.3,1.8-6.8,5.7-6.8,10.4c0,3.8,2.1,7.3,5.8,9.6
					C936.6,301.9,937.2,302.2,937.9,302.5z"/>
			</g>
			<g>
				<path class="st17" d="M874.9,250c0,0,8.9,11.8,22.1,5.9s24.5-27.9,38.3-21.6s20.2,21.3,35.6,19c0,0-7.4,14-25.9,4.2
					c-18.5-9.8-39.8,15.2-26.8,30.3c0,0-15-3.8-21.8-14.5c-2.7-4.3-6.8-7.6-11.5-9.4C880.3,262.1,875.2,258.3,874.9,250z"/>
			</g>
			<g class="st11">
				<path d="M871.3,271c6.2,5.9,13.1,14.2,23,25.5c28.7,32.8,53,2.7,53,2.7c-5.2,2.4-13.2-1.6-13.2-7.3c0-7.7,10.3-10.6,17.9-3.3
					c7.7,7.3,24.9,11.2,29.2,0c4.2-11.3,14.3-13.1,14.3-13.1c14.1-3.5,18.7-10.2,26.3-23.3c1.4-2.3,2.9-4.1,4.5-5.5l-0.2-0.8
					c0,0-16,18-27.9,18c-11.9,0-19.2,1.3-25.8,9.1s-20.9-1.5-33.7-7.5s-20.5,26-64.9,6.4C873,271.7,872.2,271.4,871.3,271z"/>
			</g>
		</g>
	</g>
	<g id="ala_x5F_I">
		<g id="color_x5F_ala_00000106841807121902298970000008649450836643377833_">
			<g>
				<g>
					<path class="st0" d="M507.1,340.7c0.9,4.4-9.2,14.6-16.6,20.8c-0.3-2.7-0.5-5.3-0.8-7.7c-1.2-11.8-2-20.4-4.6-25.5
						C494.2,331.2,506.2,336.4,507.1,340.7z"/>
				</g>
			</g>
			<g class="st2">
				<g>
					<path d="M489.7,353.8c-0.4-4-0.8-7.7-1.2-11c0.9-0.1,3-0.5,7.5-0.7c4.9-0.3,8.8,0.8,10.5,1.9c-2.3,5.1-10,12.6-15.9,17.6
						C490.2,358.8,489.9,356.2,489.7,353.8z"/>
				</g>
			</g>
		</g>
		<g id="color_x5F_ala_00000074399684525875008580000006088107800171661479_">
			<g>
				<g>
					<path class="st6" d="M445.8,346.9c4.4,2.1,8.4,5.2,12.1,9.7c4.1,5.1,7.5,11.2,9.8,17.8c6.4,18,6.8,38.1,9.9,57.4
						c7.9,48.1,34.3,91.2,70,114.2c-19.1-0.5-38.5,0.3-57.1,5.7c-18.6,5.4-36.6,15.5-50.3,31.8c-19.1-19.3-39.9-36.7-63.2-47.1
						s-49.5-13.4-73.1-3.8c2.3-0.9-7.1-34.2-8.2-37.3c-3.5-10.5-8.2-19.9-13.4-29.2c-10.6-18.8-23.1-36-37.6-50.6
						c-8.3-8.4-17.2-15.8-26.6-22.2c5.2-1.7,10.5-3.9,14.7-5.8c41.3-18.1,83.9-33.4,127.5-41c16.9-3,34-4.7,51.1-4.3
						C423,342.5,435.2,341.8,445.8,346.9z"/>
				</g>
			</g>
			<path class="st18" d="M476.6,546c19-7.7,45.6-11.6,52.1-12.5c-15.9-13.9-28.9-32.3-38.1-53.3c-2.6-6-4.3-12-5.8-18.1
				c-0.9-3.8-1.8-7.6-2.8-11.6c-3.5-13.2-6.4-26.6-8.6-40.2c-3.2-19.6-5.5-40.7-16.2-55.8c-6.5-9.1-14-8.6-22.9-10.2
				c-6.9-1.2-13.9-1.9-20.8-2.2c-16.5-0.7-33,0.9-49.3,3.5c-43.5,7.1-86.1,22-127.4,39.9c13.8-3.8,50-11.7,64.5,5.4
				c9.7,11.5,9.7,34.1,10.1,49.2c0.2,10.3,0,20.7-0.4,31c-0.5,10.7-0.3,21.2-0.6,31.8c-0.2,6.4-0.7,12.8-1.4,19.2
				c0.4-1.5,1.9-2.1,3.2-2.4c10.4-2.3,20.8-6.3,31.4-7.2c10.7-1,21.5-0.2,32,2.6c27.6,7.4,45.4,36,62,61.2
				C448.5,562.7,461.6,552.1,476.6,546z"/>
		</g>
		<g id="contorno_x5F_ala_00000057863947778794845530000016103791477586395534_">
			<g>
				<g>
					<path class="st3" d="M564.7,553.7c-4-1.8-7.9-3.9-11.8-6.2c-3.8-2.3-7.6-4.6-11.4-7l0,0c-31.9-21.7-48-54.8-55.8-78.8
						c-8.5-26-9.5-47.2-9.5-47.4c0-0.6-0.4-1.1-0.8-1.2c-0.5-0.1-0.9,0.2-1.1,0.7c-0.1,0.2-6.6,17.3-19.2,67
						c-6.7,26.4-9.8,53.3-12.1,72.8c-1.2,10.8-2.6,22.7-4.1,26.9c-0.2,0.2-0.3,0.5-0.3,0.8c-0.2,0.5-0.5,0.8-0.7,0.8
						c-0.3,0-0.7-0.2-1-0.7c-0.6-0.9-1.3-2.4-1.8-4.6c0,0,0-0.1,0-0.1c-2.9-11.4-3.9-40.7,2.9-91.1c6.9-51.7,18.3-84.4,23.1-98.4
						c1.3-3.8,2.1-6.1,2.3-7.2c0.1-1-0.2-1.8-0.9-2.4c-3.9-2.9-26.7,6.7-64.2,42.7c-21.2,20.4-44,50.3-62.4,74.4
						c-8.4,11-15.6,20.5-21.2,27.1c-8.1,9.6-9.8,9.4-10,9.3c-0.3-0.2-0.6-0.5-0.7-1.5c-0.2-1.8,0.3-4.6,1.8-8.6c0,0,0,0,0,0
						c5.2-14.1,22-42.7,57.5-88.7c48.1-62.6,85.7-84.3,86.1-84.5c0.4-0.2,0.6-0.7,0.6-1.3c0-0.5-0.4-1-0.8-1.1
						c-48.3-15.2-123.3-1.5-216.9,39.6c-21.2,9.3-30.4,9.8-31.2,7.9c-0.1-0.3-0.9-3.4,12.9-15.4c26.2-22.9,111.5-60.7,163.2-62.4
						c52-1.7,96,3.3,104.6,11.9c3.7,3.7,4.6,13,6,27c1.9,18.5,4.4,43.9,14.8,76.5c18.3,57.5,54.8,80.3,56.1,81.1c0,0,0,0,0,0
						c0,0,0.1,0,0.1,0c1.1,0.4,2.1,0.6,3.1,0.8c1,0.2,2,0.3,3.1,0.4c2,0.2,4.1,0.2,6.1,0.2c2,0,4-0.2,6-0.4l3-0.3l3-0.4L564.7,553.7
						z"/>
				</g>
			</g>
			<g class="st2">
				<g>
					<path d="M340.5,334.1c33.1-7,68.5-12.6,102-6.1c4,0.8,7.9,2,11.8,3.1c8.5,2.4,14.1,8.6,17.7,18.4c2.9,7.9,4,16.6,5.3,25.2
						c7.1,48.2,21.1,94,45.6,133.4c10.5,16.9,23.1,32,38.1,42.7c-6.8-1.4-13.4-6.2-19.4-10.3c-31.9-21.7-48-54.8-55.8-78.8
						c-8.5-26-9.5-47.2-9.5-47.4c0-0.6-0.4-1.1-0.8-1.2c-0.5-0.1-0.9,0.2-1.1,0.7c-0.1,0.2-6.6,17.3-19.2,67
						c-6.7,26.4-9.8,53.3-12.1,72.8c-1.2,10.8-2.6,22.7-4.1,26.9c-0.2,0.2-0.3,0.5-0.3,0.8c-0.2,0.5-0.5,0.8-0.7,0.8
						c-0.3,0-0.7-0.2-1-0.7c-0.6-0.9-1.3-2.4-1.8-4.6c0,0,0-0.1,0-0.1c-2.9-11.4-3.9-40.7,2.9-91.1c6.9-51.7,18.3-84.4,23.1-98.4
						c1.3-3.8,2.1-6.1,2.3-7.2c0.1-1-0.2-1.8-0.9-2.4c-3.9-2.9-26.7,6.7-64.2,42.7c-21.2,20.4-44,50.3-62.4,74.4
						c-8.4,11-15.6,20.5-21.2,27.1c-2.1,2.5-4.2,6.4-7,7.9c-4.6,2.5-4.6-3.2-2.2-6.9c12.7-19.6,25.8-38.8,39.5-57.5
						c30.7-42.1,66.4-79.2,103.8-112.4c1.1-1,2.3-2.2,2.5-3.8c0.7-8.5-35-9.5-40.1-9.7c-16.8-0.5-33.6,1.2-50.2,4.1
						c-43,7.4-85,22.5-125.8,40.2c-0.9,0.4-1.9,0.8-2.8,1.2c-12.6,5.5-21,7.9-25.8,8.6C215.6,387,279.2,347,340.5,334.1z"/>
				</g>
			</g>
			<path d="M583.5,512c-0.2-0.2-0.5-0.2-0.7-0.2c-18.5,0.5-33.3-12.1-45.9-27.2c-13.2-15.8-23.4-35.1-30.1-56.1
				c-8-25.2-11.3-46.1-13.2-62.7c8.3-6.9,19.7-18.1,18-26.5c-1.7-8.5-17.8-14.5-27.8-17.4c-5.1-4.5-13-6.2-19.3-7.5
				c-9.4-2-19-3.4-28.6-4.6c-19.9-2.4-40-2.7-59.9-0.8c-32.6,3.1-64.1,12.4-94.3,24.8c-24.4,10-50.7,21.5-70.8,39
				c-12.8,11.2-16.7,17.4-14.4,22.8c1.5,3.5,5.1,4.2,9.1,3.9c11.3,2.7,22,8.5,31.5,16.3c10.2,8.4,19.2,18.9,27.1,30.3
				c7.9,11.4,14.9,23.8,21.1,36.6c2.9,6,6,12.1,8.3,18.6c2.8,8,4.5,16.7,5,25.3c0.1,1.3,0.1,2.5,0.3,3.6c0,0.1,0,0.2,0,0.3
				c0.3,2.5,1.4,4.5,3.1,5.7c1.2,0.8,2.5,1.1,4.1,0.5c0.6-0.2,1.3-0.4,1.9-0.7c2.7-1.1,5.2-2.3,8-2.9c2.8-0.7,5.7-1.2,8.5-1.5
				c8-0.9,16.1-0.3,24,1c12.5,2.2,24.6,6.6,36.2,12.5c11.3,5.8,22.2,13.1,32.3,21.7c2.6,2.2,4.9,4.4,7.1,7.1
				c2.4,2.8,4.7,5.6,6.9,8.5c0.4,0.5,0.7,1,1.1,1.5c0.3,0.5,0.5,1,0.8,1.4c0.8,1,1.7,1.8,2.6,2.2c0.5,0.3,1.1,0.5,1.8,0.5
				c0.8,0.1,1.6-0.2,2.3-0.6c0,0,0.1-0.1,0.2-0.1c0,0,0,0,0,0c0.3-0.2,0.5-0.3,0.7-0.5c1.4-1.2,2.7-2.9,3.8-4.2
				c9.5-11,21.8-17.2,34.2-22.1c6.9-2.7,13.9-5,20.9-6.8c6.7-1.7,13.4-3,20.2-3.9c4.3-0.6,8.7-1.1,13-1.4c2.2-0.2,4.4-0.2,6.5-0.3
				c1.1,0,2.2,0,3.3,0.1c0.3,0,0.9,0.1,1.5,0.2c6,3.3,12.4,5.7,18.8,7.5c0.5,0.1,1,0.2,1.3,0c0.6-0.4,0.6-1.4,0.3-2.1
				c-0.3-0.7-0.9-1.1-1.5-1.5c-6.9-4.7-13.8-9.4-20.5-14.5c-10.6-8-20.7-16.9-29.3-28.2C503.1,496,494.9,480,489,462.8
				c-0.2-0.7-0.5-1.4-0.7-2.1c-8.4-25.6-9.4-46.4-9.4-46.6c-0.1-2.1-1.3-3.8-3-4.2c-1.7-0.4-3.4,0.6-4.1,2.5
				c-0.3,0.7-6.7,17.5-19.4,67.4c-6.8,26.7-9.9,53.6-12.2,73.3c-0.9,8.1-2,16.9-3,22.2c0,0-0.1-0.1-0.1-0.1
				c-2.3-10.1-3.7-38.1,3.1-89.1c6.8-51.3,18.1-83.8,23-97.7c1.6-4.5,2.2-6.4,2.5-7.9c0.4-2.3-0.4-4.5-2.1-5.7
				c-7.3-5.4-36.2,13.1-67.2,42.9c-21.4,20.5-44.3,50.6-62.7,74.7c-8.4,11-17.5,23-23.5,29.8c-0.5-0.6-1-1.3-1.5-2.1
				c5.2-12.5,20-38.6,56.2-85.7c47.8-62.1,84.9-83.5,85.3-83.8c1.4-0.8,2.3-2.6,2.1-4.5c-0.1-1.9-1.3-3.5-2.8-4
				c-48.8-15.4-124.4-1.6-218.5,39.7c-14.4,6.3-22.3,8.2-26.1,8.5c1.5-2,4.5-5.3,10.4-10.4c25.9-22.6,110.4-60.1,161.7-61.8
				c57.7-1.9,96,4.3,102.9,11.1c2.9,2.9,3.9,12.6,5.1,24.9c1.8,17.6,4.5,44.3,14.9,77.3c6.3,19.9,16.3,37.9,28.6,53.1
				c9.7,12,20.1,25.6,34.2,29.5c5.9,1.6,12.1,1.6,18.2,0.5c1-0.2,2.1-0.5,2.6-1.5C583.7,512.9,583.8,512.3,583.5,512z M459.6,482.5
				c6.1-23.9,10.8-40.3,13.9-50.7c1.4,8.5,3.8,19.7,7.8,31.9c5.6,17.2,13.5,33.4,23.4,47.4c8.5,12,18.6,22.3,29.6,30.8
				c0.5,0.4,1.1,0.8,1.6,1.2c-9.5-0.9-19-0.7-28.5,0.7c-12.3,1.8-24.4,5.5-35.9,10.9c-8.8,4.1-17.4,9.1-25.5,14.9
				c-0.1,0-0.1,0.1-0.2,0.1c0.6-4.2,1.1-9.2,1.8-15.2C449.9,535.1,453,508.5,459.6,482.5z M339.3,498.5
				c18.2-23.9,40.9-53.6,61.8-73.8c28.9-27.7,48-38.6,56-41.3c-0.2,0.5-0.3,1-0.5,1.5c-4.9,14.2-16.5,47.4-23.5,99.8
				c-4.5,33.7-6,62.1-4.6,80.5c-2.9-3.2-6.1-5.3-9.3-7.9c-6-4.9-12.2-9.4-18.6-13.4c-12.5-7.8-25.8-13.7-39.5-17.2
				c-14.1-3.7-27.4-3.1-41.4-3C324.5,517.8,330.8,509.6,339.3,498.5z M233.6,390.4c85.4-37.5,157.4-52.2,204.5-42
				c-14.1,10.1-43.3,34-78.6,79.9c-17.4,22.7-43.4,58.2-54.8,82.1c-1.5-4.5-2.8-9-3.7-11.1c-4-10-8.2-19.8-13.1-29.1
				c-7.2-13.5-15.3-26.2-24.4-37.9c-5.4-7-11.2-13.5-17.2-19.6c-6-6-11.5-10.3-18.3-14.8c-1.7-1.1-3.4-2.2-5.1-3.1
				C226.2,393.6,229.8,392.1,233.6,390.4z M502.5,340.9c1.3,6-4.7,11.3-9.9,15.3c-0.1-0.9-0.2-1.9-0.3-2.8
				c-0.9-8.5-1.5-15.3-2.8-20.7C495.3,334.6,501.8,337.3,502.5,340.9z"/>
		</g>
	</g>
	<g id="ala_x5F_D">
		<g id="color_x5F_ala_00000061453314491382559160000011155696880725559946_">
			<g>
				<g>
					<path class="st0" d="M407.8,370.5c2.2,4.5-8.6,18.1-16.7,26.7c-1-2.8-1.9-5.5-2.8-8c-4.2-12.3-7.2-21.1-11.7-25.9
						C389,363.9,405.7,366.1,407.8,370.5z"/>
				</g>
			</g>
			<g class="st2">
				<g>
					<path d="M388.4,389.1c-1.4-4.2-2.7-8-4-11.4c1.1-0.4,3.8-1.3,9.5-2.8c6.3-1.7,11.5-1.6,13.9-0.9c-1.9,6-10.1,16.1-16.6,23
						C390.1,394.4,389.2,391.7,388.4,389.1z"/>
				</g>
			</g>
		</g>
		<g id="color_x5F_ala">
			<g>
				<g>
					<path class="st6" d="M330.2,393.8c6.1,1,12,3.2,17.8,7c6.5,4.3,12.2,9.9,16.6,16.2c12.3,17.4,17.3,38.8,25.7,58.4
						c21,49,64.8,87.7,116,102.5c-24.8,4.7-49.6,10.8-72.4,21.6c-22.8,10.8-43.8,26.5-57.8,47.5c-29-15.3-59.8-28.2-92.2-32.9
						s-66.9-0.7-95.2,15.9c2.7-1.6-16.9-34.4-19-37.5c-6.9-10.2-15-18.9-23.9-27.4c-17.9-17.1-38-32-59.9-43.6
						c-12.6-6.6-25.8-12.2-39.4-16.4c6.3-3.3,12.7-7,17.7-10.2c49.2-30.6,100.8-58.4,155.3-78.4c21.1-7.8,42.8-14.3,65-18.5
						C299.7,395.3,315.4,391.3,330.2,393.8z"/>
				</g>
			</g>
			<path class="st18" d="M414.8,597.3c22.9-13.4,56.2-24.8,64.4-27.6c-23.7-10.4-44.5-26.5-61.2-46.3c-4.8-5.7-8.2-11.6-11.5-17.7
				c-2-3.8-4-7.6-6.3-11.5c-7.5-13.1-14.2-26.6-20.1-40.5c-8.5-20-16.2-41.8-33.5-54.9c-10.4-7.9-20-5.3-31.9-4.6
				c-9.2,0.6-18.3,1.8-27.4,3.4c-21.4,3.8-42.4,9.9-62.9,17.2c-54.6,19.4-106.2,47-155.4,77.2c16.9-7.8,61.9-26.1,84.4-11.8
				c15.1,9.6,20.2,33.6,24.1,49.6c2.6,10.9,4.7,22,6.4,33.1c1.8,11.5,4.4,22.6,6.4,34.1c1.2,6.9,2,13.8,2.5,20.8
				c0.1-1.7,2-2.7,3.6-3.4c12.9-5.3,25.4-12.3,38.8-16.2c13.6-3.9,27.7-6.1,41.9-6c37.3,0.4,66.7,25.9,93.8,48.2
				C382.2,622.8,396.7,607.9,414.8,597.3z"/>
		</g>
		<g id="contorno_x5F_ala">
			<g>
				<g>
					<path class="st3" d="M530.2,581.4c-5.6-0.8-11.1-2-16.6-3.3c-5.5-1.3-10.9-2.8-16.3-4.4l0,0c-46.1-14.4-74.2-45.2-89.8-68.6
						c-16.9-25.4-22.9-47.6-22.9-47.9c-0.2-0.6-0.7-1-1.3-1s-1.2,0.4-1.3,1.1c0,0.2-4.6,20.2-9.7,76.6c-2.7,30-0.7,59.3,0.8,80.8
						c0.8,11.8,1.7,24.9,0.8,29.8c-0.2,0.3-0.3,0.6-0.2,0.9c-0.2,0.6-0.5,1-0.8,1c-0.4,0.1-0.9-0.1-1.5-0.5c-1-0.8-2.2-2.2-3.4-4.4
						c0,0,0-0.1,0-0.1c-6.3-11.4-14.2-42.2-16.8-97.7c-2.7-56.9,4.6-94.9,7.7-111.1c0.8-4.4,1.4-7,1.3-8.3c0-1.1-0.6-1.9-1.6-2.3
						c-5.7-2-33,14.4-73.3,62.9c-22.8,27.5-45.5,65.6-63.8,96.2c-8.4,14-15.6,26.1-21.3,34.7c-8.3,12.4-10.5,12.7-10.9,12.6
						c-0.4-0.1-0.9-0.4-1.3-1.4c-0.7-1.8-0.6-5,0.4-9.6v0c3.5-16.5,18.9-51.4,54.2-110.1c48-79.7,91.6-113.1,92.1-113.4
						c0.5-0.4,0.6-1,0.5-1.5c-0.2-0.5-0.7-0.9-1.2-1c-65.7-3-159.4,32.1-271.1,101.4c-25.2,15.7-37,18.7-38.4,16.9
						c-0.2-0.3-1.9-3.3,13.2-19.9c28.6-31.5,130.2-95,196.6-111c66.8-16,124.7-22.7,137.7-15.9c5.6,2.9,8.9,12.6,13.9,27.1
						c6.6,19.2,15.6,45.5,36.3,77.4c36.5,56.2,88.8,70.5,90.7,71c0,0,0,0,0.1,0c0,0,0.1,0,0.1,0c1.6,0.2,2.8,0.1,4.2,0
						c1.4-0.1,2.7-0.2,4-0.4c2.7-0.4,5.3-0.9,7.9-1.5c2.6-0.6,5.2-1.3,7.7-2l3.8-1.2l3.8-1.3L530.2,581.4z"/>
				</g>
			</g>
			<g class="st2">
				<g>
					<path d="M191.4,408.9c41.2-16.5,85.6-32.1,130.3-34.4c5.4-0.3,10.6,0,15.9,0.1c11.5,0.2,20.1,5.3,27,14.8
						c5.5,7.7,9,16.6,12.5,25.4c20,49.3,48.4,94.3,88.8,129.5c17.3,15.1,37,27.8,58.8,35c-9.2,0.4-18.7-3-27.4-5.7
						c-46.1-14.4-74.2-45.2-89.8-68.6c-16.9-25.4-22.9-47.6-22.9-47.9c-0.2-0.6-0.7-1-1.3-1s-1.2,0.4-1.3,1.1
						c0,0.2-4.6,20.2-9.7,76.6c-2.7,30-0.7,59.3,0.8,80.8c0.8,11.8,1.7,24.9,0.8,29.8c-0.2,0.3-0.3,0.6-0.2,0.9
						c-0.2,0.6-0.5,1-0.8,1c-0.4,0.1-0.9-0.1-1.5-0.5c-1-0.8-2.2-2.2-3.4-4.4c0,0,0-0.1,0-0.1c-6.3-11.4-14.2-42.2-16.8-97.7
						c-2.7-56.9,4.6-94.9,7.7-111.1c0.8-4.4,1.4-7,1.3-8.3c0-1.1-0.6-1.9-1.6-2.3c-5.7-2-33,14.4-73.3,62.9
						c-22.8,27.5-45.5,65.6-63.8,96.2c-8.4,14-15.6,26.1-21.3,34.7c-2.2,3.3-4,8-7.3,10.4c-5.4,3.9-6.7-2.2-4.4-6.7
						c11.9-24.4,24.6-48.4,38-72C256.5,494.2,294.3,445,335,399.5c1.2-1.4,2.5-2.9,2.3-4.7c-1.1-9.3-47.3-0.5-54,0.7
						c-21.8,4.1-43.1,10.5-63.9,18.1c-53.8,19.6-104.6,47.2-153.3,77.2c-1.1,0.7-2.3,1.4-3.4,2.1c-15,9.3-25.3,14.2-31.4,16.2
						C42,499.4,115.1,439.4,191.4,408.9z"/>
				</g>
			</g>
			<path d="M545.1,532c-0.3-0.2-0.6-0.1-1,0c-23.7,5.6-45.7-3.8-65.3-16.4c-20.5-13.2-38.1-31-51.5-51.5c-16-24.7-24.9-46-31.1-63.1
				c9.1-9.6,21.4-24.7,17.3-33.1c-4.1-8.5-26.3-10.5-39.8-10.9c-18.6-7.9-83.7,2.2-140.9,15.9c-68.6,16.5-169.9,80-199.7,112.8
				c-14,15.4-17.6,23-13.4,28.2c2.8,3.3,7.5,3.1,12.6,1.6c15.2-0.3,30.3,3,44.3,8.8c15.1,6.1,29,14.8,41.8,24.8
				c12.8,10,24.5,21.2,35.5,33.2c5.2,5.6,10.5,11.2,14.9,17.5c5.4,7.7,9.6,16.5,12.2,25.5c0.4,1.3,0.7,2.6,1.3,3.7
				c0,0.1,0.1,0.2,0.1,0.3c1,2.6,2.9,4.4,5.3,5.2c1.8,0.6,3.5,0.5,5.4-0.6c0.8-0.3,1.5-0.8,2.3-1.2c3.2-1.9,6.3-3.8,9.7-5.3
				c3.5-1.5,7.1-2.8,10.7-3.9c10.1-3.1,20.7-4.8,31.2-5.4c16.6-1.1,33.3,0.3,49.6,3.5c16,3.1,31.6,7.9,46.5,14.2
				c3.8,1.6,7.3,3.4,10.8,5.6c3.7,2.3,7.4,4.6,10.9,7.2c0.6,0.4,1.2,0.9,1.7,1.3c0.5,0.5,0.9,0.9,1.4,1.2c1.2,0.9,2.5,1.5,3.9,1.7
				c0.7,0.1,1.5,0.2,2.4,0.1c1.1-0.1,2-0.6,2.9-1.3c0.1,0,0.1-0.1,0.2-0.1c0,0,0,0,0,0c0.3-0.2,0.6-0.5,0.8-0.8
				c1.6-1.7,2.9-3.9,4-5.5c9.8-14.4,24.3-24.2,39.1-32.8c8.3-4.8,16.8-9.1,25.4-12.9c8.2-3.6,16.6-6.8,25.2-9.7
				c5.5-1.8,11-3.6,16.5-5.1c2.8-0.8,5.6-1.5,8.4-2c1.4-0.3,2.8-0.6,4.2-0.8c0.3-0.1,1.2-0.1,2-0.2c8.5,1.8,17.3,2.7,26,2.8
				c0.6,0,1.3,0,1.7-0.4c0.6-0.6,0.5-1.7-0.1-2.3c-0.6-0.6-1.4-0.9-2.2-1.2c-10-3.1-20-6.3-29.8-9.8c-15.5-5.6-30.5-12.4-44.1-22
				c-16.5-11.7-30.7-26.5-42.1-43.1c-0.5-0.7-0.9-1.4-1.4-2c-16.6-24.9-22.5-46.8-22.6-47c-0.6-2.2-2.6-3.7-4.8-3.6
				c-2.3,0-4.2,1.6-4.7,3.8c-0.2,0.8-4.6,20.5-9.8,77c-2.8,30.3-0.7,59.8,0.8,81.4c0.6,8.8,1.3,18.5,1.2,24.4c0,0-0.1,0-0.1-0.1
				c-5.3-10.1-13.3-39.6-16-95.7c-2.7-56.4,4.5-94.1,7.6-110.2c1-5.3,1.4-7.5,1.4-9c0-2.6-1.6-4.7-4-5.5
				c-10.6-3.7-43.8,23.8-77.1,64c-23,27.7-45.8,65.9-64.1,96.6c-8.3,14-17.4,29.2-23.7,38.2c-0.8-0.5-1.6-1.1-2.4-1.8
				c3.9-14.7,17.1-46.6,53.2-106.5c47.7-79.2,90.7-112.1,91.2-112.4c1.6-1.2,2.3-3.4,1.7-5.4c-0.6-2-2.4-3.4-4.5-3.4
				c-66.4-3-160.9,32.2-273.1,101.9c-17.1,10.6-27,14.9-31.8,16.2c1.5-2.5,4.6-6.8,11-13.9C68.6,461,169.2,398,235,382.3
				c74-17.8,124.9-21.6,135.3-16.2c4.4,2.3,7.8,12.4,12.2,25.1c6.3,18.3,15.7,45.9,36.7,78.2c12.6,19.4,29.6,35.8,48.8,48.7
				c15.2,10.2,31.7,21.8,50.8,22c8,0.1,16-1.6,23.5-4.5c1.2-0.5,2.6-1.1,3-2.3C545.5,532.8,545.5,532.2,545.1,532z M378.5,534.4
				c2.5-27.1,4.8-45.8,6.6-57.8c3.7,8.7,9.3,19.9,17.2,31.8c11.1,16.8,24.9,31.8,40.9,44.1c13.6,10.5,29.1,18.7,45.2,24.6
				c0.8,0.3,1.5,0.5,2.3,0.8c-12.4,1.6-24.7,4.4-36.5,8.5c-15.5,5.3-30.2,12.5-43.9,21.4c-10.5,6.8-20.4,14.4-29.6,22.8
				c-0.1,0.1-0.1,0.1-0.2,0.2c-0.2-4.6-0.6-10.1-1-16.6C377.9,592.9,375.9,563.8,378.5,534.4z M226.9,584.3
				c18.1-30.4,40.7-68.3,63.2-95.4c31-37.4,53.3-54.3,62.9-59.2c-0.1,0.5-0.2,1.1-0.3,1.7c-3.2,16.4-10.6,55-7.8,112.6
				c1.8,37,6.2,67.8,12.2,87c-4.5-2.6-9.1-3.9-13.8-5.9c-8.8-3.6-17.9-6.7-27.1-9.2c-17.9-4.8-36.4-7.5-54.9-7.5
				c-19-0.1-36.1,4.2-54.1,8.1C212.1,608.8,218.4,598.4,226.9,584.3z M66.1,498.1c101.8-63.2,191.4-98.5,254.5-100.6
				c-15.9,14.5-48.2,48-83.4,106.5c-17.4,28.9-43,73.8-52.3,102.4c-3-4.4-5.7-8.8-7.3-10.8c-7.4-9.5-15-18.8-23.5-27.3
				c-12.3-12.4-25.7-23.7-40-33.6c-8.6-5.9-17.5-11.3-26.7-16.2c-9.1-4.8-17.1-7.8-27-10.8c-2.4-0.7-4.9-1.4-7.3-1.9
				C57.2,503.5,61.6,500.9,66.1,498.1z M392.5,390.4c-0.3-0.8-0.5-1.6-0.8-2.4c-2.9-8.5-5.3-15.5-8.1-20.8c10.3,1,18.9,2.9,21,4.7
				C404.5,374.8,399.3,382.6,392.5,390.4z"/>
		</g>
	</g>
</g>
</svg>
