<?xml version="1.0" encoding="utf-8"?>
<!-- Generator: Adobe Illustrator 26.5.0, SVG Export Plug-In . SVG Version: 6.00 Build 0)  -->
<svg version="1.1" id="Layer_1" xmlns="http://www.w3.org/2000/svg" xmlns:xlink="http://www.w3.org/1999/xlink" x="0px" y="0px"
	 viewBox="0 0 18 18" style="enable-background:new 0 0 18 18;" xml:space="preserve">
<style type="text/css">
	.st0{fill:#F6CA3B;}
</style>
<g>
	<path class="st0" d="M15.9,4.03c0.24,0,0.48,0,0.72,0c0.72,0,1.28,0.47,1.34,1.18c0.04,0.51,0.04,1.03-0.01,1.55
		c-0.06,0.61-0.58,1.06-1.19,1.11c-0.08,0.01-0.17,0.01-0.25,0.01c-5.02,0-10.04,0-15.06,0c-0.44,0-0.84-0.1-1.11-0.45
		C0.2,7.24,0.06,7,0.04,6.77c-0.05-0.54-0.06-1.08-0.01-1.62c0.06-0.64,0.62-1.1,1.25-1.12c0.26-0.01,0.53,0,0.81,0
		C2.05,3.8,2,3.58,1.97,3.36C1.76,1.72,2.76,0.38,4.38,0.08c1.71-0.31,3.03,0.35,4.11,1.65C8.66,1.94,8.82,2.17,8.99,2.4
		c0.17-0.23,0.33-0.45,0.5-0.66c0.64-0.78,1.41-1.39,2.4-1.62c0.89-0.21,1.76-0.13,2.59,0.26c1.19,0.57,1.66,1.76,1.53,2.92
		C16,3.54,15.95,3.77,15.9,4.03z M7.61,4.02C7.26,3.33,6.84,2.73,6.19,2.31C5.65,1.95,5.07,1.94,4.48,2.13
		C4.11,2.25,3.94,2.51,3.93,2.9C3.92,3.26,4.03,3.58,4.2,3.89C4.27,4,4.34,4.03,4.46,4.03c0.99-0.01,1.98,0,2.96,0
		C7.48,4.03,7.53,4.02,7.61,4.02z M10.38,4.01c0.05,0.01,0.08,0.01,0.1,0.01c1.04,0,2.07,0,3.11,0c0.06,0,0.16-0.05,0.18-0.11
		c0.11-0.26,0.24-0.52,0.28-0.8c0.08-0.49-0.09-0.81-0.48-0.97C13.2,2,12.81,1.95,12.43,2.05C11.39,2.31,10.87,3.13,10.38,4.01z"/>
	<path class="st0" d="M16.73,9.55c0,0.07,0,0.14,0,0.2c0,2.26,0,4.52,0,6.79c0,0.9-0.55,1.45-1.44,1.45c-1.75,0-3.49,0-5.24,0
		c-0.07,0-0.13,0-0.21,0c0-2.82,0-5.63,0-8.44C12.13,9.55,14.42,9.55,16.73,9.55z"/>
	<path class="st0" d="M1.27,9.55c2.3,0,4.58,0,6.88,0c0,2.81,0,5.61,0,8.45c-0.06,0-0.13,0-0.19,0c-1.76,0-3.53,0-5.29,0
		c-0.84,0-1.41-0.57-1.41-1.42c0-2.28,0-4.56,0-6.84C1.26,9.68,1.27,9.62,1.27,9.55z"/>
</g>
</svg>
