<?xml version="1.0" encoding="utf-8"?>
<!-- Generator: Adobe Illustrator 28.3.0, SVG Export Plug-In . SVG Version: 6.00 Build 0)  -->
<svg version="1.1" id="Layer_1" xmlns="http://www.w3.org/2000/svg" xmlns:xlink="http://www.w3.org/1999/xlink" x="0px" y="0px"
	 viewBox="0 0 18 24" style="enable-background:new 0 0 18 24;" xml:space="preserve">
<style type="text/css">
	.st0{fill:url(#SVGID_1_);}
	.st1{fill:url(#SVGID_00000179604420492567499810000010584134365912965518_);}
</style>
<g>
	
		<radialGradient id="SVGID_1_" cx="-342.3748" cy="3.8467" r="21.3363" gradientTransform="matrix(1.0004 0 0 -1.0004 351.2405 25.7335)" gradientUnits="userSpaceOnUse">
		<stop  offset="0" style="stop-color:#FCD021"/>
		<stop  offset="1" style="stop-color:#E42A2E"/>
	</radialGradient>
	<path class="st0" d="M17.21,11.37c-0.44-0.97-1.45-2.19-1.98-2.58c0.58,1.51-1.03,3.16-2.58,2.58c-0.76-0.29-1.15-0.96-1.24-1.74
		c-0.09-0.85,0.24-1.6,0.28-2.42C11.82,4.19,9.99,1.16,7.18,0c0.29,1.53,0.05,3.13-0.62,4.53C5.73,6.28,4.21,7.16,2.84,8.41
		c-1.03,0.94-1.82,2.12-2.3,3.42c-1.89,5.07,1.34,10.98,6.71,12.01C14.29,25.18,20.18,17.93,17.21,11.37z"/>
	
		<radialGradient id="SVGID_00000080903329638677980710000006135781451900927372_" cx="-342.7531" cy="19.6557" r="15.6383" gradientTransform="matrix(1.0026 0 0 -1.0026 352.495 42.2438)" gradientUnits="userSpaceOnUse">
		<stop  offset="0" style="stop-color:#FFFF00"/>
		<stop  offset="1" style="stop-color:#F7931E"/>
	</radialGradient>
	<path style="fill:url(#SVGID_00000080903329638677980710000006135781451900927372_);" d="M9.04,22.5C6.16,22.5,4,20.2,4,17.52
		c0-2.57,1.6-5.42,4.02-7.02c-0.12,1.11-0.18,2.26-0.18,3.39c-0.01,2.8,3.97,3.81,5.48,1.45C15.36,18.38,12.47,22.5,9.04,22.5z"/>
</g>
</svg>
