<?xml version="1.0" encoding="utf-8"?>
<!-- Generator: Adobe Illustrator 26.5.0, SVG Export Plug-In . SVG Version: 6.00 Build 0)  -->
<svg version="1.1" id="Layer_1" xmlns="http://www.w3.org/2000/svg" xmlns:xlink="http://www.w3.org/1999/xlink" x="0px" y="0px"
	 viewBox="0 0 18 18" style="enable-background:new 0 0 18 18;" xml:space="preserve">
<style type="text/css">
	.st0{fill:#989898;}
</style>
<path class="st0" d="M15.69,9.88C15.73,9.6,15.75,9.31,15.75,9c0-0.3-0.02-0.6-0.07-0.88l1.9-1.48c0.17-0.13,0.22-0.38,0.11-0.57
	l-1.8-3.11c-0.11-0.21-0.35-0.27-0.55-0.21l-2.24,0.9c-0.47-0.36-0.97-0.66-1.52-0.88l-0.34-2.38C11.21,0.16,11.02,0,10.8,0H7.2
	C6.97,0,6.8,0.16,6.76,0.38L6.42,2.77C5.87,2.99,5.36,3.3,4.9,3.65l-2.24-0.9c-0.21-0.08-0.44,0-0.55,0.21L0.32,6.07
	c-0.11,0.2-0.07,0.44,0.11,0.57l1.9,1.48C2.29,8.4,2.25,8.71,2.25,9s0.02,0.6,0.07,0.88l-1.9,1.48c-0.17,0.13-0.22,0.38-0.11,0.57
	l1.8,3.11c0.11,0.21,0.35,0.27,0.55,0.21l2.24-0.9c0.47,0.36,0.97,0.66,1.52,0.88l0.34,2.38C6.8,17.84,6.97,18,7.2,18h3.6
	c0.22,0,0.41-0.16,0.44-0.38l0.34-2.38c0.55-0.22,1.06-0.52,1.52-0.88l2.24,0.9c0.21,0.08,0.44,0,0.55-0.21l1.8-3.11
	c0.11-0.21,0.07-0.44-0.11-0.57L15.69,9.88z M9,12.38c-1.86,0-3.38-1.52-3.38-3.38S7.14,5.62,9,5.62S12.38,7.14,12.38,9
	S10.86,12.38,9,12.38z"/>
</svg>
