<?xml version="1.0" encoding="utf-8"?>
<!-- Generator: Adobe Illustrator 23.0.2, SVG Export Plug-In . SVG Version: 6.00 Build 0)  -->
<svg version="1.1" id="Layer_1" xmlns="http://www.w3.org/2000/svg" xmlns:xlink="http://www.w3.org/1999/xlink" x="0px" y="0px"
	 viewBox="0 0 3883.5 2409.4" style="enable-background:new 0 0 3883.5 2409.4;" xml:space="preserve">
<style type="text/css">
	.st0{opacity:0.8;fill:#E6D8EB;}
	.st1{opacity:0.5;fill:#E6D8EB;}
	.st2{opacity:0.2;fill:#E6D8EB;enable-background:new    ;}
	.st3{opacity:0.5;fill:#E6D8EB;enable-background:new    ;}
</style>
<path class="st0" d="M1942.8,2401.4h-61.6c-13.6,0-26.3-7.2-33.1-18.8l-61.6-105.7c-6.8-11.6-6.8-26,0-37.6l61.6-105.7
	c6.8-11.6,19.5-18.8,33.1-18.8h61.6v-15.2h-61.6c-13.6,0-26.3-7.2-33.1-18.8l-61.6-105.7c-6.8-11.6-6.8-26,0-37.6l61.6-105.7
	c6.8-11.6,19.5-18.8,33.1-18.8h61.6v-7.7H1840c0,6.4-1.6,13.1-5.2,18.8l-61.6,105.7c-6.8,11.6-19.5,18.8-33.1,18.8h-123.2
	c-13.6,0-26.3-7.2-33.1-18.8l-61.6-105.7c-3.4-5.9-5.2-12.4-5.2-18.8h-102.8v7.5h61.6c13.6,0,26.3,7.2,33.1,18.8l61.6,105.7
	c6.8,11.6,6.8,26,0,37.6l-61.6,105.7c-6.8,11.6-19.5,18.8-33.1,18.8h-61.6v15.2h61.6c13.6,0,26.3,7.2,33.1,18.8l61.6,105.7
	c6.8,11.6,6.8,26,0,37.6l-17.7,30.3l-44.1,75.6l0,0c-6.8,11.6-19.5,18.8-33.1,18.8h-61.4v7.7H1517c0-6.4,1.6-13.1,5.2-18.8
	l17.7-30.3l44.1-75.6l0,0c6.8-11.6,19.5-18.8,33.1-18.8h123.2c13.6,0,26.3,7.2,33.1,18.8l61.6,105.7c3.4,5.7,5.2,12.4,5.2,18.8
	h102.6V2401.4z M1740.1,2250.5h-123.2c-13.6,0-26.3-7.2-33.1-18.8l-61.6-105.7c-6.8-11.6-6.8-26,0-37.6l61.6-105.7
	c6.8-11.6,19.5-18.8,33.1-18.8h123.2c13.6,0,26.3,7.2,33.1,18.8l61.6,105.7c6.8,11.6,6.8,26,0,37.6l-61.6,105.7
	C1766.4,2243.1,1753.7,2250.5,1740.1,2250.5z"/>
<path class="st1" d="M1414.4,2401.4h-61.6c-13.6,0-26.3-7.2-33.1-18.8l-61.6-105.7c-6.8-11.6-6.8-26,0-37.6l61.6-105.7
	c6.8-11.6,19.5-18.8,33.1-18.8h61.6v-15.2h-61.6c-13.6,0-26.3-7.2-33.1-18.8l-61.6-105.7c-6.8-11.6-6.8-26,0-37.6l61.6-105.7
	c6.8-11.6,19.5-18.8,33.1-18.8h61.6v-7.7h-102.8c0,6.4-1.6,13.1-5.2,18.8l-61.6,105.7c-6.8,11.6-19.5,18.8-33.1,18.8h-123.2
	c-13.6,0-26.3-7.2-33.1-18.8l-61.6-105.7c-3.4-5.9-5.2-12.4-5.2-18.8H885.8v7.5h61.6c13.6,0,26.3,7.2,33.1,18.8l61.6,105.7
	c6.8,11.6,6.8,26,0,37.6l-61.6,105.7c-6.8,11.6-19.5,18.8-33.1,18.8h-61.6v15.2h61.6c13.6,0,26.3,7.2,33.1,18.8l61.6,105.7
	c6.8,11.6,6.8,26,0,37.6l-17.7,30.3l-44.1,75.6l0,0c-6.8,11.6-19.5,18.8-33.1,18.8h-61.4v7.7h102.8c0-6.4,1.6-13.1,5.2-18.8
	l17.7-30.3l44.1-75.6l0,0c6.8-11.6,19.5-18.8,33.1-18.8h123.2c13.6,0,26.3,7.2,33.1,18.8l61.6,105.7c3.4,5.7,5.2,12.4,5.2,18.8
	h102.6V2401.4z M1211.7,2250.5h-123.2c-13.6,0-26.3-7.2-33.1-18.8L993.8,2126c-6.8-11.6-6.8-26,0-37.6l61.6-105.7
	c6.8-11.6,19.5-18.8,33.1-18.8h123.2c13.6,0,26.3,7.2,33.1,18.8l61.6,105.7c6.8,11.6,6.8,26,0,37.6l-61.6,105.7
	C1238,2243.1,1225.3,2250.5,1211.7,2250.5z"/>
<path class="st0" d="M2471.1,2401.4h-61.6c-13.6,0-26.3-7.2-33.1-18.8l-61.6-105.7c-6.8-11.6-6.8-26,0-37.6l61.6-105.7
	c6.8-11.6,19.5-18.8,33.1-18.8h61.6v-15.2h-61.6c-13.6,0-26.3-7.2-33.1-18.8l-61.6-105.7c-6.8-11.6-6.8-26,0-37.6l61.6-105.7
	c6.8-11.6,19.5-18.8,33.1-18.8h61.6v-7.7h-102.8c0,6.4-1.6,13.1-5.2,18.8l-61.6,105.7c-6.8,11.6-19.5,18.8-33.1,18.8h-123.2
	c-13.6,0-26.3-7.2-33.1-18.8l-61.6-105.7c-3.4-5.9-5.2-12.4-5.2-18.8h-102.8v7.5h61.6c13.6,0,26.3,7.2,33.1,18.8l61.6,105.7
	c6.8,11.6,6.8,26,0,37.6l-61.6,105.7c-6.8,11.6-19.5,18.8-33.1,18.8h-61.6v15.2h61.6c13.6,0,26.3,7.2,33.1,18.8l61.6,105.7
	c6.8,11.6,6.8,26,0,37.6l-17.7,30.3l-44.1,75.6l0,0c-6.8,11.6-19.5,18.8-33.1,18.8h-61.4v7.7h102.8c0-6.4,1.6-13.1,5.2-18.8
	l17.7-30.3l44.1-75.6l0,0c6.8-11.6,19.5-18.8,33.1-18.8h123.2c13.6,0,26.3,7.2,33.1,18.8l61.6,105.7c3.4,5.7,5.2,12.4,5.2,18.8
	h102.6V2401.4z M2268.6,2250.5h-123.2c-13.6,0-26.3-7.2-33.1-18.8l-61.6-105.7c-6.8-11.6-6.8-26,0-37.6l61.6-105.7
	c6.8-11.6,19.5-18.8,33.1-18.8h123.2c13.6,0,26.3,7.2,33.1,18.8l61.6,105.7c6.8,11.6,6.8,26,0,37.6l-61.6,105.7
	C2294.9,2243.1,2282.2,2250.5,2268.6,2250.5z"/>
<path class="st2" d="M886,2401.4h-61.6c-13.6,0-26.3-7.2-33.1-18.8L729.6,2277c-6.8-11.6-6.8-26,0-37.6l61.6-105.7
	c6.8-11.6,19.5-18.8,33.1-18.8H886v-15.2h-61.6c-13.6,0-26.3-7.2-33.1-18.8l-61.6-105.7c-6.8-11.6-6.8-26,0-37.6l61.6-105.7
	c6.8-11.6,19.5-18.8,33.1-18.8H886v-7.7H783.2c0,6.4-1.6,13.1-5.2,18.8l-61.6,105.7c-6.8,11.6-19.5,18.8-33.1,18.8H560.1
	c-13.6,0-26.3-7.2-33.1-18.8l-61.6-105.7c-3.4-5.9-5.2-12.4-5.2-18.8H357.3v7.5h61.6c13.6,0,26.3,7.2,33.1,18.8l61.6,105.7
	c6.8,11.6,6.8,26,0,37.6l-61.6,105.7c-6.8,11.6-19.5,18.8-33.1,18.8h-61.6v15.2h61.6c13.6,0,26.3,7.2,33.1,18.8l61.6,105.7
	c6.8,11.6,6.8,26,0,37.6l-17.7,30.3l-44.1,75.6l0,0c-6.8,11.6-19.5,18.8-33.1,18.8h-61.4v7.7h102.8c0-6.4,1.6-13.1,5.2-18.8
	l17.7-30.3l44.1-75.6l0,0c6.8-11.6,19.5-18.8,33.1-18.8h123.2c13.6,0,26.3,7.2,33.1,18.8l61.6,105.7c3.4,5.7,5.2,12.4,5.2,18.8H886
	V2401.4z M683.4,2250.5H560.2c-13.6,0-26.3-7.2-33.1-18.8L465.5,2126c-6.8-11.6-6.8-26,0-37.6l61.6-105.7
	c6.8-11.6,19.5-18.8,33.1-18.8h123.2c13.6,0,26.3,7.2,33.1,18.8l61.6,105.7c6.8,11.6,6.8,26,0,37.6l-61.6,105.7
	C709.6,2243.1,697,2250.5,683.4,2250.5z"/>
<path class="st2" d="M3526.2,2401.4h-61.6c-13.6,0-26.3-7.2-33.1-18.8l-61.6-105.7c-6.8-11.6-6.8-26,0-37.6l61.6-105.7
	c6.8-11.6,19.5-18.8,33.1-18.8h61.6v-15.2h-61.6c-13.6,0-26.3-7.2-33.1-18.8l-61.6-105.7c-6.8-11.6-6.8-26,0-37.6l61.6-105.7
	c6.8-11.6,19.5-18.8,33.1-18.8h61.6v-7.7h-102.8c0,6.4-1.6,13.1-5.2,18.8l-61.6,105.7c-6.8,11.6-19.5,18.8-33.1,18.8h-123.2
	c-13.6,0-26.3-7.2-33.1-18.8l-61.6-105.7c-3.4-5.9-5.2-12.4-5.2-18.8h-102.8v7.5h61.6c13.6,0,26.3,7.2,33.1,18.8l61.6,105.7
	c6.8,11.6,6.8,26,0,37.6l-61.6,105.7c-6.8,11.6-19.5,18.8-33.1,18.8h-61.6v15.2h61.6c13.6,0,26.3,7.2,33.1,18.8l61.6,105.7
	c6.8,11.6,6.8,26,0,37.6l-17.7,30.3l-44.1,75.6l0,0c-6.8,11.6-19.5,18.8-33.1,18.8h-61.4v7.7h102.8c0-6.4,1.6-13.1,5.2-18.8
	l17.7-30.3l44.1-75.6l0,0c6.8-11.6,19.5-18.8,33.1-18.8h123.2c13.6,0,26.3,7.2,33.1,18.8l61.6,105.7c3.4,5.7,5.2,12.4,5.2,18.8
	h102.6V2401.4z M3323.5,2250.5h-123.2c-13.6,0-26.3-7.2-33.1-18.8l-61.6-105.7c-6.8-11.6-6.8-26,0-37.6l61.6-105.7
	c6.8-11.6,19.5-18.8,33.1-18.8h123.2c13.6,0,26.3,7.2,33.1,18.8l61.6,105.7c6.8,11.6,6.8,26,0,37.6l-61.6,105.7
	C3349.8,2243.1,3337.1,2250.5,3323.5,2250.5z"/>
<path class="st3" d="M2997.7,2401.4h-61.6c-13.6,0-26.3-7.2-33.1-18.8l-61.6-105.7c-6.8-11.6-6.8-26,0-37.6l61.6-105.7
	c6.8-11.6,19.5-18.8,33.1-18.8h61.6v-15.2h-61.6c-13.6,0-26.3-7.2-33.1-18.8l-61.6-105.7c-6.8-11.6-6.8-26,0-37.6L2903,1832
	c6.8-11.6,19.5-18.8,33.1-18.8h61.6v-7.7h-102.8c0,6.4-1.6,13.1-5.2,18.8l-61.6,105.7c-6.8,11.6-19.5,18.8-33.1,18.8h-123.2
	c-13.6,0-26.3-7.2-33.1-18.8l-61.6-105.7c-3.4-5.9-5.2-12.4-5.2-18.8h-102.8v7.5h61.6c13.6,0,26.3,7.2,33.1,18.8l61.6,105.7
	c6.8,11.6,6.8,26,0,37.6l-61.6,105.7c-6.8,11.6-19.5,18.8-33.1,18.8h-61.6v15.2h61.6c13.6,0,26.3,7.2,33.1,18.8l61.6,105.7
	c6.8,11.6,6.8,26,0,37.6l-17.7,30.3l-44.1,75.6l0,0c-6.8,11.6-19.5,18.8-33.1,18.8h-61.4v7.7h102.8c0-6.4,1.6-13.1,5.2-18.8
	l17.7-30.3l44.1-75.6l0,0c6.8-11.6,19.5-18.8,33.1-18.8h123.2c13.6,0,26.3,7.2,33.1,18.8l61.6,105.7c3.4,5.7,5.2,12.4,5.2,18.8
	h102.6V2401.4z M2795.2,2250.5H2672c-13.6,0-26.3-7.2-33.1-18.8l-61.6-105.7c-6.8-11.6-6.8-26,0-37.6l61.6-105.7
	c6.8-11.6,19.5-18.8,33.1-18.8h123.2c13.6,0,26.3,7.2,33.1,18.8l61.6,105.7c6.8,11.6,6.8,26,0,37.6l-61.6,105.7
	C2821.3,2243.1,2808.8,2250.5,2795.2,2250.5z"/>
<path class="st1" d="M1943.7,1797.4h-61.6c-13.6,0-26.3-7.2-33.1-18.8l-61.6-105.7c-6.8-11.6-6.8-26,0-37.6l61.6-105.7
	c6.8-11.6,19.5-18.8,33.1-18.8h61.6v-15.2h-61.6c-13.6,0-26.3-7.2-33.1-18.8l-61.6-105.7c-6.8-11.6-6.8-26,0-37.6L1849,1228
	c6.8-11.6,19.5-18.8,33.1-18.8h61.6v-7.7h-102.8c0,6.4-1.6,13.1-5.2,18.8l-61.6,105.7c-6.8,11.6-19.5,18.8-33.1,18.8h-123.2
	c-13.6,0-26.3-7.2-33.1-18.8l-61.6-105.7c-3.4-5.9-5.2-12.4-5.2-18.8h-102.6v7.5h61.6c13.6,0,26.3,7.2,33.1,18.8l61.6,105.7
	c6.8,11.6,6.8,26,0,37.6l-61.6,105.7c-6.8,11.6-19.5,18.8-33.1,18.8h-61.6v15.2h61.6c13.6,0,26.3,7.2,33.1,18.8l61.6,105.7
	c6.8,11.6,6.8,26,0,37.6l-17.7,30.3l-44.1,75.6l0,0c-6.8,11.6-19.5,18.8-33.1,18.8h-61.4v7.7h102.8c0-6.4,1.6-13.1,5.2-18.8
	l17.7-30.3l44.1-75.6l0,0c6.8-11.6,19.5-18.8,33.1-18.8h123.2c13.6,0,26.3,7.2,33.1,18.8l61.6,105.7c3.4,5.7,5.2,12.4,5.2,18.8
	h102.6v-7.5H1943.7z M1741,1646.5h-123.2c-13.6,0-26.3-7.2-33.1-18.8l-61.6-105.7c-6.8-11.6-6.8-26,0-37.6l61.6-105.7
	c6.8-11.6,19.5-18.8,33.1-18.8H1741c13.6,0,26.3,7.2,33.1,18.8l61.6,105.7c6.8,11.6,6.8,26,0,37.6l-61.6,105.7
	C1767.3,1639.1,1754.6,1646.5,1741,1646.5z"/>
<path class="st2" d="M1415.3,1797.4h-61.6c-13.6,0-26.3-7.2-33.1-18.8L1259,1673c-6.8-11.6-6.8-26,0-37.6l61.6-105.7
	c6.8-11.6,19.5-18.8,33.1-18.8h61.6v-15.2h-61.6c-13.6,0-26.3-7.2-33.1-18.8l-61.6-105.7c-6.8-11.6-6.8-26,0-37.6l61.6-105.7
	c6.8-11.6,19.5-18.8,33.1-18.8h61.6v-7.7h-102.8c0,6.4-1.6,13.1-5.2,18.8l-61.6,105.7c-6.8,11.6-19.5,18.8-33.1,18.8h-123.2
	c-13.6,0-26.3-7.2-33.1-18.8l-61.6-105.7c-3.4-5.9-5.2-12.4-5.2-18.8H886.7v7.5h61.6c13.6,0,26.3,7.2,33.1,18.8l61.6,105.7
	c6.8,11.6,6.8,26,0,37.6l-61.6,105.7c-6.8,11.6-19.5,18.8-33.1,18.8h-61.6v15.2h61.6c13.6,0,26.3,7.2,33.1,18.8l61.6,105.7
	c6.8,11.6,6.8,26,0,37.6l-17.7,30.3l-44.1,75.6l0,0c-6.8,11.6-19.5,18.8-33.1,18.8h-61.4v7.7h102.8c0-6.4,1.6-13.1,5.2-18.8
	l17.7-30.3l44.1-75.6l0,0c6.8-11.6,19.5-18.8,33.1-18.8h123.2c13.6,0,26.3,7.2,33.1,18.8l61.6,105.7c3.4,5.7,5.2,12.4,5.2,18.8
	h102.6V1797.4z M1212.6,1646.5h-123.2c-13.6,0-26.3-7.2-33.1-18.8L994.7,1522c-6.8-11.6-6.8-26,0-37.6l61.6-105.7
	c6.8-11.6,19.5-18.8,33.1-18.8h123.2c13.6,0,26.3,7.2,33.1,18.8l61.6,105.7c6.8,11.6,6.8,26,0,37.6l-61.6,105.7
	C1238.9,1639.1,1226.2,1646.5,1212.6,1646.5z"/>
<path class="st3" d="M2472,1797.4h-61.6c-13.6,0-26.3-7.2-33.1-18.8l-61.6-105.7c-6.8-11.6-6.8-26,0-37.6l61.6-105.7
	c6.8-11.6,19.5-18.8,33.1-18.8h61.6v-15.2h-61.6c-13.6,0-26.3-7.2-33.1-18.8l-61.6-105.7c-6.8-11.6-6.8-26,0-37.6l61.6-105.7
	c6.8-11.6,19.5-18.8,33.1-18.8h61.6v-7.7h-102.8c0,6.4-1.6,13.1-5.2,18.8l-61.6,105.7c-6.8,11.6-19.5,18.8-33.1,18.8h-123.2
	c-13.6,0-26.3-7.2-33.1-18.8l-61.6-105.7c-3.4-5.9-5.2-12.4-5.2-18.8h-102.8v7.5h61.6c13.6,0,26.3,7.2,33.1,18.8l61.6,105.7
	c6.8,11.6,6.8,26,0,37.6l-61.6,105.7c-6.8,11.6-19.5,18.8-33.1,18.8h-61.6v15.2h61.6c13.6,0,26.3,7.2,33.1,18.8l61.6,105.7
	c6.8,11.6,6.8,26,0,37.6L2082,1703l-44.1,75.6l0,0c-6.8,11.6-19.5,18.8-33.1,18.8h-61.4v7.7h102.8c0-6.4,1.6-13.1,5.2-18.8
	l17.7-30.3l44.1-75.6l0,0c6.8-11.6,19.5-18.8,33.1-18.8h123.2c13.6,0,26.3,7.2,33.1,18.8l61.6,105.7c3.4,5.7,5.2,12.4,5.2,18.8H2472
	V1797.4z M2269.4,1646.5h-123.2c-13.6,0-26.3-7.2-33.1-18.8l-61.6-105.7c-6.8-11.6-6.8-26,0-37.6l61.6-105.7
	c6.8-11.6,19.5-18.8,33.1-18.8h123.2c13.6,0,26.3,7.2,33.1,18.8l61.6,105.7c6.8,11.6,6.8,26,0,37.6l-61.6,105.7
	C2295.8,1639.1,2283.1,1646.5,2269.4,1646.5z"/>
<path class="st2" d="M2998.6,1797.4H2937c-13.6,0-26.3-7.2-33.1-18.8l-61.6-105.7c-6.8-11.6-6.8-26,0-37.6l61.6-105.7
	c6.8-11.6,19.5-18.8,33.1-18.8h61.6v-15.2H2937c-13.6,0-26.3-7.2-33.1-18.8l-61.6-105.7c-6.8-11.6-6.8-26,0-37.6l61.6-105.7
	c6.8-11.6,19.5-18.8,33.1-18.8h61.6v-7.7h-102.8c0,6.4-1.6,13.1-5.2,18.8l-61.6,105.7c-6.8,11.6-19.5,18.8-33.1,18.8h-123.2
	c-13.6,0-26.3-7.2-33.1-18.8l-61.6-105.7c-3.4-5.9-5.2-12.4-5.2-18.8H2470v7.5h61.6c13.6,0,26.3,7.2,33.1,18.8l61.6,105.7
	c6.8,11.6,6.8,26,0,37.6l-61.6,105.7c-6.8,11.6-19.5,18.8-33.1,18.8H2470v15.2h61.6c13.6,0,26.3,7.2,33.1,18.8l61.6,105.7
	c6.8,11.6,6.8,26,0,37.6l-17.7,30.3l-44.1,75.6l0,0c-6.8,11.6-19.5,18.8-33.1,18.8H2470v7.7h102.8c0-6.4,1.6-13.1,5.2-18.8
	l17.7-30.3l44.1-75.6l0,0c6.8-11.6,19.5-18.8,33.1-18.8h123.2c13.6,0,26.3,7.2,33.1,18.8l61.6,105.7c3.4,5.7,5.2,12.4,5.2,18.8
	h102.6V1797.4z M2796.1,1646.5h-123.2c-13.6,0-26.3-7.2-33.1-18.8l-61.6-105.7c-6.8-11.6-6.8-26,0-37.6l61.6-105.7
	c6.8-11.6,19.5-18.8,33.1-18.8h123.2c13.6,0,26.3,7.2,33.1,18.8l61.6,105.7c6.8,11.6,6.8,26,0,37.6l-61.6,105.7
	C2822.2,1639.1,2809.7,1646.5,2796.1,1646.5z"/>
<path class="st2" d="M1944.6,1193.6H1883c-13.6,0-26.3-7.2-33.1-18.8l-61.6-105.7c-6.8-11.6-6.8-26,0-37.6l61.6-105.7
	c6.8-11.6,19.5-18.8,33.1-18.8h61.6v-15.2H1883c-13.6,0-26.3-7.2-33.1-18.8l-61.6-105.7c-6.8-11.6-6.8-26,0-37.6l61.6-105.7
	c6.8-11.6,19.5-18.8,33.1-18.8h61.6v-7.7h-102.8c0,6.4-1.6,13.1-5.2,18.8L1775,722.1c-6.8,11.6-19.5,18.8-33.1,18.8h-123.2
	c-13.6,0-26.3-7.2-33.1-18.8L1524,616.5c-3.4-5.9-5.2-12.4-5.2-18.8H1416v7.5h61.6c13.6,0,26.3,7.2,33.1,18.8l61.6,105.7
	c6.8,11.6,6.8,26,0,37.6l-61.6,105.7c-6.8,11.6-19.5,18.8-33.1,18.8H1416v15.2h61.6c13.6,0,26.3,7.2,33.1,18.8l61.6,105.7
	c6.8,11.6,6.8,26,0,37.6l-17.7,30.3l-44.1,75.6l0,0c-6.8,11.6-19.5,18.8-33.1,18.8H1416v7.7h102.8c0-6.4,1.6-13.1,5.2-18.8
	l17.7-30.3l44.1-75.6l0,0c6.8-11.6,19.5-18.8,33.1-18.8h123.2c13.6,0,26.3,7.2,33.1,18.8l61.6,105.7c3.4,5.7,5.2,12.4,5.2,18.8
	h102.6V1193.6z M1741.9,1042.6h-123.2c-13.6,0-26.3-7.2-33.1-18.8L1524,918.2c-6.8-11.6-6.8-26,0-37.6l61.6-105.7
	c6.8-11.6,19.5-18.8,33.1-18.8h123.2c13.6,0,26.3,7.2,33.1,18.8l61.6,105.7c6.8,11.6,6.8,26,0,37.6l-61.6,105.7
	C1768.2,1035.3,1755.5,1042.6,1741.9,1042.6z"/>
<path class="st2" d="M2472.9,1193.6h-61.6c-13.6,0-26.3-7.2-33.1-18.8l-61.6-105.7c-6.8-11.6-6.8-26,0-37.6l61.6-105.7
	c6.8-11.6,19.5-18.8,33.1-18.8h61.6v-15.2h-61.6c-13.6,0-26.3-7.2-33.1-18.8l-61.6-105.7c-6.8-11.6-6.8-26,0-37.6l61.6-105.7
	c6.8-11.6,19.5-18.8,33.1-18.8h61.6v-7.7h-102.8c0,6.4-1.6,13.1-5.2,18.8l-61.6,105.7c-6.8,11.6-19.5,18.8-33.1,18.8H2147
	c-13.6,0-26.3-7.2-33.1-18.8l-61.6-105.7c-3.4-5.9-5.2-12.4-5.2-18.8h-102.8v7.5h61.6c13.6,0,26.3,7.2,33.1,18.8l61.6,105.7
	c6.8,11.6,6.8,26,0,37.6L2039,872.9c-6.8,11.6-19.5,18.8-33.1,18.8h-61.6v15.2h61.6c13.6,0,26.3,7.2,33.1,18.8l61.6,105.7
	c6.8,11.6,6.8,26,0,37.6l-17.7,30.3l-44.1,75.6l0,0c-6.8,11.6-19.5,18.8-33.1,18.8h-61.4v7.7H2047c0-6.4,1.6-13.1,5.2-18.8
	l17.7-30.3l44.1-75.6l0,0c6.8-11.6,19.5-18.8,33.1-18.8h123.2c13.6,0,26.3,7.2,33.1,18.8l61.6,105.7c3.4,5.7,5.2,12.4,5.2,18.8
	h102.6V1193.6z M2270.3,1042.6h-123.2c-13.6,0-26.3-7.2-33.1-18.8l-61.6-105.7c-6.8-11.6-6.8-26,0-37.6l61.6-105.7
	c6.8-11.6,19.5-18.8,33.1-18.8h123.2c13.6,0,26.3,7.2,33.1,18.8l61.6,105.7c6.8,11.6,6.8,26,0,37.6l-61.6,105.7
	C2296.7,1035.3,2284,1042.6,2270.3,1042.6z"/>
<path class="st2" d="M2212.1,738.2h-61.6c-13.6,0-26.3-7.2-33.1-18.8l-61.6-105.7c-6.8-11.6-6.8-26,0-37.6l61.6-105.7
	c6.8-11.6,19.5-18.8,33.1-18.8h61.6v-15.2h-61.6c-13.6,0-26.3-7.2-33.1-18.8L2055.8,312c-6.8-11.6-6.8-26,0-37.6l61.6-105.7
	c6.8-11.6,19.5-18.8,33.1-18.8h61.6v-7.7h-102.8c0,6.4-1.6,13.1-5.2,18.8l-61.6,105.7c-6.8,11.6-19.5,18.8-33.1,18.8h-123.2
	c-13.6,0-26.3-7.2-33.1-18.8l-61.6-105.7c-3.4-5.9-5.2-12.4-5.2-18.8h-102.8v7.5h61.6c13.6,0,26.3,7.2,33.1,18.8l61.6,105.7
	c6.8,11.6,6.8,26,0,37.6l-61.6,105.7c-6.8,11.6-19.5,18.8-33.1,18.8h-61.6v15.2h61.6c13.6,0,26.3,7.2,33.1,18.8l61.6,105.7
	c6.8,11.6,6.8,26,0,37.6l-17.7,30.3l-44.1,75.6l0,0c-6.8,11.6-19.5,18.8-33.1,18.8h-61.4v7.7h102.8c0-6.4,1.6-13.1,5.2-18.8
	l17.7-30.3l44.1-75.6l0,0c6.8-11.6,19.5-18.8,33.1-18.8h123.2c13.6,0,26.3,7.2,33.1,18.8l61.6,105.7c3.4,5.7,5.2,12.4,5.2,18.8
	h102.6V738.2z M2009.4,587.3h-123.2c-13.6,0-26.3-7.2-33.1-18.8l-61.6-105.7c-6.8-11.6-6.8-26,0-37.6l61.6-105.7
	c6.8-11.6,19.5-18.8,33.1-18.8h123.2c13.6,0,26.3,7.2,33.1,18.8l61.6,105.7c6.8,11.6,6.8,26,0,37.6l-61.6,105.7
	C2035.8,580.1,2023,587.3,2009.4,587.3z"/>
</svg>
