<?xml version="1.0" encoding="utf-8"?>
<!-- Generator: Adobe Illustrator 23.0.2, SVG Export Plug-In . SVG Version: 6.00 Build 0)  -->
<svg version="1.1" id="Layer_1" xmlns="http://www.w3.org/2000/svg" xmlns:xlink="http://www.w3.org/1999/xlink" x="0px" y="0px"
	 viewBox="0 0 3883.5 2409.4" style="enable-background:new 0 0 3883.5 2409.4;" xml:space="preserve">
<style type="text/css">
	.st0{fill:#E6D8EB;}
	.st1{opacity:0.7;fill:#E6D8EB;}
	.st2{opacity:0.55;fill:#E6D8EB;}
	.st3{opacity:0.2;fill:#E6D8EB;}
	.st4{opacity:0.35;fill:#E6D8EB;}
	.st5{opacity:0.85;fill:#E6D8EB;}
</style>
<path class="st0" d="M2089.6,2404.5h-34.4c-7.6,0-14.7-4-18.5-10.5l-34.4-59c-3.8-6.5-3.8-14.5,0-21l34.4-59
	c3.8-6.5,10.9-10.5,18.5-10.5h34.4v-8.5h-34.4c-7.6,0-14.7-4-18.5-10.5l-34.4-59c-3.8-6.5-3.8-14.5,0-21l34.4-59
	c3.8-6.5,10.9-10.5,18.5-10.5h34.4v-4.3h-57.4c0,3.6-0.9,7.3-2.9,10.5l-34.4,59c-3.8,6.5-10.9,10.5-18.5,10.5h-68.8
	c-7.6,0-14.7-4-18.5-10.5l-34.4-59c-1.9-3.3-2.9-6.9-2.9-10.5h-57.4v4.2h34.4c7.6,0,14.7,4,18.5,10.5l34.4,59c3.8,6.5,3.8,14.5,0,21
	l-34.4,59c-3.8,6.5-10.9,10.5-18.5,10.5h-34.4v8.5h34.4c7.6,0,14.7,4,18.5,10.5l34.4,59c3.8,6.5,3.8,14.5,0,21l-9.9,16.9l-24.6,42.2
	l0,0c-3.8,6.5-10.9,10.5-18.5,10.5h-34.3v4.3h57.4c0-3.6,0.9-7.3,2.9-10.5l9.9-16.9l24.6-42.2l0,0c3.8-6.5,10.9-10.5,18.5-10.5h68.8
	c7.6,0,14.7,4,18.5,10.5l34.4,59c1.9,3.2,2.9,6.9,2.9,10.5h57.3V2404.5z M1976.4,2320.2h-68.8c-7.6,0-14.7-4-18.5-10.5l-34.4-59
	c-3.8-6.5-3.8-14.5,0-21l34.4-59c3.8-6.5,10.9-10.5,18.5-10.5h68.8c7.6,0,14.7,4,18.5,10.5l34.4,59c3.8,6.5,3.8,14.5,0,21l-34.4,59
	C1991.1,2316.1,1984,2320.2,1976.4,2320.2z"/>
<path class="st0" d="M1794.5,2404.5h-34.4c-7.6,0-14.7-4-18.5-10.5l-34.4-59c-3.8-6.5-3.8-14.5,0-21l34.4-59
	c3.8-6.5,10.9-10.5,18.5-10.5h34.4v-8.5h-34.4c-7.6,0-14.7-4-18.5-10.5l-34.4-59c-3.8-6.5-3.8-14.5,0-21l34.4-59
	c3.8-6.5,10.9-10.5,18.5-10.5h34.4v-4.3h-57.4c0,3.6-0.9,7.3-2.9,10.5l-34.4,59c-3.8,6.5-10.9,10.5-18.5,10.5h-68.8
	c-7.6,0-14.7-4-18.5-10.5l-34.4-59c-1.9-3.3-2.9-6.9-2.9-10.5h-57.4v4.2h34.4c7.6,0,14.7,4,18.5,10.5l34.4,59c3.8,6.5,3.8,14.5,0,21
	l-34.4,59c-3.8,6.5-10.9,10.5-18.5,10.5h-34.4v8.5h34.4c7.6,0,14.7,4,18.5,10.5l34.4,59c3.8,6.5,3.8,14.5,0,21l-9.9,16.9l-24.6,42.2
	l0,0c-3.8,6.5-10.9,10.5-18.5,10.5h-34.3v4.3h57.4c0-3.6,0.9-7.3,2.9-10.5l9.9-16.9l24.6-42.2l0,0c3.8-6.5,10.9-10.5,18.5-10.5h68.8
	c7.6,0,14.7,4,18.5,10.5l34.4,59c1.9,3.2,2.9,6.9,2.9,10.5h57.3V2404.5z M1681.3,2320.2h-68.8c-7.6,0-14.7-4-18.5-10.5l-34.4-59
	c-3.8-6.5-3.8-14.5,0-21l34.4-59c3.8-6.5,10.9-10.5,18.5-10.5h68.8c7.6,0,14.7,4,18.5,10.5l34.4,59c3.8,6.5,3.8,14.5,0,21l-34.4,59
	C1696,2316.1,1688.9,2320.2,1681.3,2320.2z"/>
<path class="st0" d="M2384.6,2404.5h-34.4c-7.6,0-14.7-4-18.5-10.5l-34.4-59c-3.8-6.5-3.8-14.5,0-21l34.4-59
	c3.8-6.5,10.9-10.5,18.5-10.5h34.4v-8.5h-34.4c-7.6,0-14.7-4-18.5-10.5l-34.4-59c-3.8-6.5-3.8-14.5,0-21l34.4-59
	c3.8-6.5,10.9-10.5,18.5-10.5h34.4v-4.3h-57.4c0,3.6-0.9,7.3-2.9,10.5l-34.4,59c-3.8,6.5-10.9,10.5-18.5,10.5h-68.8
	c-7.6,0-14.7-4-18.5-10.5l-34.4-59c-1.9-3.3-2.9-6.9-2.9-10.5h-57.4v4.2h34.4c7.6,0,14.7,4,18.5,10.5l34.4,59c3.8,6.5,3.8,14.5,0,21
	l-34.4,59c-3.8,6.5-10.9,10.5-18.5,10.5h-34.4v8.5h34.4c7.6,0,14.7,4,18.5,10.5l34.4,59c3.8,6.5,3.8,14.5,0,21l-9.9,16.9l-24.6,42.2
	l0,0c-3.8,6.5-10.9,10.5-18.5,10.5h-34.3v4.3h57.4c0-3.6,0.9-7.3,2.9-10.5l9.9-16.9l24.6-42.2l0,0c3.8-6.5,10.9-10.5,18.5-10.5h68.8
	c7.6,0,14.7,4,18.5,10.5l34.4,59c1.9,3.2,2.9,6.9,2.9,10.5h57.3V2404.5z M2271.5,2320.2h-68.8c-7.6,0-14.7-4-18.5-10.5l-34.4-59
	c-3.8-6.5-3.8-14.5,0-21l34.4-59c3.8-6.5,10.9-10.5,18.5-10.5h68.8c7.6,0,14.7,4,18.5,10.5l34.4,59c3.8,6.5,3.8,14.5,0,21l-34.4,59
	C2286.2,2316.1,2279.1,2320.2,2271.5,2320.2z"/>
<path class="st1" d="M1204.3,2404.5h-34.4c-7.6,0-14.7-4-18.5-10.5l-34.4-59c-3.8-6.5-3.8-14.5,0-21l34.4-59
	c3.8-6.5,10.9-10.5,18.5-10.5h34.4v-8.5h-34.4c-7.6,0-14.7-4-18.5-10.5l-34.4-59c-3.8-6.5-3.8-14.5,0-21l34.4-59
	c3.8-6.5,10.9-10.5,18.5-10.5h34.4v-4.3h-57.4c0,3.6-0.9,7.3-2.9,10.5l-34.4,59c-3.8,6.5-10.9,10.5-18.5,10.5h-68.8
	c-7.6,0-14.7-4-18.5-10.5l-34.4-59c-1.9-3.3-2.9-6.9-2.9-10.5h-57.4v4.2h34.4c7.6,0,14.7,4,18.5,10.5l34.4,59c3.8,6.5,3.8,14.5,0,21
	l-34.4,59c-3.8,6.5-10.9,10.5-18.5,10.5h-34.4v8.5h34.4c7.6,0,14.7,4,18.5,10.5l34.4,59c3.8,6.5,3.8,14.5,0,21l-9.9,16.9l-24.6,42.2
	l0,0c-3.8,6.5-10.9,10.5-18.5,10.5h-34.3v4.3h57.4c0-3.6,0.9-7.3,2.9-10.5l9.9-16.9l24.6-42.2l0,0c3.8-6.5,10.9-10.5,18.5-10.5h68.8
	c7.6,0,14.7,4,18.5,10.5l34.4,59c1.9,3.2,2.9,6.9,2.9,10.5h57.3V2404.5z M1091.2,2320.2h-68.8c-7.6,0-14.7-4-18.5-10.5l-34.4-59
	c-3.8-6.5-3.8-14.5,0-21l34.4-59c3.8-6.5,10.9-10.5,18.5-10.5h68.8c7.6,0,14.7,4,18.5,10.5l34.4,59c3.8,6.5,3.8,14.5,0,21l-34.4,59
	C1105.9,2316.1,1098.8,2320.2,1091.2,2320.2z"/>
<path class="st2" d="M909.3,2404.5h-34.4c-7.6,0-14.7-4-18.5-10.5l-34.4-59c-3.8-6.5-3.8-14.5,0-21l34.4-59
	c3.8-6.5,10.9-10.5,18.5-10.5h34.4v-8.5h-34.4c-7.6,0-14.7-4-18.5-10.5l-34.4-59c-3.8-6.5-3.8-14.5,0-21l34.4-59
	c3.8-6.5,10.9-10.5,18.5-10.5h34.4v-4.3h-57.4c0,3.6-0.9,7.3-2.9,10.5l-34.4,59c-3.8,6.5-10.9,10.5-18.5,10.5h-68.8
	c-7.6,0-14.7-4-18.5-10.5l-34.4-59c-1.9-3.3-2.9-6.9-2.9-10.5h-57.4v4.2h34.4c7.6,0,14.7,4,18.5,10.5l34.4,59c3.8,6.5,3.8,14.5,0,21
	l-34.4,59c-3.8,6.5-10.9,10.5-18.5,10.5h-34.4v8.5h34.4c7.6,0,14.7,4,18.5,10.5l34.4,59c3.8,6.5,3.8,14.5,0,21l-9.9,16.9l-24.6,42.2
	l0,0c-3.8,6.5-10.9,10.5-18.5,10.5h-34.3v4.3h57.4c0-3.6,0.9-7.3,2.9-10.5l9.9-16.9l24.6-42.2l0,0c3.8-6.5,10.9-10.5,18.5-10.5h68.8
	c7.6,0,14.7,4,18.5,10.5l34.4,59c1.9,3.2,2.9,6.9,2.9,10.5h57.3V2404.5z M796.1,2320.2h-68.8c-7.6,0-14.7-4-18.5-10.5l-34.4-59
	c-3.8-6.5-3.8-14.5,0-21l34.4-59c3.8-6.5,10.9-10.5,18.5-10.5h68.8c7.6,0,14.7,4,18.5,10.5l34.4,59c3.8,6.5,3.8,14.5,0,21l-34.4,59
	C810.8,2316.1,803.7,2320.2,796.1,2320.2z"/>
<path class="st3" d="M3859,2404.5h-34.4c-7.6,0-14.7-4-18.5-10.5l-34.4-59c-3.8-6.5-3.8-14.5,0-21l34.4-59
	c3.8-6.5,10.9-10.5,18.5-10.5h34.4v-8.5h-34.4c-7.6,0-14.7-4-18.5-10.5l-34.4-59c-3.8-6.5-3.8-14.5,0-21l34.4-59
	c3.8-6.5,10.9-10.5,18.5-10.5h34.4v-4.3h-57.4c0,3.6-0.9,7.3-2.9,10.5l-34.4,59c-3.8,6.5-10.9,10.5-18.5,10.5h-68.8
	c-7.6,0-14.7-4-18.5-10.5l-34.4-59c-1.9-3.3-2.9-6.9-2.9-10.5h-57.4v4.2h34.4c7.6,0,14.7,4,18.5,10.5l34.4,59c3.8,6.5,3.8,14.5,0,21
	l-34.4,59c-3.8,6.5-10.9,10.5-18.5,10.5h-34.4v8.5h34.4c7.6,0,14.7,4,18.5,10.5l34.4,59c3.8,6.5,3.8,14.5,0,21l-9.9,16.9l-24.6,42.2
	l0,0c-3.8,6.5-10.9,10.5-18.5,10.5h-34.3v4.3h57.4c0-3.6,0.9-7.3,2.9-10.5l9.9-16.9l24.6-42.2l0,0c3.8-6.5,10.9-10.5,18.5-10.5h68.8
	c7.6,0,14.7,4,18.5,10.5l34.4,59c1.9,3.2,2.9,6.9,2.9,10.5h57.3V2404.5z M3745.9,2320.2h-68.8c-7.6,0-14.7-4-18.5-10.5l-34.4-59
	c-3.8-6.5-3.8-14.5,0-21l34.4-59c3.8-6.5,10.9-10.5,18.5-10.5h68.8c7.6,0,14.7,4,18.5,10.5l34.4,59c3.8,6.5,3.8,14.5,0,21l-34.4,59
	C3760.5,2316.2,3753.5,2320.2,3745.9,2320.2z"/>
<path class="st4" d="M3563.9,2404.5h-34.4c-7.6,0-14.7-4-18.5-10.5l-34.4-59c-3.8-6.5-3.8-14.5,0-21l34.4-59
	c3.8-6.5,10.9-10.5,18.5-10.5h34.4v-8.5h-34.4c-7.6,0-14.7-4-18.5-10.5l-34.4-59c-3.8-6.5-3.8-14.5,0-21l34.4-59
	c3.8-6.5,10.9-10.5,18.5-10.5h34.4v-4.3h-57.4c0,3.6-0.9,7.3-2.9,10.5l-34.4,59c-3.8,6.5-10.9,10.5-18.5,10.5H3382
	c-7.6,0-14.7-4-18.5-10.5l-34.4-59c-1.9-3.3-2.9-6.9-2.9-10.5h-57.4v4.2h34.4c7.6,0,14.7,4,18.5,10.5l34.4,59c3.8,6.5,3.8,14.5,0,21
	l-34.4,59c-3.8,6.5-10.9,10.5-18.5,10.5h-34.4v8.5h34.4c7.6,0,14.7,4,18.5,10.5l34.4,59c3.8,6.5,3.8,14.5,0,21l-9.9,16.9l-24.6,42.2
	l0,0c-3.8,6.5-10.9,10.5-18.5,10.5h-34.3v4.3h57.4c0-3.6,0.9-7.3,2.9-10.5l9.9-16.9l24.6-42.2l0,0c3.8-6.5,10.9-10.5,18.5-10.5h68.8
	c7.6,0,14.7,4,18.5,10.5l34.4,59c1.9,3.2,2.9,6.9,2.9,10.5h57.3V2404.5z M3450.8,2320.2H3382c-7.6,0-14.7-4-18.5-10.5l-34.4-59
	c-3.8-6.5-3.8-14.5,0-21l34.4-59c3.8-6.5,10.9-10.5,18.5-10.5h68.8c7.6,0,14.7,4,18.5,10.5l34.4,59c3.8,6.5,3.8,14.5,0,21l-34.4,59
	C3465.5,2316.2,3458.4,2320.2,3450.8,2320.2z"/>
<path class="st4" d="M614.2,2404.5h-34.4c-7.6,0-14.7-4-18.5-10.5l-34.4-59c-3.8-6.5-3.8-14.5,0-21l34.4-59
	c3.8-6.5,10.9-10.5,18.5-10.5h34.4v-8.5h-34.4c-7.6,0-14.7-4-18.5-10.5l-34.4-59c-3.8-6.5-3.8-14.5,0-21l34.4-59
	c3.8-6.5,10.9-10.5,18.5-10.5h34.4v-4.3h-57.4c0,3.6-0.9,7.3-2.9,10.5l-34.4,59c-3.8,6.5-10.9,10.5-18.5,10.5h-68.8
	c-7.6,0-14.7-4-18.5-10.5l-34.4-59c-1.9-3.3-2.9-6.9-2.9-10.5h-57.4v4.2h34.4c7.6,0,14.7,4,18.5,10.5l34.4,59c3.8,6.5,3.8,14.5,0,21
	l-34.4,59c-3.8,6.5-10.9,10.5-18.5,10.5h-34.4v8.5h34.4c7.6,0,14.7,4,18.5,10.5l34.4,59c3.8,6.5,3.8,14.5,0,21l-9.9,16.9l-24.6,42.2
	l0,0c-3.8,6.5-10.9,10.5-18.5,10.5h-34.3v4.3h57.4c0-3.6,0.9-7.3,2.9-10.5l9.9-16.9l24.6-42.2l0,0c3.8-6.5,10.9-10.5,18.5-10.5h68.8
	c7.6,0,14.7,4,18.5,10.5l34.4,59c1.9,3.2,2.9,6.9,2.9,10.5h57.3V2404.5z M501,2320.2h-68.8c-7.6,0-14.7-4-18.5-10.5l-34.4-59
	c-3.8-6.5-3.8-14.5,0-21l34.4-59c3.8-6.5,10.9-10.5,18.5-10.5H501c7.6,0,14.7,4,18.5,10.5l34.4,59c3.8,6.5,3.8,14.5,0,21l-34.4,59
	C515.7,2316.1,508.6,2320.2,501,2320.2z"/>
<path class="st3" d="M319.1,2404.5h-34.4c-7.6,0-14.7-4-18.5-10.5l-34.4-59c-3.8-6.5-3.8-14.5,0-21l34.4-59
	c3.8-6.5,10.9-10.5,18.5-10.5h34.4v-8.5h-34.4c-7.6,0-14.7-4-18.5-10.5l-34.4-59c-3.8-6.5-3.8-14.5,0-21l34.4-59
	c3.8-6.5,10.9-10.5,18.5-10.5h34.4v-4.3h-57.4c0,3.6-0.9,7.3-2.9,10.5l-34.4,59c-3.8,6.5-10.9,10.5-18.5,10.5h-68.8
	c-7.6,0-14.7-4-18.5-10.5l-34.4-59c-1.9-3.3-2.9-6.9-2.9-10.5H24v4.2h34.4c7.6,0,14.7,4,18.5,10.5l34.4,59c3.8,6.5,3.8,14.5,0,21
	l-34.4,59c-3.8,6.5-10.9,10.5-18.5,10.5H24v8.5h34.4c7.6,0,14.7,4,18.5,10.5l34.4,59c3.8,6.5,3.8,14.5,0,21l-9.9,16.9l-24.6,42.2
	l0,0c-3.8,6.5-10.9,10.5-18.5,10.5H24v4.3h57.4c0-3.6,0.9-7.3,2.9-10.5l9.9-16.9l24.6-42.2l0,0c3.8-6.5,10.9-10.5,18.5-10.5h68.8
	c7.6,0,14.7,4,18.5,10.5l34.4,59c1.9,3.2,2.9,6.9,2.9,10.5h57.3V2404.5z M206,2320.2h-68.8c-7.6,0-14.7-4-18.5-10.5l-34.4-59
	c-3.8-6.5-3.8-14.5,0-21l34.4-59c3.8-6.5,10.9-10.5,18.5-10.5H206c7.6,0,14.7,4,18.5,10.5l34.4,59c3.8,6.5,3.8,14.5,0,21l-34.4,59
	C220.6,2316.1,213.6,2320.2,206,2320.2z"/>
<path class="st5" d="M1499.4,2404.5H1465c-7.6,0-14.7-4-18.5-10.5l-34.4-59c-3.8-6.5-3.8-14.5,0-21l34.4-59
	c3.8-6.5,10.9-10.5,18.5-10.5h34.4v-8.5H1465c-7.6,0-14.7-4-18.5-10.5l-34.4-59c-3.8-6.5-3.8-14.5,0-21l34.4-59
	c3.8-6.5,10.9-10.5,18.5-10.5h34.4v-4.3H1442c0,3.6-0.9,7.3-2.9,10.5l-34.4,59c-3.8,6.5-10.9,10.5-18.5,10.5h-68.8
	c-7.6,0-14.7-4-18.5-10.5l-34.4-59c-1.9-3.3-2.9-6.9-2.9-10.5h-57.4v4.2h34.4c7.6,0,14.7,4,18.5,10.5l34.4,59c3.8,6.5,3.8,14.5,0,21
	l-34.4,59c-3.8,6.5-10.9,10.5-18.5,10.5h-34.4v8.5h34.4c7.6,0,14.7,4,18.5,10.5l34.4,59c3.8,6.5,3.8,14.5,0,21l-9.9,16.9l-24.6,42.2
	l0,0c-3.8,6.5-10.9,10.5-18.5,10.5h-34.3v4.3h57.4c0-3.6,0.9-7.3,2.9-10.5l9.9-16.9l24.6-42.2l0,0c3.8-6.5,10.9-10.5,18.5-10.5h68.8
	c7.6,0,14.7,4,18.5,10.5l34.4,59c1.9,3.2,2.9,6.9,2.9,10.5h57.3V2404.5z M1386.3,2320.2h-68.8c-7.6,0-14.7-4-18.5-10.5l-34.4-59
	c-3.8-6.5-3.8-14.5,0-21l34.4-59c3.8-6.5,10.9-10.5,18.5-10.5h68.8c7.6,0,14.7,4,18.5,10.5l34.4,59c3.8,6.5,3.8,14.5,0,21l-34.4,59
	C1400.9,2316.1,1393.9,2320.2,1386.3,2320.2z"/>
<path class="st1" d="M2973.8,2404.5h-34.4c-7.6,0-14.7-4-18.5-10.5l-34.4-59c-3.8-6.5-3.8-14.5,0-21l34.4-59
	c3.8-6.5,10.9-10.5,18.5-10.5h34.4v-8.5h-34.4c-7.6,0-14.7-4-18.5-10.5l-34.4-59c-3.8-6.5-3.8-14.5,0-21l34.4-59
	c3.8-6.5,10.9-10.5,18.5-10.5h34.4v-4.3h-57.4c0,3.6-0.9,7.3-2.9,10.5l-34.4,59c-3.8,6.5-10.9,10.5-18.5,10.5h-68.8
	c-7.6,0-14.7-4-18.5-10.5l-34.4-59c-1.9-3.3-2.9-6.9-2.9-10.5h-57.4v4.2h34.4c7.6,0,14.7,4,18.5,10.5l34.4,59c3.8,6.5,3.8,14.5,0,21
	l-34.4,59c-3.8,6.5-10.9,10.5-18.5,10.5h-34.4v8.5h34.4c7.6,0,14.7,4,18.5,10.5l34.4,59c3.8,6.5,3.8,14.5,0,21l-9.9,16.9l-24.6,42.2
	l0,0c-3.8,6.5-10.9,10.5-18.5,10.5h-34.3v4.3h57.4c0-3.6,0.9-7.3,2.9-10.5l9.9-16.9l24.6-42.2l0,0c3.8-6.5,10.9-10.5,18.5-10.5h68.8
	c7.6,0,14.7,4,18.5,10.5l34.4,59c1.9,3.2,2.9,6.9,2.9,10.5h57.3V2404.5z M2860.6,2320.2h-68.8c-7.6,0-14.7-4-18.5-10.5l-34.4-59
	c-3.8-6.5-3.8-14.5,0-21l34.4-59c3.8-6.5,10.9-10.5,18.5-10.5h68.8c7.6,0,14.7,4,18.5,10.5l34.4,59c3.8,6.5,3.8,14.5,0,21l-34.4,59
	C2875.3,2316.1,2868.2,2320.2,2860.6,2320.2z"/>
<path class="st5" d="M2678.7,2404.5h-34.4c-7.6,0-14.7-4-18.5-10.5l-34.4-59c-3.8-6.5-3.8-14.5,0-21l34.4-59
	c3.8-6.5,10.9-10.5,18.5-10.5h34.4v-8.5h-34.4c-7.6,0-14.7-4-18.5-10.5l-34.4-59c-3.8-6.5-3.8-14.5,0-21l34.4-59
	c3.8-6.5,10.9-10.5,18.5-10.5h34.4v-4.3h-57.4c0,3.6-0.9,7.3-2.9,10.5l-34.4,59c-3.8,6.5-10.9,10.5-18.5,10.5h-68.8
	c-7.6,0-14.7-4-18.5-10.5l-34.4-59c-1.9-3.3-2.9-6.9-2.9-10.5h-57.4v4.2h34.4c7.6,0,14.7,4,18.5,10.5l34.4,59c3.8,6.5,3.8,14.5,0,21
	l-34.4,59c-3.8,6.5-10.9,10.5-18.5,10.5h-34.4v8.5h34.4c7.6,0,14.7,4,18.5,10.5l34.4,59c3.8,6.5,3.8,14.5,0,21l-9.9,16.9l-24.6,42.2
	l0,0c-3.8,6.5-10.9,10.5-18.5,10.5h-34.3v4.3h57.4c0-3.6,0.9-7.3,2.9-10.5l9.9-16.9l24.6-42.2l0,0c3.8-6.5,10.9-10.5,18.5-10.5h68.8
	c7.6,0,14.7,4,18.5,10.5l34.4,59c1.9,3.2,2.9,6.9,2.9,10.5h57.3V2404.5z M2565.6,2320.2h-68.8c-7.6,0-14.7-4-18.5-10.5l-34.4-59
	c-3.8-6.5-3.8-14.5,0-21l34.4-59c3.8-6.5,10.9-10.5,18.5-10.5h68.8c7.6,0,14.7,4,18.5,10.5l34.4,59c3.8,6.5,3.8,14.5,0,21l-34.4,59
	C2580.2,2316.1,2573.2,2320.2,2565.6,2320.2z"/>
<path class="st2" d="M3268.9,2404.5h-34.4c-7.6,0-14.7-4-18.5-10.5l-34.4-59c-3.8-6.5-3.8-14.5,0-21l34.4-59
	c3.8-6.5,10.9-10.5,18.5-10.5h34.4v-8.5h-34.4c-7.6,0-14.7-4-18.5-10.5l-34.4-59c-3.8-6.5-3.8-14.5,0-21l34.4-59
	c3.8-6.5,10.9-10.5,18.5-10.5h34.4v-4.3h-57.4c0,3.6-0.9,7.3-2.9,10.5l-34.4,59c-3.8,6.5-10.9,10.5-18.5,10.5h-68.8
	c-7.6,0-14.7-4-18.5-10.5l-34.4-59c-1.9-3.3-2.9-6.9-2.9-10.5h-57.4v4.2h34.4c7.6,0,14.7,4,18.5,10.5l34.4,59c3.8,6.5,3.8,14.5,0,21
	l-34.4,59c-3.8,6.5-10.9,10.5-18.5,10.5h-34.4v8.5h34.4c7.6,0,14.7,4,18.5,10.5l34.4,59c3.8,6.5,3.8,14.5,0,21l-9.9,16.9l-24.6,42.2
	l0,0c-3.8,6.5-10.9,10.5-18.5,10.5h-34.3v4.3h57.4c0-3.6,0.9-7.3,2.9-10.5l9.9-16.9l24.6-42.2l0,0c3.8-6.5,10.9-10.5,18.5-10.5h68.8
	c7.6,0,14.7,4,18.5,10.5l34.4,59c1.9,3.2,2.9,6.9,2.9,10.5h57.3V2404.5z M3155.7,2320.2h-68.8c-7.6,0-14.7-4-18.5-10.5l-34.4-59
	c-3.8-6.5-3.8-14.5,0-21l34.4-59c3.8-6.5,10.9-10.5,18.5-10.5h68.8c7.6,0,14.7,4,18.5,10.5l34.4,59c3.8,6.5,3.8,14.5,0,21l-34.4,59
	C3170.4,2316.1,3163.3,2320.2,3155.7,2320.2z"/>
<path class="st0" d="M2090.1,2067.2h-34.4c-7.6,0-14.7-4-18.5-10.5l-34.4-59c-3.8-6.5-3.8-14.5,0-21l34.4-59
	c3.8-6.5,10.9-10.5,18.5-10.5h34.4v-8.5h-34.4c-7.6,0-14.7-4-18.5-10.5l-34.4-59c-3.8-6.5-3.8-14.5,0-21l34.4-59
	c3.8-6.5,10.9-10.5,18.5-10.5h34.4v-4.3h-57.4c0,3.6-0.9,7.3-2.9,10.5l-34.4,59c-3.8,6.5-10.9,10.5-18.5,10.5h-68.8
	c-7.6,0-14.7-4-18.5-10.5l-34.4-59c-1.9-3.3-2.9-6.9-2.9-10.5H1795v4.2h34.4c7.6,0,14.7,4,18.5,10.5l34.4,59c3.8,6.5,3.8,14.5,0,21
	l-34.4,59c-3.8,6.5-10.9,10.5-18.5,10.5H1795v8.5h34.4c7.6,0,14.7,4,18.5,10.5l34.4,59c3.8,6.5,3.8,14.5,0,21l-9.9,16.9l-24.6,42.2
	l0,0c-3.8,6.5-10.9,10.5-18.5,10.5H1795v4.3h57.4c0-3.6,0.9-7.3,2.9-10.5l9.9-16.9l24.6-42.2l0,0c3.8-6.5,10.9-10.5,18.5-10.5h68.8
	c7.6,0,14.7,4,18.5,10.5l34.4,59c1.9,3.2,2.9,6.9,2.9,10.5h57.3V2067.2z M1976.9,1982.9h-68.8c-7.6,0-14.7-4-18.5-10.5l-34.4-59
	c-3.8-6.5-3.8-14.5,0-21l34.4-59c3.8-6.5,10.9-10.5,18.5-10.5h68.8c7.6,0,14.7,4,18.5,10.5l34.4,59c3.8,6.5,3.8,14.5,0,21l-34.4,59
	C1991.6,1978.8,1984.5,1982.9,1976.9,1982.9z"/>
<path class="st5" d="M1795,2067.2h-34.4c-7.6,0-14.7-4-18.5-10.5l-34.4-59c-3.8-6.5-3.8-14.5,0-21l34.4-59
	c3.8-6.5,10.9-10.5,18.5-10.5h34.4v-8.5h-34.4c-7.6,0-14.7-4-18.5-10.5l-34.4-59c-3.8-6.5-3.8-14.5,0-21l34.4-59
	c3.8-6.5,10.9-10.5,18.5-10.5h34.4v-4.3h-57.4c0,3.6-0.9,7.3-2.9,10.5l-34.4,59c-3.8,6.5-10.9,10.5-18.5,10.5h-68.8
	c-7.6,0-14.7-4-18.5-10.5l-34.4-59c-1.9-3.3-2.9-6.9-2.9-10.5h-57.4v4.2h34.4c7.6,0,14.7,4,18.5,10.5l34.4,59c3.8,6.5,3.8,14.5,0,21
	l-34.4,59c-3.8,6.5-10.9,10.5-18.5,10.5h-34.4v8.5h34.4c7.6,0,14.7,4,18.5,10.5l34.4,59c3.8,6.5,3.8,14.5,0,21l-9.9,16.9l-24.6,42.2
	l0,0c-3.8,6.5-10.9,10.5-18.5,10.5h-34.3v4.3h57.4c0-3.6,0.9-7.3,2.9-10.5l9.9-16.9l24.6-42.2l0,0c3.8-6.5,10.9-10.5,18.5-10.5h68.8
	c7.6,0,14.7,4,18.5,10.5l34.4,59c1.9,3.2,2.9,6.9,2.9,10.5h57.3V2067.2z M1681.8,1982.9h-68.8c-7.6,0-14.7-4-18.5-10.5l-34.4-59
	c-3.8-6.5-3.8-14.5,0-21l34.4-59c3.8-6.5,10.9-10.5,18.5-10.5h68.8c7.6,0,14.7,4,18.5,10.5l34.4,59c3.8,6.5,3.8,14.5,0,21l-34.4,59
	C1696.5,1978.8,1689.4,1982.9,1681.8,1982.9z"/>
<path class="st5" d="M2385.1,2067.2h-34.4c-7.6,0-14.7-4-18.5-10.5l-34.4-59c-3.8-6.5-3.8-14.5,0-21l34.4-59
	c3.8-6.5,10.9-10.5,18.5-10.5h34.4v-8.5h-34.4c-7.6,0-14.7-4-18.5-10.5l-34.4-59c-3.8-6.5-3.8-14.5,0-21l34.4-59
	c3.8-6.5,10.9-10.5,18.5-10.5h34.4v-4.3h-57.4c0,3.6-0.9,7.3-2.9,10.5l-34.4,59c-3.8,6.5-10.9,10.5-18.5,10.5h-68.8
	c-7.6,0-14.7-4-18.5-10.5l-34.4-59c-1.9-3.3-2.9-6.9-2.9-10.5h-57.4v4.2h34.4c7.6,0,14.7,4,18.5,10.5l34.4,59c3.8,6.5,3.8,14.5,0,21
	l-34.4,59c-3.8,6.5-10.9,10.5-18.5,10.5h-34.4v8.5h34.4c7.6,0,14.7,4,18.5,10.5l34.4,59c3.8,6.5,3.8,14.5,0,21l-9.9,16.9l-24.6,42.2
	l0,0c-3.8,6.5-10.9,10.5-18.5,10.5h-34.3v4.3h57.4c0-3.6,0.9-7.3,2.9-10.5l9.9-16.9l24.6-42.2l0,0c3.8-6.5,10.9-10.5,18.5-10.5h68.8
	c7.6,0,14.7,4,18.5,10.5l34.4,59c1.9,3.2,2.9,6.9,2.9,10.5h57.3V2067.2z M2272,1982.9h-68.8c-7.6,0-14.7-4-18.5-10.5l-34.4-59
	c-3.8-6.5-3.8-14.5,0-21l34.4-59c3.8-6.5,10.9-10.5,18.5-10.5h68.8c7.6,0,14.7,4,18.5,10.5l34.4,59c3.8,6.5,3.8,14.5,0,21l-34.4,59
	C2286.7,1978.8,2279.6,1982.9,2272,1982.9z"/>
<path class="st2" d="M1204.8,2067.2h-34.4c-7.6,0-14.7-4-18.5-10.5l-34.4-59c-3.8-6.5-3.8-14.5,0-21l34.4-59
	c3.8-6.5,10.9-10.5,18.5-10.5h34.4v-8.5h-34.4c-7.6,0-14.7-4-18.5-10.5l-34.4-59c-3.8-6.5-3.8-14.5,0-21l34.4-59
	c3.8-6.5,10.9-10.5,18.5-10.5h34.4v-4.3h-57.4c0,3.6-0.9,7.3-2.9,10.5l-34.4,59c-3.8,6.5-10.9,10.5-18.5,10.5h-68.8
	c-7.6,0-14.7-4-18.5-10.5l-34.4-59c-1.9-3.3-2.9-6.9-2.9-10.5h-57.4v4.2h34.4c7.6,0,14.7,4,18.5,10.5l34.4,59c3.8,6.5,3.8,14.5,0,21
	l-34.4,59c-3.8,6.5-10.9,10.5-18.5,10.5h-34.4v8.5h34.4c7.6,0,14.7,4,18.5,10.5l34.4,59c3.8,6.5,3.8,14.5,0,21l-9.9,16.9l-24.6,42.2
	l0,0c-3.8,6.5-10.9,10.5-18.5,10.5h-34.3v4.3h57.4c0-3.6,0.9-7.3,2.9-10.5l9.9-16.9l24.6-42.2l0,0c3.8-6.5,10.9-10.5,18.5-10.5h68.8
	c7.6,0,14.7,4,18.5,10.5l34.4,59c1.9,3.2,2.9,6.9,2.9,10.5h57.3V2067.2z M1091.7,1982.9h-68.8c-7.6,0-14.7-4-18.5-10.5l-34.4-59
	c-3.8-6.5-3.8-14.5,0-21l34.4-59c3.8-6.5,10.9-10.5,18.5-10.5h68.8c7.6,0,14.7,4,18.5,10.5l34.4,59c3.8,6.5,3.8,14.5,0,21l-34.4,59
	C1106.4,1978.8,1099.3,1982.9,1091.7,1982.9z"/>
<path class="st4" d="M909.8,2067.2h-34.4c-7.6,0-14.7-4-18.5-10.5l-34.4-59c-3.8-6.5-3.8-14.5,0-21l34.4-59
	c3.8-6.5,10.9-10.5,18.5-10.5h34.4v-8.5h-34.4c-7.6,0-14.7-4-18.5-10.5l-34.4-59c-3.8-6.5-3.8-14.5,0-21l34.4-59
	c3.8-6.5,10.9-10.5,18.5-10.5h34.4v-4.3h-57.4c0,3.6-0.9,7.3-2.9,10.5l-34.4,59c-3.8,6.5-10.9,10.5-18.5,10.5h-68.8
	c-7.6,0-14.7-4-18.5-10.5l-34.4-59c-1.9-3.3-2.9-6.9-2.9-10.5h-57.4v4.2h34.4c7.6,0,14.7,4,18.5,10.5l34.4,59c3.8,6.5,3.8,14.5,0,21
	l-34.4,59c-3.8,6.5-10.9,10.5-18.5,10.5h-34.4v8.5h34.4c7.6,0,14.7,4,18.5,10.5l34.4,59c3.8,6.5,3.8,14.5,0,21l-9.9,16.9l-24.6,42.2
	l0,0c-3.8,6.5-10.9,10.5-18.5,10.5h-34.3v4.3h57.4c0-3.6,0.9-7.3,2.9-10.5l9.9-16.9l24.6-42.2l0,0c3.8-6.5,10.9-10.5,18.5-10.5h68.8
	c7.6,0,14.7,4,18.5,10.5l34.4,59c1.9,3.2,2.9,6.9,2.9,10.5h57.3V2067.2z M796.6,1982.9h-68.8c-7.6,0-14.7-4-18.5-10.5l-34.4-59
	c-3.8-6.5-3.8-14.5,0-21l34.4-59c3.8-6.5,10.9-10.5,18.5-10.5h68.8c7.6,0,14.7,4,18.5,10.5l34.4,59c3.8,6.5,3.8,14.5,0,21l-34.4,59
	C811.3,1978.8,804.2,1982.9,796.6,1982.9z"/>
<path class="st3" d="M3564.4,2067.2H3530c-7.6,0-14.7-4-18.5-10.5l-34.4-59c-3.8-6.5-3.8-14.5,0-21l34.4-59
	c3.8-6.5,10.9-10.5,18.5-10.5h34.4v-8.5H3530c-7.6,0-14.7-4-18.5-10.5l-34.4-59c-3.8-6.5-3.8-14.5,0-21l34.4-59
	c3.8-6.5,10.9-10.5,18.5-10.5h34.4v-4.3H3507c0,3.6-0.9,7.3-2.9,10.5l-34.4,59c-3.8,6.5-10.9,10.5-18.5,10.5h-68.8
	c-7.6,0-14.7-4-18.5-10.5l-34.4-59c-1.9-3.3-2.9-6.9-2.9-10.5h-57.4v4.2h34.4c7.6,0,14.7,4,18.5,10.5l34.4,59c3.8,6.5,3.8,14.5,0,21
	l-34.4,59c-3.8,6.5-10.9,10.5-18.5,10.5h-34.4v8.5h34.4c7.6,0,14.7,4,18.5,10.5l34.4,59c3.8,6.5,3.8,14.5,0,21l-9.9,16.9l-24.6,42.2
	l0,0c-3.8,6.5-10.9,10.5-18.5,10.5h-34.3v4.3h57.4c0-3.6,0.9-7.3,2.9-10.5l9.9-16.9l24.6-42.2l0,0c3.8-6.5,10.9-10.5,18.5-10.5h68.8
	c7.6,0,14.7,4,18.5,10.5l34.4,59c1.9,3.2,2.9,6.9,2.9,10.5h57.3V2067.2z M3451.3,1982.9h-68.8c-7.6,0-14.7-4-18.5-10.5l-34.4-59
	c-3.8-6.5-3.8-14.5,0-21l34.4-59c3.8-6.5,10.9-10.5,18.5-10.5h68.8c7.6,0,14.7,4,18.5,10.5l34.4,59c3.8,6.5,3.8,14.5,0,21l-34.4,59
	C3466,1978.9,3458.9,1982.9,3451.3,1982.9z"/>
<path class="st3" d="M614.7,2067.2h-34.4c-7.6,0-14.7-4-18.5-10.5l-34.4-59c-3.8-6.5-3.8-14.5,0-21l34.4-59
	c3.8-6.5,10.9-10.5,18.5-10.5h34.4v-8.5h-34.4c-7.6,0-14.7-4-18.5-10.5l-34.4-59c-3.8-6.5-3.8-14.5,0-21l34.4-59
	c3.8-6.5,10.9-10.5,18.5-10.5h34.4v-4.3h-57.4c0,3.6-0.9,7.3-2.9,10.5l-34.4,59c-3.8,6.5-10.9,10.5-18.5,10.5h-68.8
	c-7.6,0-14.7-4-18.5-10.5l-34.4-59c-1.9-3.3-2.9-6.9-2.9-10.5h-57.4v4.2H354c7.6,0,14.7,4,18.5,10.5l34.4,59c3.8,6.5,3.8,14.5,0,21
	l-34.4,59c-3.8,6.5-10.9,10.5-18.5,10.5h-34.4v8.5H354c7.6,0,14.7,4,18.5,10.5l34.4,59c3.8,6.5,3.8,14.5,0,21l-9.9,16.9l-24.6,42.2
	l0,0c-3.8,6.5-10.9,10.5-18.5,10.5h-34.3v4.3H377c0-3.6,0.9-7.3,2.9-10.5l9.9-16.9l24.6-42.2l0,0c3.8-6.5,10.9-10.5,18.5-10.5h68.8
	c7.6,0,14.7,4,18.5,10.5l34.4,59c1.9,3.2,2.9,6.9,2.9,10.5h57.3V2067.2z M501.5,1982.9h-68.8c-7.6,0-14.7-4-18.5-10.5l-34.4-59
	c-3.8-6.5-3.8-14.5,0-21l34.4-59c3.8-6.5,10.9-10.5,18.5-10.5h68.8c7.6,0,14.7,4,18.5,10.5l34.4,59c3.8,6.5,3.8,14.5,0,21l-34.4,59
	C516.2,1978.8,509.1,1982.9,501.5,1982.9z"/>
<path class="st1" d="M1499.9,2067.2h-34.4c-7.6,0-14.7-4-18.5-10.5l-34.4-59c-3.8-6.5-3.8-14.5,0-21l34.4-59
	c3.8-6.5,10.9-10.5,18.5-10.5h34.4v-8.5h-34.4c-7.6,0-14.7-4-18.5-10.5l-34.4-59c-3.8-6.5-3.8-14.5,0-21l34.4-59
	c3.8-6.5,10.9-10.5,18.5-10.5h34.4v-4.3h-57.4c0,3.6-0.9,7.3-2.9,10.5l-34.4,59c-3.8,6.5-10.9,10.5-18.5,10.5H1318
	c-7.6,0-14.7-4-18.5-10.5l-34.4-59c-1.9-3.3-2.9-6.9-2.9-10.5h-57.4v4.2h34.4c7.6,0,14.7,4,18.5,10.5l34.4,59c3.8,6.5,3.8,14.5,0,21
	l-34.4,59c-3.8,6.5-10.9,10.5-18.5,10.5h-34.4v8.5h34.4c7.6,0,14.7,4,18.5,10.5l34.4,59c3.8,6.5,3.8,14.5,0,21l-9.9,16.9l-24.6,42.2
	l0,0c-3.8,6.5-10.9,10.5-18.5,10.5h-34.3v4.3h57.4c0-3.6,0.9-7.3,2.9-10.5l9.9-16.9l24.6-42.2l0,0c3.8-6.5,10.9-10.5,18.5-10.5h68.8
	c7.6,0,14.7,4,18.5,10.5l34.4,59c1.9,3.2,2.9,6.9,2.9,10.5h57.3V2067.2z M1386.8,1982.9H1318c-7.6,0-14.7-4-18.5-10.5l-34.4-59
	c-3.8-6.5-3.8-14.5,0-21l34.4-59c3.8-6.5,10.9-10.5,18.5-10.5h68.8c7.6,0,14.7,4,18.5,10.5l34.4,59c3.8,6.5,3.8,14.5,0,21l-34.4,59
	C1401.4,1978.8,1394.4,1982.9,1386.8,1982.9z"/>
<path class="st2" d="M2974.3,2067.2h-34.4c-7.6,0-14.7-4-18.5-10.5l-34.4-59c-3.8-6.5-3.8-14.5,0-21l34.4-59
	c3.8-6.5,10.9-10.5,18.5-10.5h34.4v-8.5h-34.4c-7.6,0-14.7-4-18.5-10.5l-34.4-59c-3.8-6.5-3.8-14.5,0-21l34.4-59
	c3.8-6.5,10.9-10.5,18.5-10.5h34.4v-4.3h-57.4c0,3.6-0.9,7.3-2.9,10.5l-34.4,59c-3.8,6.5-10.9,10.5-18.5,10.5h-68.8
	c-7.6,0-14.7-4-18.5-10.5l-34.4-59c-1.9-3.3-2.9-6.9-2.9-10.5h-57.4v4.2h34.4c7.6,0,14.7,4,18.5,10.5l34.4,59c3.8,6.5,3.8,14.5,0,21
	l-34.4,59c-3.8,6.5-10.9,10.5-18.5,10.5h-34.4v8.5h34.4c7.6,0,14.7,4,18.5,10.5l34.4,59c3.8,6.5,3.8,14.5,0,21l-9.9,16.9l-24.6,42.2
	l0,0c-3.8,6.5-10.9,10.5-18.5,10.5h-34.3v4.3h57.4c0-3.6,0.9-7.3,2.9-10.5l9.9-16.9l24.6-42.2l0,0c3.8-6.5,10.9-10.5,18.5-10.5h68.8
	c7.6,0,14.7,4,18.5,10.5l34.4,59c1.9,3.2,2.9,6.9,2.9,10.5h57.3V2067.2z M2861.1,1982.9h-68.8c-7.6,0-14.7-4-18.5-10.5l-34.4-59
	c-3.8-6.5-3.8-14.5,0-21l34.4-59c3.8-6.5,10.9-10.5,18.5-10.5h68.8c7.6,0,14.7,4,18.5,10.5l34.4,59c3.8,6.5,3.8,14.5,0,21l-34.4,59
	C2875.8,1978.8,2868.7,1982.9,2861.1,1982.9z"/>
<path class="st1" d="M2679.2,2067.2h-34.4c-7.6,0-14.7-4-18.5-10.5l-34.4-59c-3.8-6.5-3.8-14.5,0-21l34.4-59
	c3.8-6.5,10.9-10.5,18.5-10.5h34.4v-8.5h-34.4c-7.6,0-14.7-4-18.5-10.5l-34.4-59c-3.8-6.5-3.8-14.5,0-21l34.4-59
	c3.8-6.5,10.9-10.5,18.5-10.5h34.4v-4.3h-57.4c0,3.6-0.9,7.3-2.9,10.5l-34.4,59c-3.8,6.5-10.9,10.5-18.5,10.5h-68.8
	c-7.6,0-14.7-4-18.5-10.5l-34.4-59c-1.9-3.3-2.9-6.9-2.9-10.5h-57.4v4.2h34.4c7.6,0,14.7,4,18.5,10.5l34.4,59c3.8,6.5,3.8,14.5,0,21
	l-34.4,59c-3.8,6.5-10.9,10.5-18.5,10.5h-34.4v8.5h34.4c7.6,0,14.7,4,18.5,10.5l34.4,59c3.8,6.5,3.8,14.5,0,21l-9.9,16.9l-24.6,42.2
	l0,0c-3.8,6.5-10.9,10.5-18.5,10.5h-34.3v4.3h57.4c0-3.6,0.9-7.3,2.9-10.5l9.9-16.9l24.6-42.2l0,0c3.8-6.5,10.9-10.5,18.5-10.5h68.8
	c7.6,0,14.7,4,18.5,10.5l34.4,59c1.9,3.2,2.9,6.9,2.9,10.5h57.3V2067.2z M2566.1,1982.9h-68.8c-7.6,0-14.7-4-18.5-10.5l-34.4-59
	c-3.8-6.5-3.8-14.5,0-21l34.4-59c3.8-6.5,10.9-10.5,18.5-10.5h68.8c7.6,0,14.7,4,18.5,10.5l34.4,59c3.8,6.5,3.8,14.5,0,21l-34.4,59
	C2580.7,1978.8,2573.7,1982.9,2566.1,1982.9z"/>
<path class="st4" d="M3269.4,2067.2H3235c-7.6,0-14.7-4-18.5-10.5l-34.4-59c-3.8-6.5-3.8-14.5,0-21l34.4-59
	c3.8-6.5,10.9-10.5,18.5-10.5h34.4v-8.5H3235c-7.6,0-14.7-4-18.5-10.5l-34.4-59c-3.8-6.5-3.8-14.5,0-21l34.4-59
	c3.8-6.5,10.9-10.5,18.5-10.5h34.4v-4.3h-57.4c0,3.6-0.9,7.3-2.9,10.5l-34.4,59c-3.8,6.5-10.9,10.5-18.5,10.5h-68.8
	c-7.6,0-14.7-4-18.5-10.5l-34.4-59c-1.9-3.3-2.9-6.9-2.9-10.5h-57.4v4.2h34.4c7.6,0,14.7,4,18.5,10.5l34.4,59c3.8,6.5,3.8,14.5,0,21
	l-34.4,59c-3.8,6.5-10.9,10.5-18.5,10.5h-34.4v8.5h34.4c7.6,0,14.7,4,18.5,10.5l34.4,59c3.8,6.5,3.8,14.5,0,21l-9.9,16.9l-24.6,42.2
	l0,0c-3.8,6.5-10.9,10.5-18.5,10.5h-34.3v4.3h57.4c0-3.6,0.9-7.3,2.9-10.5l9.9-16.9l24.6-42.2l0,0c3.8-6.5,10.9-10.5,18.5-10.5h68.8
	c7.6,0,14.7,4,18.5,10.5l34.4,59c1.9,3.2,2.9,6.9,2.9,10.5h57.3V2067.2z M3156.2,1982.9h-68.8c-7.6,0-14.7-4-18.5-10.5l-34.4-59
	c-3.8-6.5-3.8-14.5,0-21l34.4-59c3.8-6.5,10.9-10.5,18.5-10.5h68.8c7.6,0,14.7,4,18.5,10.5l34.4,59c3.8,6.5,3.8,14.5,0,21l-34.4,59
	C3170.9,1978.8,3163.8,1982.9,3156.2,1982.9z"/>
<path class="st5" d="M2090.6,1730h-34.4c-7.6,0-14.7-4-18.5-10.5l-34.4-59c-3.8-6.5-3.8-14.5,0-21l34.4-59
	c3.8-6.5,10.9-10.5,18.5-10.5h34.4v-8.5h-34.4c-7.6,0-14.7-4-18.5-10.5l-34.4-59c-3.8-6.5-3.8-14.5,0-21l34.4-59
	c3.8-6.5,10.9-10.5,18.5-10.5h34.4v-4.3h-57.4c0,3.6-0.9,7.3-2.9,10.5l-34.4,59c-3.8,6.5-10.9,10.5-18.5,10.5h-68.8
	c-7.6,0-14.7-4-18.5-10.5l-34.4-59c-1.9-3.3-2.9-6.9-2.9-10.5h-57.4v4.2h34.4c7.6,0,14.7,4,18.5,10.5l34.4,59c3.8,6.5,3.8,14.5,0,21
	l-34.4,59c-3.8,6.5-10.9,10.5-18.5,10.5h-34.4v8.5h34.4c7.6,0,14.7,4,18.5,10.5l34.4,59c3.8,6.5,3.8,14.5,0,21l-9.9,16.9l-24.6,42.2
	l0,0c-3.8,6.5-10.9,10.5-18.5,10.5h-34.3v4.3h57.4c0-3.6,0.9-7.3,2.9-10.5l9.9-16.9l24.6-42.2l0,0c3.8-6.5,10.9-10.5,18.5-10.5h68.8
	c7.6,0,14.7,4,18.5,10.5l34.4,59c1.9,3.2,2.9,6.9,2.9,10.5h57.3V1730z M1977.4,1645.7h-68.8c-7.6,0-14.7-4-18.5-10.5l-34.4-59
	c-3.8-6.5-3.8-14.5,0-21l34.4-59c3.8-6.5,10.9-10.5,18.5-10.5h68.8c7.6,0,14.7,4,18.5,10.5l34.4,59c3.8,6.5,3.8,14.5,0,21l-34.4,59
	C1992.1,1641.6,1985,1645.7,1977.4,1645.7z"/>
<path class="st1" d="M1795.5,1730h-34.4c-7.6,0-14.7-4-18.5-10.5l-34.4-59c-3.8-6.5-3.8-14.5,0-21l34.4-59
	c3.8-6.5,10.9-10.5,18.5-10.5h34.4v-8.5h-34.4c-7.6,0-14.7-4-18.5-10.5l-34.4-59c-3.8-6.5-3.8-14.5,0-21l34.4-59
	c3.8-6.5,10.9-10.5,18.5-10.5h34.4v-4.3h-57.4c0,3.6-0.9,7.3-2.9,10.5l-34.4,59c-3.8,6.5-10.9,10.5-18.5,10.5h-68.8
	c-7.6,0-14.7-4-18.5-10.5l-34.4-59c-1.9-3.3-2.9-6.9-2.9-10.5h-57.4v4.2h34.4c7.6,0,14.7,4,18.5,10.5l34.4,59c3.8,6.5,3.8,14.5,0,21
	l-34.4,59c-3.8,6.5-10.9,10.5-18.5,10.5h-34.4v8.5h34.4c7.6,0,14.7,4,18.5,10.5l34.4,59c3.8,6.5,3.8,14.5,0,21l-9.9,16.9l-24.6,42.2
	l0,0c-3.8,6.5-10.9,10.5-18.5,10.5h-34.3v4.3h57.4c0-3.6,0.9-7.3,2.9-10.5l9.9-16.9l24.6-42.2l0,0c3.8-6.5,10.9-10.5,18.5-10.5h68.8
	c7.6,0,14.7,4,18.5,10.5l34.4,59c1.9,3.2,2.9,6.9,2.9,10.5h57.3V1730z M1682.3,1645.7h-68.8c-7.6,0-14.7-4-18.5-10.5l-34.4-59
	c-3.8-6.5-3.8-14.5,0-21l34.4-59c3.8-6.5,10.9-10.5,18.5-10.5h68.8c7.6,0,14.7,4,18.5,10.5l34.4,59c3.8,6.5,3.8,14.5,0,21l-34.4,59
	C1697,1641.6,1689.9,1645.7,1682.3,1645.7z"/>
<path class="st1" d="M2385.6,1730h-34.4c-7.6,0-14.7-4-18.5-10.5l-34.4-59c-3.8-6.5-3.8-14.5,0-21l34.4-59
	c3.8-6.5,10.9-10.5,18.5-10.5h34.4v-8.5h-34.4c-7.6,0-14.7-4-18.5-10.5l-34.4-59c-3.8-6.5-3.8-14.5,0-21l34.4-59
	c3.8-6.5,10.9-10.5,18.5-10.5h34.4v-4.3h-57.4c0,3.6-0.9,7.3-2.9,10.5l-34.4,59c-3.8,6.5-10.9,10.5-18.5,10.5h-68.8
	c-7.6,0-14.7-4-18.5-10.5l-34.4-59c-1.9-3.3-2.9-6.9-2.9-10.5h-57.4v4.2h34.4c7.6,0,14.7,4,18.5,10.5l34.4,59c3.8,6.5,3.8,14.5,0,21
	l-34.4,59c-3.8,6.5-10.9,10.5-18.5,10.5h-34.4v8.5h34.4c7.6,0,14.7,4,18.5,10.5l34.4,59c3.8,6.5,3.8,14.5,0,21l-9.9,16.9l-24.6,42.2
	l0,0c-3.8,6.5-10.9,10.5-18.5,10.5h-34.3v4.3h57.4c0-3.6,0.9-7.3,2.9-10.5l9.9-16.9l24.6-42.2l0,0c3.8-6.5,10.9-10.5,18.5-10.5h68.8
	c7.6,0,14.7,4,18.5,10.5l34.4,59c1.9,3.2,2.9,6.9,2.9,10.5h57.3V1730z M2272.5,1645.7h-68.8c-7.6,0-14.7-4-18.5-10.5l-34.4-59
	c-3.8-6.5-3.8-14.5,0-21l34.4-59c3.8-6.5,10.9-10.5,18.5-10.5h68.8c7.6,0,14.7,4,18.5,10.5l34.4,59c3.8,6.5,3.8,14.5,0,21l-34.4,59
	C2287.2,1641.6,2280.1,1645.7,2272.5,1645.7z"/>
<path class="st4" d="M1205.3,1730h-34.4c-7.6,0-14.7-4-18.5-10.5l-34.4-59c-3.8-6.5-3.8-14.5,0-21l34.4-59
	c3.8-6.5,10.9-10.5,18.5-10.5h34.4v-8.5h-34.4c-7.6,0-14.7-4-18.5-10.5l-34.4-59c-3.8-6.5-3.8-14.5,0-21l34.4-59
	c3.8-6.5,10.9-10.5,18.5-10.5h34.4v-4.3h-57.4c0,3.6-0.9,7.3-2.9,10.5l-34.4,59c-3.8,6.5-10.9,10.5-18.5,10.5h-68.8
	c-7.6,0-14.7-4-18.5-10.5l-34.4-59c-1.9-3.3-2.9-6.9-2.9-10.5h-57.4v4.2h34.4c7.6,0,14.7,4,18.5,10.5l34.4,59c3.8,6.5,3.8,14.5,0,21
	l-34.4,59c-3.8,6.5-10.9,10.5-18.5,10.5h-34.4v8.5h34.4c7.6,0,14.7,4,18.5,10.5l34.4,59c3.8,6.5,3.8,14.5,0,21l-9.9,16.9l-24.6,42.2
	l0,0c-3.8,6.5-10.9,10.5-18.5,10.5h-34.3v4.3h57.4c0-3.6,0.9-7.3,2.9-10.5l9.9-16.9l24.6-42.2l0,0c3.8-6.5,10.9-10.5,18.5-10.5h68.8
	c7.6,0,14.7,4,18.5,10.5l34.4,59c1.9,3.2,2.9,6.9,2.9,10.5h57.3V1730z M1092.2,1645.7h-68.8c-7.6,0-14.7-4-18.5-10.5l-34.4-59
	c-3.8-6.5-3.8-14.5,0-21l34.4-59c3.8-6.5,10.9-10.5,18.5-10.5h68.8c7.6,0,14.7,4,18.5,10.5l34.4,59c3.8,6.5,3.8,14.5,0,21l-34.4,59
	C1106.9,1641.6,1099.8,1645.7,1092.2,1645.7z"/>
<path class="st3" d="M910.3,1730h-34.4c-7.6,0-14.7-4-18.5-10.5l-34.4-59c-3.8-6.5-3.8-14.5,0-21l34.4-59
	c3.8-6.5,10.9-10.5,18.5-10.5h34.4v-8.5h-34.4c-7.6,0-14.7-4-18.5-10.5l-34.4-59c-3.8-6.5-3.8-14.5,0-21l34.4-59
	c3.8-6.5,10.9-10.5,18.5-10.5h34.4v-4.3h-57.4c0,3.6-0.9,7.3-2.9,10.5l-34.4,59c-3.8,6.5-10.9,10.5-18.5,10.5h-68.8
	c-7.6,0-14.7-4-18.5-10.5l-34.4-59c-1.9-3.3-2.9-6.9-2.9-10.5h-57.4v4.2h34.4c7.6,0,14.7,4,18.5,10.5l34.4,59c3.8,6.5,3.8,14.5,0,21
	l-34.4,59c-3.8,6.5-10.9,10.5-18.5,10.5h-34.4v8.5h34.4c7.6,0,14.7,4,18.5,10.5l34.4,59c3.8,6.5,3.8,14.5,0,21l-9.9,16.9l-24.6,42.2
	l0,0c-3.8,6.5-10.9,10.5-18.5,10.5h-34.3v4.3h57.4c0-3.6,0.9-7.3,2.9-10.5l9.9-16.9l24.6-42.2l0,0c3.8-6.5,10.9-10.5,18.5-10.5h68.8
	c7.6,0,14.7,4,18.5,10.5l34.4,59c1.9,3.2,2.9,6.9,2.9,10.5h57.3V1730z M797.1,1645.7h-68.8c-7.6,0-14.7-4-18.5-10.5l-34.4-59
	c-3.8-6.5-3.8-14.5,0-21l34.4-59c3.8-6.5,10.9-10.5,18.5-10.5h68.8c7.6,0,14.7,4,18.5,10.5l34.4,59c3.8,6.5,3.8,14.5,0,21l-34.4,59
	C811.8,1641.6,804.7,1645.7,797.1,1645.7z"/>
<path class="st2" d="M1500.4,1730H1466c-7.6,0-14.7-4-18.5-10.5l-34.4-59c-3.8-6.5-3.8-14.5,0-21l34.4-59
	c3.8-6.5,10.9-10.5,18.5-10.5h34.4v-8.5H1466c-7.6,0-14.7-4-18.5-10.5l-34.4-59c-3.8-6.5-3.8-14.5,0-21l34.4-59
	c3.8-6.5,10.9-10.5,18.5-10.5h34.4v-4.3H1443c0,3.6-0.9,7.3-2.9,10.5l-34.4,59c-3.8,6.5-10.9,10.5-18.5,10.5h-68.8
	c-7.6,0-14.7-4-18.5-10.5l-34.4-59c-1.9-3.3-2.9-6.9-2.9-10.5h-57.4v4.2h34.4c7.6,0,14.7,4,18.5,10.5l34.4,59c3.8,6.5,3.8,14.5,0,21
	l-34.4,59c-3.8,6.5-10.9,10.5-18.5,10.5h-34.4v8.5h34.4c7.6,0,14.7,4,18.5,10.5l34.4,59c3.8,6.5,3.8,14.5,0,21l-9.9,16.9l-24.6,42.2
	l0,0c-3.8,6.5-10.9,10.5-18.5,10.5h-34.3v4.3h57.4c0-3.6,0.9-7.3,2.9-10.5l9.9-16.9l24.6-42.2l0,0c3.8-6.5,10.9-10.5,18.5-10.5h68.8
	c7.6,0,14.7,4,18.5,10.5l34.4,59c1.9,3.2,2.9,6.9,2.9,10.5h57.3V1730z M1387.3,1645.7h-68.8c-7.6,0-14.7-4-18.5-10.5l-34.4-59
	c-3.8-6.5-3.8-14.5,0-21l34.4-59c3.8-6.5,10.9-10.5,18.5-10.5h68.8c7.6,0,14.7,4,18.5,10.5l34.4,59c3.8,6.5,3.8,14.5,0,21l-34.4,59
	C1401.9,1641.6,1394.9,1645.7,1387.3,1645.7z"/>
<path class="st4" d="M2974.8,1730h-34.4c-7.6,0-14.7-4-18.5-10.5l-34.4-59c-3.8-6.5-3.8-14.5,0-21l34.4-59
	c3.8-6.5,10.9-10.5,18.5-10.5h34.4v-8.5h-34.4c-7.6,0-14.7-4-18.5-10.5l-34.4-59c-3.8-6.5-3.8-14.5,0-21l34.4-59
	c3.8-6.5,10.9-10.5,18.5-10.5h34.4v-4.3h-57.4c0,3.6-0.9,7.3-2.9,10.5l-34.4,59c-3.8,6.5-10.9,10.5-18.5,10.5h-68.8
	c-7.6,0-14.7-4-18.5-10.5l-34.4-59c-1.9-3.3-2.9-6.9-2.9-10.5h-57.4v4.2h34.4c7.6,0,14.7,4,18.5,10.5l34.4,59c3.8,6.5,3.8,14.5,0,21
	l-34.4,59c-3.8,6.5-10.9,10.5-18.5,10.5h-34.4v8.5h34.4c7.6,0,14.7,4,18.5,10.5l34.4,59c3.8,6.5,3.8,14.5,0,21l-9.9,16.9l-24.6,42.2
	l0,0c-3.8,6.5-10.9,10.5-18.5,10.5h-34.3v4.3h57.4c0-3.6,0.9-7.3,2.9-10.5l9.9-16.9l24.6-42.2l0,0c3.8-6.5,10.9-10.5,18.5-10.5h68.8
	c7.6,0,14.7,4,18.5,10.5l34.4,59c1.9,3.2,2.9,6.9,2.9,10.5h57.3V1730z M2861.6,1645.7h-68.8c-7.6,0-14.7-4-18.5-10.5l-34.4-59
	c-3.8-6.5-3.8-14.5,0-21l34.4-59c3.8-6.5,10.9-10.5,18.5-10.5h68.8c7.6,0,14.7,4,18.5,10.5l34.4,59c3.8,6.5,3.8,14.5,0,21l-34.4,59
	C2876.3,1641.6,2869.2,1645.7,2861.6,1645.7z"/>
<path class="st2" d="M2679.7,1730h-34.4c-7.6,0-14.7-4-18.5-10.5l-34.4-59c-3.8-6.5-3.8-14.5,0-21l34.4-59
	c3.8-6.5,10.9-10.5,18.5-10.5h34.4v-8.5h-34.4c-7.6,0-14.7-4-18.5-10.5l-34.4-59c-3.8-6.5-3.8-14.5,0-21l34.4-59
	c3.8-6.5,10.9-10.5,18.5-10.5h34.4v-4.3h-57.4c0,3.6-0.9,7.3-2.9,10.5l-34.4,59c-3.8,6.5-10.9,10.5-18.5,10.5h-68.8
	c-7.6,0-14.7-4-18.5-10.5l-34.4-59c-1.9-3.3-2.9-6.9-2.9-10.5h-57.4v4.2h34.4c7.6,0,14.7,4,18.5,10.5l34.4,59c3.8,6.5,3.8,14.5,0,21
	l-34.4,59c-3.8,6.5-10.9,10.5-18.5,10.5h-34.4v8.5h34.4c7.6,0,14.7,4,18.5,10.5l34.4,59c3.8,6.5,3.8,14.5,0,21l-9.9,16.9l-24.6,42.2
	l0,0c-3.8,6.5-10.9,10.5-18.5,10.5h-34.3v4.3h57.4c0-3.6,0.9-7.3,2.9-10.5l9.9-16.9l24.6-42.2l0,0c3.8-6.5,10.9-10.5,18.5-10.5h68.8
	c7.6,0,14.7,4,18.5,10.5l34.4,59c1.9,3.2,2.9,6.9,2.9,10.5h57.3V1730z M2566.6,1645.7h-68.8c-7.6,0-14.7-4-18.5-10.5l-34.4-59
	c-3.8-6.5-3.8-14.5,0-21l34.4-59c3.8-6.5,10.9-10.5,18.5-10.5h68.8c7.6,0,14.7,4,18.5,10.5l34.4,59c3.8,6.5,3.8,14.5,0,21l-34.4,59
	C2581.2,1641.6,2574.2,1645.7,2566.6,1645.7z"/>
<path class="st3" d="M3269.9,1730h-34.4c-7.6,0-14.7-4-18.5-10.5l-34.4-59c-3.8-6.5-3.8-14.5,0-21l34.4-59
	c3.8-6.5,10.9-10.5,18.5-10.5h34.4v-8.5h-34.4c-7.6,0-14.7-4-18.5-10.5l-34.4-59c-3.8-6.5-3.8-14.5,0-21l34.4-59
	c3.8-6.5,10.9-10.5,18.5-10.5h34.4v-4.3h-57.4c0,3.6-0.9,7.3-2.9,10.5l-34.4,59c-3.8,6.5-10.9,10.5-18.5,10.5h-68.8
	c-7.6,0-14.7-4-18.5-10.5l-34.4-59c-1.9-3.3-2.9-6.9-2.9-10.5h-57.4v4.2h34.4c7.6,0,14.7,4,18.5,10.5l34.4,59c3.8,6.5,3.8,14.5,0,21
	l-34.4,59c-3.8,6.5-10.9,10.5-18.5,10.5h-34.4v8.5h34.4c7.6,0,14.7,4,18.5,10.5l34.4,59c3.8,6.5,3.8,14.5,0,21l-9.9,16.9l-24.6,42.2
	l0,0c-3.8,6.5-10.9,10.5-18.5,10.5h-34.3v4.3h57.4c0-3.6,0.9-7.3,2.9-10.5l9.9-16.9l24.6-42.2l0,0c3.8-6.5,10.9-10.5,18.5-10.5h68.8
	c7.6,0,14.7,4,18.5,10.5l34.4,59c1.9,3.2,2.9,6.9,2.9,10.5h57.3V1730z M3156.7,1645.7h-68.8c-7.6,0-14.7-4-18.5-10.5l-34.4-59
	c-3.8-6.5-3.8-14.5,0-21l34.4-59c3.8-6.5,10.9-10.5,18.5-10.5h68.8c7.6,0,14.7,4,18.5,10.5l34.4,59c3.8,6.5,3.8,14.5,0,21l-34.4,59
	C3171.4,1641.6,3164.3,1645.7,3156.7,1645.7z"/>
<path class="st1" d="M2091,1389.7h-34.4c-7.6,0-14.7-4-18.5-10.5l-34.4-59c-3.8-6.5-3.8-14.5,0-21l34.4-59
	c3.8-6.5,10.9-10.5,18.5-10.5h34.4v-8.5h-34.4c-7.6,0-14.7-4-18.5-10.5l-34.4-59c-3.8-6.5-3.8-14.5,0-21l34.4-59
	c3.8-6.5,10.9-10.5,18.5-10.5h34.4v-4.3h-57.4c0,3.6-0.9,7.3-2.9,10.5l-34.4,59c-3.8,6.5-10.9,10.5-18.5,10.5H1909
	c-7.6,0-14.7-4-18.5-10.5l-34.4-59c-1.9-3.3-2.9-6.9-2.9-10.5h-57.4v4.2h34.4c7.6,0,14.7,4,18.5,10.5l34.4,59c3.8,6.5,3.8,14.5,0,21
	l-34.4,59c-3.8,6.5-10.9,10.5-18.5,10.5h-34.4v8.5h34.4c7.6,0,14.7,4,18.5,10.5l34.4,59c3.8,6.5,3.8,14.5,0,21l-9.9,16.9l-24.6,42.2
	l0,0c-3.8,6.5-10.9,10.5-18.5,10.5h-34.3v4.3h57.4c0-3.6,0.9-7.3,2.9-10.5l9.9-16.9l24.6-42.2l0,0c3.8-6.5,10.9-10.5,18.5-10.5h68.8
	c7.6,0,14.7,4,18.5,10.5l34.4,59c1.9,3.2,2.9,6.9,2.9,10.5h57.3V1389.7z M1977.8,1305.4H1909c-7.6,0-14.7-4-18.5-10.5l-34.4-59
	c-3.8-6.5-3.8-14.5,0-21l34.4-59c3.8-6.5,10.9-10.5,18.5-10.5h68.8c7.6,0,14.7,4,18.5,10.5l34.4,59c3.8,6.5,3.8,14.5,0,21l-34.4,59
	C1992.5,1301.4,1985.4,1305.4,1977.8,1305.4z"/>
<path class="st2" d="M1795.9,1389.7h-34.4c-7.6,0-14.7-4-18.5-10.5l-34.4-59c-3.8-6.5-3.8-14.5,0-21l34.4-59
	c3.8-6.5,10.9-10.5,18.5-10.5h34.4v-8.5h-34.4c-7.6,0-14.7-4-18.5-10.5l-34.4-59c-3.8-6.5-3.8-14.5,0-21l34.4-59
	c3.8-6.5,10.9-10.5,18.5-10.5h34.4v-4.3h-57.4c0,3.6-0.9,7.3-2.9,10.5l-34.4,59c-3.8,6.5-10.9,10.5-18.5,10.5h-68.8
	c-7.6,0-14.7-4-18.5-10.5l-34.4-59c-1.9-3.3-2.9-6.9-2.9-10.5h-57.4v4.2h34.4c7.6,0,14.7,4,18.5,10.5l34.4,59c3.8,6.5,3.8,14.5,0,21
	l-34.4,59c-3.8,6.5-10.9,10.5-18.5,10.5h-34.4v8.5h34.4c7.6,0,14.7,4,18.5,10.5l34.4,59c3.8,6.5,3.8,14.5,0,21l-9.9,16.9l-24.6,42.2
	l0,0c-3.8,6.5-10.9,10.5-18.5,10.5h-34.3v4.3h57.4c0-3.6,0.9-7.3,2.9-10.5l9.9-16.9l24.6-42.2l0,0c3.8-6.5,10.9-10.5,18.5-10.5h68.8
	c7.6,0,14.7,4,18.5,10.5l34.4,59c1.9,3.2,2.9,6.9,2.9,10.5h57.3V1389.7z M1682.7,1305.4h-68.8c-7.6,0-14.7-4-18.5-10.5l-34.4-59
	c-3.8-6.5-3.8-14.5,0-21l34.4-59c3.8-6.5,10.9-10.5,18.5-10.5h68.8c7.6,0,14.7,4,18.5,10.5l34.4,59c3.8,6.5,3.8,14.5,0,21l-34.4,59
	C1697.4,1301.4,1690.3,1305.4,1682.7,1305.4z"/>
<path class="st2" d="M2386,1389.7h-34.4c-7.6,0-14.7-4-18.5-10.5l-34.4-59c-3.8-6.5-3.8-14.5,0-21l34.4-59
	c3.8-6.5,10.9-10.5,18.5-10.5h34.4v-8.5h-34.4c-7.6,0-14.7-4-18.5-10.5l-34.4-59c-3.8-6.5-3.8-14.5,0-21l34.4-59
	c3.8-6.5,10.9-10.5,18.5-10.5h34.4v-4.3h-57.4c0,3.6-0.9,7.3-2.9,10.5l-34.4,59c-3.8,6.5-10.9,10.5-18.5,10.5h-68.8
	c-7.6,0-14.7-4-18.5-10.5l-34.4-59c-1.9-3.3-2.9-6.9-2.9-10.5H2091v4.2h34.4c7.6,0,14.7,4,18.5,10.5l34.4,59c3.8,6.5,3.8,14.5,0,21
	l-34.4,59c-3.8,6.5-10.9,10.5-18.5,10.5H2091v8.5h34.4c7.6,0,14.7,4,18.5,10.5l34.4,59c3.8,6.5,3.8,14.5,0,21l-9.9,16.9l-24.6,42.2
	l0,0c-3.8,6.5-10.9,10.5-18.5,10.5H2091v4.3h57.4c0-3.6,0.9-7.3,2.9-10.5l9.9-16.9l24.6-42.2l0,0c3.8-6.5,10.9-10.5,18.5-10.5h68.8
	c7.6,0,14.7,4,18.5,10.5l34.4,59c1.9,3.2,2.9,6.9,2.9,10.5h57.3V1389.7z M2272.9,1305.4h-68.8c-7.6,0-14.7-4-18.5-10.5l-34.4-59
	c-3.8-6.5-3.8-14.5,0-21l34.4-59c3.8-6.5,10.9-10.5,18.5-10.5h68.8c7.6,0,14.7,4,18.5,10.5l34.4,59c3.8,6.5,3.8,14.5,0,21l-34.4,59
	C2287.6,1301.4,2280.5,1305.4,2272.9,1305.4z"/>
<path class="st3" d="M1205.7,1389.7h-34.4c-7.6,0-14.7-4-18.5-10.5l-34.4-59c-3.8-6.5-3.8-14.5,0-21l34.4-59
	c3.8-6.5,10.9-10.5,18.5-10.5h34.4v-8.5h-34.4c-7.6,0-14.7-4-18.5-10.5l-34.4-59c-3.8-6.5-3.8-14.5,0-21l34.4-59
	c3.8-6.5,10.9-10.5,18.5-10.5h34.4v-4.3h-57.4c0,3.6-0.9,7.3-2.9,10.5l-34.4,59c-3.8,6.5-10.9,10.5-18.5,10.5h-68.8
	c-7.6,0-14.7-4-18.5-10.5l-34.4-59c-1.9-3.3-2.9-6.9-2.9-10.5h-57.4v4.2h34.4c7.6,0,14.7,4,18.5,10.5l34.4,59c3.8,6.5,3.8,14.5,0,21
	l-34.4,59c-3.8,6.5-10.9,10.5-18.5,10.5h-34.4v8.5h34.4c7.6,0,14.7,4,18.5,10.5l34.4,59c3.8,6.5,3.8,14.5,0,21l-9.9,16.9l-24.6,42.2
	l0,0c-3.8,6.5-10.9,10.5-18.5,10.5h-34.3v4.3h57.4c0-3.6,0.9-7.3,2.9-10.5l9.9-16.9l24.6-42.2l0,0c3.8-6.5,10.9-10.5,18.5-10.5h68.8
	c7.6,0,14.7,4,18.5,10.5l34.4,59c1.9,3.2,2.9,6.9,2.9,10.5h57.3V1389.7z M1092.6,1305.4h-68.8c-7.6,0-14.7-4-18.5-10.5l-34.4-59
	c-3.8-6.5-3.8-14.5,0-21l34.4-59c3.8-6.5,10.9-10.5,18.5-10.5h68.8c7.6,0,14.7,4,18.5,10.5l34.4,59c3.8,6.5,3.8,14.5,0,21l-34.4,59
	C1107.3,1301.4,1100.2,1305.4,1092.6,1305.4z"/>
<path class="st4" d="M1500.8,1389.7h-34.4c-7.6,0-14.7-4-18.5-10.5l-34.4-59c-3.8-6.5-3.8-14.5,0-21l34.4-59
	c3.8-6.5,10.9-10.5,18.5-10.5h34.4v-8.5h-34.4c-7.6,0-14.7-4-18.5-10.5l-34.4-59c-3.8-6.5-3.8-14.5,0-21l34.4-59
	c3.8-6.5,10.9-10.5,18.5-10.5h34.4v-4.3h-57.4c0,3.6-0.9,7.3-2.9,10.5l-34.4,59c-3.8,6.5-10.9,10.5-18.5,10.5h-68.8
	c-7.6,0-14.7-4-18.5-10.5l-34.4-59c-1.9-3.3-2.9-6.9-2.9-10.5h-57.4v4.2h34.4c7.6,0,14.7,4,18.5,10.5l34.4,59c3.8,6.5,3.8,14.5,0,21
	l-34.4,59c-3.8,6.5-10.9,10.5-18.5,10.5h-34.4v8.5h34.4c7.6,0,14.7,4,18.5,10.5l34.4,59c3.8,6.5,3.8,14.5,0,21l-9.9,16.9l-24.6,42.2
	l0,0c-3.8,6.5-10.9,10.5-18.5,10.5h-34.3v4.3h57.4c0-3.6,0.9-7.3,2.9-10.5l9.9-16.9l24.6-42.2l0,0c3.8-6.5,10.9-10.5,18.5-10.5h68.8
	c7.6,0,14.7,4,18.5,10.5l34.4,59c1.9,3.2,2.9,6.9,2.9,10.5h57.3V1389.7z M1387.7,1305.4h-68.8c-7.6,0-14.7-4-18.5-10.5l-34.4-59
	c-3.8-6.5-3.8-14.5,0-21l34.4-59c3.8-6.5,10.9-10.5,18.5-10.5h68.8c7.6,0,14.7,4,18.5,10.5l34.4,59c3.8,6.5,3.8,14.5,0,21l-34.4,59
	C1402.3,1301.4,1395.3,1305.4,1387.7,1305.4z"/>
<path class="st3" d="M2975.2,1389.7h-34.4c-7.6,0-14.7-4-18.5-10.5l-34.4-59c-3.8-6.5-3.8-14.5,0-21l34.4-59
	c3.8-6.5,10.9-10.5,18.5-10.5h34.4v-8.5h-34.4c-7.6,0-14.7-4-18.5-10.5l-34.4-59c-3.8-6.5-3.8-14.5,0-21l34.4-59
	c3.8-6.5,10.9-10.5,18.5-10.5h34.4v-4.3h-57.4c0,3.6-0.9,7.3-2.9,10.5l-34.4,59c-3.8,6.5-10.9,10.5-18.5,10.5h-68.8
	c-7.6,0-14.7-4-18.5-10.5l-34.4-59c-1.9-3.3-2.9-6.9-2.9-10.5h-57.4v4.2h34.4c7.6,0,14.7,4,18.5,10.5l34.4,59c3.8,6.5,3.8,14.5,0,21
	l-34.4,59c-3.8,6.5-10.9,10.5-18.5,10.5h-34.4v8.5h34.4c7.6,0,14.7,4,18.5,10.5l34.4,59c3.8,6.5,3.8,14.5,0,21l-9.9,16.9l-24.6,42.2
	l0,0c-3.8,6.5-10.9,10.5-18.5,10.5h-34.3v4.3h57.4c0-3.6,0.9-7.3,2.9-10.5l9.9-16.9l24.6-42.2l0,0c3.8-6.5,10.9-10.5,18.5-10.5h68.8
	c7.6,0,14.7,4,18.5,10.5l34.4,59c1.9,3.2,2.9,6.9,2.9,10.5h57.3V1389.7z M2862,1305.4h-68.8c-7.6,0-14.7-4-18.5-10.5l-34.4-59
	c-3.8-6.5-3.8-14.5,0-21l34.4-59c3.8-6.5,10.9-10.5,18.5-10.5h68.8c7.6,0,14.7,4,18.5,10.5l34.4,59c3.8,6.5,3.8,14.5,0,21l-34.4,59
	C2876.7,1301.4,2869.6,1305.4,2862,1305.4z"/>
<path class="st4" d="M2680.1,1389.7h-34.4c-7.6,0-14.7-4-18.5-10.5l-34.4-59c-3.8-6.5-3.8-14.5,0-21l34.4-59
	c3.8-6.5,10.9-10.5,18.5-10.5h34.4v-8.5h-34.4c-7.6,0-14.7-4-18.5-10.5l-34.4-59c-3.8-6.5-3.8-14.5,0-21l34.4-59
	c3.8-6.5,10.9-10.5,18.5-10.5h34.4v-4.3h-57.4c0,3.6-0.9,7.3-2.9,10.5l-34.4,59c-3.8,6.5-10.9,10.5-18.5,10.5h-68.8
	c-7.6,0-14.7-4-18.5-10.5l-34.4-59c-1.9-3.3-2.9-6.9-2.9-10.5H2385v4.2h34.4c7.6,0,14.7,4,18.5,10.5l34.4,59c3.8,6.5,3.8,14.5,0,21
	l-34.4,59c-3.8,6.5-10.9,10.5-18.5,10.5H2385v8.5h34.4c7.6,0,14.7,4,18.5,10.5l34.4,59c3.8,6.5,3.8,14.5,0,21l-9.9,16.9l-24.6,42.2
	l0,0c-3.8,6.5-10.9,10.5-18.5,10.5H2385v4.3h57.4c0-3.6,0.9-7.3,2.9-10.5l9.9-16.9l24.6-42.2l0,0c3.8-6.5,10.9-10.5,18.5-10.5h68.8
	c7.6,0,14.7,4,18.5,10.5l34.4,59c1.9,3.2,2.9,6.9,2.9,10.5h57.3V1389.7z M2567,1305.4h-68.8c-7.6,0-14.7-4-18.5-10.5l-34.4-59
	c-3.8-6.5-3.8-14.5,0-21l34.4-59c3.8-6.5,10.9-10.5,18.5-10.5h68.8c7.6,0,14.7,4,18.5,10.5l34.4,59c3.8,6.5,3.8,14.5,0,21l-34.4,59
	C2581.6,1301.4,2574.6,1305.4,2567,1305.4z"/>
<path class="st2" d="M2090.1,1052.5h-34.4c-7.6,0-14.7-4-18.5-10.5l-34.4-59c-3.8-6.5-3.8-14.5,0-21l34.4-59
	c3.8-6.5,10.9-10.5,18.5-10.5h34.4v-8.5h-34.4c-7.6,0-14.7-4-18.5-10.5l-34.4-59c-3.8-6.5-3.8-14.5,0-21l34.4-59
	c3.8-6.5,10.9-10.5,18.5-10.5h34.4v-4.3h-57.4c0,3.6-0.9,7.3-2.9,10.5l-34.4,59c-3.8,6.5-10.9,10.5-18.5,10.5h-68.8
	c-7.6,0-14.7-4-18.5-10.5l-34.4-59c-1.9-3.3-2.9-6.9-2.9-10.5H1795v4.2h34.4c7.6,0,14.7,4,18.5,10.5l34.4,59c3.8,6.5,3.8,14.5,0,21
	l-34.4,59c-3.8,6.5-10.9,10.5-18.5,10.5H1795v8.5h34.4c7.6,0,14.7,4,18.5,10.5l34.4,59c3.8,6.5,3.8,14.5,0,21l-9.9,16.9l-24.6,42.2
	l0,0c-3.8,6.5-10.9,10.5-18.5,10.5H1795v4.3h57.4c0-3.6,0.9-7.3,2.9-10.5l9.9-16.9l24.6-42.2l0,0c3.8-6.5,10.9-10.5,18.5-10.5h68.8
	c7.6,0,14.7,4,18.5,10.5l34.4,59c1.9,3.2,2.9,6.9,2.9,10.5h57.3V1052.5z M1976.9,968.2h-68.8c-7.6,0-14.7-4-18.5-10.5l-34.4-59
	c-3.8-6.5-3.8-14.5,0-21l34.4-59c3.8-6.5,10.9-10.5,18.5-10.5h68.8c7.6,0,14.7,4,18.5,10.5l34.4,59c3.8,6.5,3.8,14.5,0,21l-34.4,59
	C1991.6,964.2,1984.5,968.2,1976.9,968.2z"/>
<path class="st4" d="M1795,1052.5h-34.4c-7.6,0-14.7-4-18.5-10.5l-34.4-59c-3.8-6.5-3.8-14.5,0-21l34.4-59
	c3.8-6.5,10.9-10.5,18.5-10.5h34.4v-8.5h-34.4c-7.6,0-14.7-4-18.5-10.5l-34.4-59c-3.8-6.5-3.8-14.5,0-21l34.4-59
	c3.8-6.5,10.9-10.5,18.5-10.5h34.4v-4.3h-57.4c0,3.6-0.9,7.3-2.9,10.5l-34.4,59c-3.8,6.5-10.9,10.5-18.5,10.5h-68.8
	c-7.6,0-14.7-4-18.5-10.5l-34.4-59c-1.9-3.3-2.9-6.9-2.9-10.5h-57.4v4.2h34.4c7.6,0,14.7,4,18.5,10.5l34.4,59c3.8,6.5,3.8,14.5,0,21
	l-34.4,59c-3.8,6.5-10.9,10.5-18.5,10.5h-34.4v8.5h34.4c7.6,0,14.7,4,18.5,10.5l34.4,59c3.8,6.5,3.8,14.5,0,21l-9.9,16.9l-24.6,42.2
	l0,0c-3.8,6.5-10.9,10.5-18.5,10.5h-34.3v4.3h57.4c0-3.6,0.9-7.3,2.9-10.5l9.9-16.9l24.6-42.2l0,0c3.8-6.5,10.9-10.5,18.5-10.5h68.8
	c7.6,0,14.7,4,18.5,10.5l34.4,59c1.9,3.2,2.9,6.9,2.9,10.5h57.3V1052.5z M1681.8,968.2h-68.8c-7.6,0-14.7-4-18.5-10.5l-34.4-59
	c-3.8-6.5-3.8-14.5,0-21l34.4-59c3.8-6.5,10.9-10.5,18.5-10.5h68.8c7.6,0,14.7,4,18.5,10.5l34.4,59c3.8,6.5,3.8,14.5,0,21l-34.4,59
	C1696.5,964.2,1689.4,968.2,1681.8,968.2z"/>
<path class="st4" d="M2385.1,1052.5h-34.4c-7.6,0-14.7-4-18.5-10.5l-34.4-59c-3.8-6.5-3.8-14.5,0-21l34.4-59
	c3.8-6.5,10.9-10.5,18.5-10.5h34.4v-8.5h-34.4c-7.6,0-14.7-4-18.5-10.5l-34.4-59c-3.8-6.5-3.8-14.5,0-21l34.4-59
	c3.8-6.5,10.9-10.5,18.5-10.5h34.4v-4.3h-57.4c0,3.6-0.9,7.3-2.9,10.5l-34.4,59c-3.8,6.5-10.9,10.5-18.5,10.5h-68.8
	c-7.6,0-14.7-4-18.5-10.5l-34.4-59c-1.9-3.3-2.9-6.9-2.9-10.5h-57.4v4.2h34.4c7.6,0,14.7,4,18.5,10.5l34.4,59c3.8,6.5,3.8,14.5,0,21
	l-34.4,59c-3.8,6.5-10.9,10.5-18.5,10.5h-34.4v8.5h34.4c7.6,0,14.7,4,18.5,10.5l34.4,59c3.8,6.5,3.8,14.5,0,21l-9.9,16.9l-24.6,42.2
	l0,0c-3.8,6.5-10.9,10.5-18.5,10.5h-34.3v4.3h57.4c0-3.6,0.9-7.3,2.9-10.5l9.9-16.9l24.6-42.2l0,0c3.8-6.5,10.9-10.5,18.5-10.5h68.8
	c7.6,0,14.7,4,18.5,10.5l34.4,59c1.9,3.2,2.9,6.9,2.9,10.5h57.3V1052.5z M2272,968.2h-68.8c-7.6,0-14.7-4-18.5-10.5l-34.4-59
	c-3.8-6.5-3.8-14.5,0-21l34.4-59c3.8-6.5,10.9-10.5,18.5-10.5h68.8c7.6,0,14.7,4,18.5,10.5l34.4,59c3.8,6.5,3.8,14.5,0,21l-34.4,59
	C2286.7,964.2,2279.6,968.2,2272,968.2z"/>
<path class="st3" d="M1499.9,1052.5h-34.4c-7.6,0-14.7-4-18.5-10.5l-34.4-59c-3.8-6.5-3.8-14.5,0-21l34.4-59
	c3.8-6.5,10.9-10.5,18.5-10.5h34.4v-8.5h-34.4c-7.6,0-14.7-4-18.5-10.5l-34.4-59c-3.8-6.5-3.8-14.5,0-21l34.4-59
	c3.8-6.5,10.9-10.5,18.5-10.5h34.4v-4.3h-57.4c0,3.6-0.9,7.3-2.9,10.5l-34.4,59c-3.8,6.5-10.9,10.5-18.5,10.5H1318
	c-7.6,0-14.7-4-18.5-10.5l-34.4-59c-1.9-3.3-2.9-6.9-2.9-10.5h-57.4v4.2h34.4c7.6,0,14.7,4,18.5,10.5l34.4,59c3.8,6.5,3.8,14.5,0,21
	l-34.4,59c-3.8,6.5-10.9,10.5-18.5,10.5h-34.4v8.5h34.4c7.6,0,14.7,4,18.5,10.5l34.4,59c3.8,6.5,3.8,14.5,0,21l-9.9,16.9l-24.6,42.2
	l0,0c-3.8,6.5-10.9,10.5-18.5,10.5h-34.3v4.3h57.4c0-3.6,0.9-7.3,2.9-10.5l9.9-16.9l24.6-42.2l0,0c3.8-6.5,10.9-10.5,18.5-10.5h68.8
	c7.6,0,14.7,4,18.5,10.5l34.4,59c1.9,3.2,2.9,6.9,2.9,10.5h57.3V1052.5z M1386.8,968.2H1318c-7.6,0-14.7-4-18.5-10.5l-34.4-59
	c-3.8-6.5-3.8-14.5,0-21l34.4-59c3.8-6.5,10.9-10.5,18.5-10.5h68.8c7.6,0,14.7,4,18.5,10.5l34.4,59c3.8,6.5,3.8,14.5,0,21l-34.4,59
	C1401.4,964.2,1394.4,968.2,1386.8,968.2z"/>
<path class="st3" d="M2679.2,1052.5h-34.4c-7.6,0-14.7-4-18.5-10.5l-34.4-59c-3.8-6.5-3.8-14.5,0-21l34.4-59
	c3.8-6.5,10.9-10.5,18.5-10.5h34.4v-8.5h-34.4c-7.6,0-14.7-4-18.5-10.5l-34.4-59c-3.8-6.5-3.8-14.5,0-21l34.4-59
	c3.8-6.5,10.9-10.5,18.5-10.5h34.4v-4.3h-57.4c0,3.6-0.9,7.3-2.9,10.5l-34.4,59c-3.8,6.5-10.9,10.5-18.5,10.5h-68.8
	c-7.6,0-14.7-4-18.5-10.5l-34.4-59c-1.9-3.3-2.9-6.9-2.9-10.5h-57.4v4.2h34.4c7.6,0,14.7,4,18.5,10.5l34.4,59c3.8,6.5,3.8,14.5,0,21
	l-34.4,59c-3.8,6.5-10.9,10.5-18.5,10.5h-34.4v8.5h34.4c7.6,0,14.7,4,18.5,10.5l34.4,59c3.8,6.5,3.8,14.5,0,21l-9.9,16.9l-24.6,42.2
	l0,0c-3.8,6.5-10.9,10.5-18.5,10.5h-34.3v4.3h57.4c0-3.6,0.9-7.3,2.9-10.5l9.9-16.9l24.6-42.2l0,0c3.8-6.5,10.9-10.5,18.5-10.5h68.8
	c7.6,0,14.7,4,18.5,10.5l34.4,59c1.9,3.2,2.9,6.9,2.9,10.5h57.3V1052.5z M2566.1,968.2h-68.8c-7.6,0-14.7-4-18.5-10.5l-34.4-59
	c-3.8-6.5-3.8-14.5,0-21l34.4-59c3.8-6.5,10.9-10.5,18.5-10.5h68.8c7.6,0,14.7,4,18.5,10.5l34.4,59c3.8,6.5,3.8,14.5,0,21l-34.4,59
	C2580.7,964.2,2573.7,968.2,2566.1,968.2z"/>
<path class="st4" d="M2088.1,720.5h-34.4c-7.6,0-14.7-4-18.5-10.5l-34.4-59c-3.8-6.5-3.8-14.5,0-21l34.4-59
	c3.8-6.5,10.9-10.5,18.5-10.5h34.4v-8.5h-34.4c-7.6,0-14.7-4-18.5-10.5l-34.4-59c-3.8-6.5-3.8-14.5,0-21l34.4-59
	c3.8-6.5,10.9-10.5,18.5-10.5h34.4v-4.3h-57.4c0,3.6-0.9,7.3-2.9,10.5l-34.4,59c-3.8,6.5-10.9,10.5-18.5,10.5h-68.8
	c-7.6,0-14.7-4-18.5-10.5l-34.4-59c-1.9-3.3-2.9-6.9-2.9-10.5H1793v4.2h34.4c7.6,0,14.7,4,18.5,10.5l34.4,59c3.8,6.5,3.8,14.5,0,21
	l-34.4,59c-3.8,6.5-10.9,10.5-18.5,10.5H1793v8.5h34.4c7.6,0,14.7,4,18.5,10.5l34.4,59c3.8,6.5,3.8,14.5,0,21l-9.9,16.9l-24.6,42.2
	l0,0c-3.8,6.5-10.9,10.5-18.5,10.5H1793v4.3h57.4c0-3.6,0.9-7.3,2.9-10.5l9.9-16.9l24.6-42.2l0,0c3.8-6.5,10.9-10.5,18.5-10.5h68.8
	c7.6,0,14.7,4,18.5,10.5l34.4,59c1.9,3.2,2.9,6.9,2.9,10.5h57.3V720.5z M1974.9,636.2h-68.8c-7.6,0-14.7-4-18.5-10.5l-34.4-59
	c-3.8-6.5-3.8-14.5,0-21l34.4-59c3.8-6.5,10.9-10.5,18.5-10.5h68.8c7.6,0,14.7,4,18.5,10.5l34.4,59c3.8,6.5,3.8,14.5,0,21l-34.4,59
	C1989.6,632.2,1982.5,636.2,1974.9,636.2z"/>
<path class="st3" d="M1793,720.5h-34.4c-7.6,0-14.7-4-18.5-10.5l-34.4-59c-3.8-6.5-3.8-14.5,0-21l34.4-59
	c3.8-6.5,10.9-10.5,18.5-10.5h34.4v-8.5h-34.4c-7.6,0-14.7-4-18.5-10.5l-34.4-59c-3.8-6.5-3.8-14.5,0-21l34.4-59
	c3.8-6.5,10.9-10.5,18.5-10.5h34.4v-4.3h-57.4c0,3.6-0.9,7.3-2.9,10.5l-34.4,59c-3.8,6.5-10.9,10.5-18.5,10.5h-68.8
	c-7.6,0-14.7-4-18.5-10.5l-34.4-59c-1.9-3.3-2.9-6.9-2.9-10.5h-57.4v4.2h34.4c7.6,0,14.7,4,18.5,10.5l34.4,59c3.8,6.5,3.8,14.5,0,21
	l-34.4,59c-3.8,6.5-10.9,10.5-18.5,10.5h-34.4v8.5h34.4c7.6,0,14.7,4,18.5,10.5l34.4,59c3.8,6.5,3.8,14.5,0,21l-9.9,16.9l-24.6,42.2
	l0,0c-3.8,6.5-10.9,10.5-18.5,10.5h-34.3v4.3h57.4c0-3.6,0.9-7.3,2.9-10.5l9.9-16.9l24.6-42.2l0,0c3.8-6.5,10.9-10.5,18.5-10.5h68.8
	c7.6,0,14.7,4,18.5,10.5l34.4,59c1.9,3.2,2.9,6.9,2.9,10.5h57.3V720.5z M1679.8,636.2h-68.8c-7.6,0-14.7-4-18.5-10.5l-34.4-59
	c-3.8-6.5-3.8-14.5,0-21l34.4-59c3.8-6.5,10.9-10.5,18.5-10.5h68.8c7.6,0,14.7,4,18.5,10.5l34.4,59c3.8,6.5,3.8,14.5,0,21l-34.4,59
	C1694.5,632.2,1687.4,636.2,1679.8,636.2z"/>
<path class="st3" d="M2383.1,720.5h-34.4c-7.6,0-14.7-4-18.5-10.5l-34.4-59c-3.8-6.5-3.8-14.5,0-21l34.4-59
	c3.8-6.5,10.9-10.5,18.5-10.5h34.4v-8.5h-34.4c-7.6,0-14.7-4-18.5-10.5l-34.4-59c-3.8-6.5-3.8-14.5,0-21l34.4-59
	c3.8-6.5,10.9-10.5,18.5-10.5h34.4v-4.3h-57.4c0,3.6-0.9,7.3-2.9,10.5l-34.4,59c-3.8,6.5-10.9,10.5-18.5,10.5h-68.8
	c-7.6,0-14.7-4-18.5-10.5l-34.4-59c-1.9-3.3-2.9-6.9-2.9-10.5h-57.4v4.2h34.4c7.6,0,14.7,4,18.5,10.5l34.4,59c3.8,6.5,3.8,14.5,0,21
	l-34.4,59c-3.8,6.5-10.9,10.5-18.5,10.5h-34.4v8.5h34.4c7.6,0,14.7,4,18.5,10.5l34.4,59c3.8,6.5,3.8,14.5,0,21l-9.9,16.9l-24.6,42.2
	l0,0c-3.8,6.5-10.9,10.5-18.5,10.5h-34.3v4.3h57.4c0-3.6,0.9-7.3,2.9-10.5l9.9-16.9l24.6-42.2l0,0c3.8-6.5,10.9-10.5,18.5-10.5h68.8
	c7.6,0,14.7,4,18.5,10.5l34.4,59c1.9,3.2,2.9,6.9,2.9,10.5h57.3V720.5z M2270,636.2h-68.8c-7.6,0-14.7-4-18.5-10.5l-34.4-59
	c-3.8-6.5-3.8-14.5,0-21l34.4-59c3.8-6.5,10.9-10.5,18.5-10.5h68.8c7.6,0,14.7,4,18.5,10.5l34.4,59c3.8,6.5,3.8,14.5,0,21l-34.4,59
	C2284.7,632.2,2277.6,636.2,2270,636.2z"/>
<path class="st3" d="M2091,386.1h-34.4c-7.6,0-14.7-4-18.5-10.5l-34.4-59c-3.8-6.5-3.8-14.5,0-21l34.4-59
	c3.8-6.5,10.9-10.5,18.5-10.5h34.4v-8.5h-34.4c-7.6,0-14.7-4-18.5-10.5l-34.4-59c-3.8-6.5-3.8-14.5,0-21l34.4-59
	c3.8-6.5,10.9-10.5,18.5-10.5h34.4V53h-57.4c0,3.6-0.9,7.3-2.9,10.5l-34.4,59c-3.8,6.5-10.9,10.5-18.5,10.5H1909
	c-7.6,0-14.7-4-18.5-10.5l-34.4-59c-1.9-3.3-2.9-6.9-2.9-10.5h-57.4v4.2h34.4c7.6,0,14.7,4,18.5,10.5l34.4,59c3.8,6.5,3.8,14.5,0,21
	l-34.4,59c-3.8,6.5-10.9,10.5-18.5,10.5h-34.4v8.5h34.4c7.6,0,14.7,4,18.5,10.5l34.4,59c3.8,6.5,3.8,14.5,0,21l-9.9,16.9l-24.6,42.2
	l0,0c-3.8,6.5-10.9,10.5-18.5,10.5h-34.3v4.3h57.4c0-3.6,0.9-7.3,2.9-10.5l9.9-16.9l24.6-42.2l0,0c3.8-6.5,10.9-10.5,18.5-10.5h68.8
	c7.6,0,14.7,4,18.5,10.5l34.4,59c1.9,3.2,2.9,6.9,2.9,10.5h57.3V386.1z M1977.8,301.7H1909c-7.6,0-14.7-4-18.5-10.5l-34.4-59
	c-3.8-6.5-3.8-14.5,0-21l34.4-59c3.8-6.5,10.9-10.5,18.5-10.5h68.8c7.6,0,14.7,4,18.5,10.5l34.4,59c3.8,6.5,3.8,14.5,0,21l-34.4,59
	C1992.5,297.7,1985.4,301.7,1977.8,301.7z"/>
</svg>
